<?xml version="1.0" encoding="us-ascii" standalone="no"?><svg xmlns="http://www.w3.org/2000/svg" xmlns:xlink="http://www.w3.org/1999/xlink" contentStyleType="text/css" height="511px" preserveAspectRatio="none" style="width:685px;height:511px;background:#FFFFFF;" version="1.1" viewBox="0 0 685 511" width="685px" zoomAndPan="magnify"><defs/><g><text fill="#000000" font-family="sans-serif" font-size="14" font-weight="bold" lengthAdjust="spacing" textLength="351" x="160" y="23.5352">Self contained collection crate with all resources</text><!--cluster ROCrate: MyCorpus--><g id="cluster_ROCrate: MyCorpus"><path d="M8.5,43.4883 L149.5,43.4883 A3.75,3.75 0 0 1 152,45.9883 L159,65.9766 L675.5,65.9766 A2.5,2.5 0 0 1 678,68.4766 L678,501.9183 A2.5,2.5 0 0 1 675.5,504.4183 L8.5,504.4183 A2.5,2.5 0 0 1 6,501.9183 L6,45.9883 A2.5,2.5 0 0 1 8.5,43.4883 " fill="none" style="stroke:#000000;stroke-width:1.5;"/><line style="stroke:#000000;stroke-width:1.5;" x1="6" x2="159" y1="65.9766" y2="65.9766"/><text fill="#000000" font-family="sans-serif" font-size="14" font-weight="bold" lengthAdjust="spacing" textLength="140" x="10" y="59.0234">ROCrate: MyCorpus</text></g><!--entity a1--><g id="elem_a1"><rect fill="#F1F1F1" height="69.4648" rx="2.5" ry="2.5" style="stroke:#181818;stroke-width:0.5;" width="290" x="372" y="418.9583"/><text fill="#000000" font-family="sans-serif" font-size="14" lengthAdjust="spacing" textLength="145" x="382" y="442.4934">File: files/audio1.wav</text><text fill="#000000" font-family="sans-serif" font-size="14" lengthAdjust="spacing" textLength="204" x="382" y="458.9817">materialType: PrimaryMaterial</text><text fill="#000000" font-family="sans-serif" font-size="14" lengthAdjust="spacing" textLength="270" x="382" y="475.47">communicationMode: SpokenLanguage</text></g><!--entity csv1--><g id="elem_csv1"><rect fill="#F1F1F1" height="52.9766" rx="2.5" ry="2.5" style="stroke:#181818;stroke-width:0.5;" width="194" x="59" y="427.1983"/><text fill="#000000" font-family="sans-serif" font-size="14" lengthAdjust="spacing" textLength="122" x="69" y="450.7334">File: files/csv1.csv</text><text fill="#000000" font-family="sans-serif" font-size="14" lengthAdjust="spacing" textLength="174" x="69" y="467.2217">materialType: Annotation</text></g><!--entity files--><g id="elem_files"><rect fill="#F1F1F1" height="36.4883" rx="2.5" ry="2.5" style="stroke:#181818;stroke-width:0.5;" width="107" x="555.5" y="305.4683"/><text fill="#000000" font-family="sans-serif" font-size="14" lengthAdjust="spacing" textLength="87" x="565.5" y="329.0034">Dataset: files</text></g><!--entity cc--><g id="elem_cc"><rect fill="#F1F1F1" height="36.4883" rx="2.5" ry="2.5" style="stroke:#181818;stroke-width:0.5;" width="239" x="354.5" y="78.4883"/><text fill="#000000" font-family="sans-serif" font-size="14" lengthAdjust="spacing" textLength="219" x="364.5" y="102.0234">RepositoryCollection: MyCorpus</text></g><!--entity o1--><g id="elem_o1"><rect fill="#F1F1F1" height="36.4883" rx="2.5" ry="2.5" style="stroke:#181818;stroke-width:0.5;" width="232" x="289" y="305.4683"/><text fill="#000000" font-family="sans-serif" font-size="14" lengthAdjust="spacing" textLength="212" x="299" y="329.0034">RepositoryObject, Dialogue: #1</text></g><!--entity o2--><g id="elem_o2"><rect fill="#F1F1F1" height="36.4883" rx="2.5" ry="2.5" style="stroke:#181818;stroke-width:0.5;" width="232" x="22" y="305.4683"/><text fill="#000000" font-family="sans-serif" font-size="14" lengthAdjust="spacing" textLength="212" x="32" y="329.0034">RepositoryObject, Dialogue: #2</text></g><!--entity c2--><g id="elem_c2"><rect fill="#F1F1F1" height="36.4883" rx="2.5" ry="2.5" style="stroke:#181818;stroke-width:0.5;" width="253" x="278.5" y="191.9783"/><text fill="#000000" font-family="sans-serif" font-size="14" lengthAdjust="spacing" textLength="233" x="288.5" y="215.5134">RepositoryCollection: Collection A</text></g><!--link csv1 to a1--><g id="link_csv1_a1"><path d="M253.22,453.6883 C287.95,453.6883 327.95,453.6883 366.14,453.6883 " fill="none" id="csv1-to-a1" style="stroke:#181818;stroke-width:1.0;"/><polygon fill="#181818" points="370.76,453.6883,361.76,449.6883,365.76,453.6883,361.76,457.6883,370.76,453.6883" style="stroke:#181818;stroke-width:1.0;"/><text fill="#000000" font-family="sans-serif" font-size="13" lengthAdjust="spacing" textLength="83" x="271" y="447.2566">annotationOf</text></g><!--link cc to c2--><g id="link_cc_c2"><path d="M463.22,115.1483 C451.29,134.4283 432.02,165.5583 418.95,186.6783 " fill="none" id="cc-to-c2" style="stroke:#181818;stroke-width:1.0;"/><polygon fill="#181818" points="415.93,190.5583,424.0836,185.0339,418.5736,186.3143,417.2932,180.8042,415.93,190.5583" style="stroke:#181818;stroke-width:1.0;"/><text fill="#000000" font-family="sans-serif" font-size="13" lengthAdjust="spacing" textLength="72" x="444" y="158.5466">hasMember</text></g><!--link c2 to o1--><g id="link_c2_o1"><path d="M405,228.6383 C405,247.5883 405,277.9983 405,299.0883 " fill="none" id="c2-to-o1" style="stroke:#181818;stroke-width:1.0;"/><polygon fill="#181818" points="405,304.0483,409,295.0483,405,299.0483,401,295.0483,405,304.0483" style="stroke:#181818;stroke-width:1.0;"/><text fill="#000000" font-family="sans-serif" font-size="13" lengthAdjust="spacing" textLength="72" x="406" y="272.0366">hasMember</text></g><!--link c2 to o2--><g id="link_c2_o2"><path d="M362.69,228.8883 C314.46,249.0283 235.79,281.8783 185.49,302.8783 " fill="none" id="c2-to-o2" style="stroke:#181818;stroke-width:1.0;"/><polygon fill="#181818" points="181.11,305.1283,190.9564,305.3482,185.7233,303.2001,187.8714,297.967,181.11,305.1283" style="stroke:#181818;stroke-width:1.0;"/><text fill="#000000" font-family="sans-serif" font-size="13" lengthAdjust="spacing" textLength="72" x="288" y="272.0366">hasMember</text></g><!--link o1 to a1--><g id="link_o1_a1"><path d="M405.27,342.2183 C406.26,356.0083 409.46,375.1483 419,388.9583 C425.79,398.7883 434.64,407.4683 444.24,414.9983 " fill="none" id="o1-to-a1" style="stroke:#181818;stroke-width:1.0;"/><polygon fill="#181818" points="448.01,418.6083,443.2445,409.9891,444.022,415.5923,438.4189,416.3699,448.01,418.6083" style="stroke:#181818;stroke-width:1.0;"/><text fill="#000000" font-family="sans-serif" font-size="13" lengthAdjust="spacing" textLength="46" x="420" y="385.5266">hasPart</text></g><!--link o1 to csv1--><g id="link_o1_csv1"><path d="M370.64,342.3683 C329.58,363.4783 260.32,399.0683 211.6,424.1083 " fill="none" id="o1-to-csv1" style="stroke:#181818;stroke-width:1.0;"/><polygon fill="#181818" points="207.36,426.7983,217.1929,426.2379,211.8061,424.5109,213.5331,419.1241,207.36,426.7983" style="stroke:#181818;stroke-width:1.0;"/><text fill="#000000" font-family="sans-serif" font-size="13" lengthAdjust="spacing" textLength="46" x="311" y="385.5266">hasPart</text></g><!--link cc to files--><g id="link_cc_files"><path d="M496.26,115.3083 C505.87,123.6183 516.77,134.0983 525,144.9783 C562.63,194.6983 589.34,263.9883 601.54,299.5783 " fill="none" id="cc-to-files" style="stroke:#181818;stroke-width:1.0;"/><polygon fill="#181818" points="603.38,303.9983,604.2843,294.191,601.7774,299.2621,596.7064,296.7552,603.38,303.9983" style="stroke:#181818;stroke-width:1.0;"/><text fill="#000000" font-family="sans-serif" font-size="13" lengthAdjust="spacing" textLength="46" x="573" y="215.2866">hasPart</text></g><!--link files to csv1--><g id="link_files_csv1"><path d="M572.33,342.3283 C535.03,360.1583 481.29,385.5683 471,388.9583 C432.24,401.6983 334.97,420.6783 258.69,434.6083 " fill="none" id="files-to-csv1" style="stroke:#181818;stroke-width:1.0;"/><polygon fill="#181818" points="254.23,435.6083,263.8033,437.9216,259.1482,434.7076,262.3622,430.0524,254.23,435.6083" style="stroke:#181818;stroke-width:1.0;"/><text fill="#000000" font-family="sans-serif" font-size="13" lengthAdjust="spacing" textLength="46" x="508" y="385.5266">hasPart</text></g><!--link files to a1--><g id="link_files_a1"><path d="M597.63,342.3683 C589.13,355.3983 577.11,373.4683 566,388.9583 C560.09,397.1783 553.6,405.8683 547.32,414.0883 " fill="none" id="files-to-a1" style="stroke:#181818;stroke-width:1.0;"/><polygon fill="#181818" points="543.87,417.5983,552.5082,412.8673,546.9019,413.6224,546.1468,408.0162,543.87,417.5983" style="stroke:#181818;stroke-width:1.0;"/><text fill="#000000" font-family="sans-serif" font-size="13" lengthAdjust="spacing" textLength="46" x="577" y="385.5266">hasPart</text></g><!--SRC=[dL6zRi8m4Dxp52Uw5gemPgY4G9qQWTgEB8TZmCNnHRP355MyUyyE50YYgZh4ETttvpjxvRNCu5tgDGWo7fMH1LTQI-4L6H0MlOH6-IsWrc2bezeAwP8AnGut4WPlysdWP92tKx9LxGRmbG0mLNWq6nqeiYAdF5bcd9ml-UX025O5sU6kThxwvFOZp1HgsjIS-916BQN_qOuxxVYEzaM5nQpvT4zO5uhIKOFxfIbvLiik7st5-CAg4csR7vjB8wWiQwC4XXbpAi9oAzf9yyg-DIyifcBwIvfm-tJ4HpzhOWpvwDjjZ6azbnbwTD8VZI8hLc70G8VXCqTdW3zEytNofxSwrp3fqizxYx_myHiE2seCfp2SmHPTBikLj971hHFA3tQ9zi1RAVDFA1wb2xI-1yK9ps3IkrBSnBMuQztHt-1uxNv8lW40]--></g></svg>