<?xml version="1.0" encoding="UTF-8" standalone="no"?><svg xmlns="http://www.w3.org/2000/svg" xmlns:xlink="http://www.w3.org/1999/xlink" contentStyleType="text/css" height="476px" preserveAspectRatio="none" style="width:687px;height:476px;background:#FFFFFF;" version="1.1" viewBox="0 0 687 476" width="687px" zoomAndPan="magnify"><defs/><g><rect fill="none" height="26.4883" id="_title" style="stroke:none;stroke-width:1.0;" width="361" x="156" y="5"/><text fill="#000000" font-family="sans-serif" font-size="14" font-weight="bold" lengthAdjust="spacing" textLength="351" x="161" y="23.5352">Self contained collection crate with all resources</text><!--MD5=[5f22a27b23a776333fbfc2f3bcafc6b0]
cluster ROCrate: MyCorpus--><g id="cluster_ROCrate: MyCorpus"><path d="M8.5,43.4883 L149.5,43.4883 A3.75,3.75 0 0 1 152,45.9883 L159,65.9766 L677.5,65.9766 A2.5,2.5 0 0 1 680,68.4766 L680,466.9883 A2.5,2.5 0 0 1 677.5,469.4883 L8.5,469.4883 A2.5,2.5 0 0 1 6,466.9883 L6,45.9883 A2.5,2.5 0 0 1 8.5,43.4883 " fill="none" style="stroke:#000000;stroke-width:1.5;"/><line style="stroke:#000000;stroke-width:1.5;" x1="6" x2="159" y1="65.9766" y2="65.9766"/><text fill="#000000" font-family="sans-serif" font-size="14" font-weight="bold" lengthAdjust="spacing" textLength="140" x="10" y="59.0234">ROCrate: MyCorpus</text></g><!--MD5=[9b5fd479ff9e12a7cc0df0f0353b59f8]
entity a1--><g id="elem_a1"><rect fill="#F1F1F1" height="36.4883" rx="2.5" ry="2.5" style="stroke:#181818;stroke-width:0.5;" width="218" x="83" y="417.4883"/><text fill="#000000" font-family="sans-serif" font-size="14" lengthAdjust="spacing" textLength="198" x="93" y="441.0234">File, Audio:  files/audio1.wav</text></g><!--MD5=[7390fb06dead13a51c589bbf615679ce]
entity csv1--><g id="elem_csv1"><rect fill="#F1F1F1" height="36.4883" rx="2.5" ry="2.5" style="stroke:#181818;stroke-width:0.5;" width="328" x="336" y="417.4883"/><text fill="#000000" font-family="sans-serif" font-size="14" lengthAdjust="spacing" textLength="308" x="346" y="441.0234">File, OthographicTranscription: files/csv1.csv</text></g><!--MD5=[82f23cda116f7491e2ad662b9686858a]
entity files--><g id="elem_files"><rect fill="#F1F1F1" height="36.4883" rx="2.5" ry="2.5" style="stroke:#181818;stroke-width:0.5;" width="107" x="556.5" y="304.4883"/><text fill="#000000" font-family="sans-serif" font-size="14" lengthAdjust="spacing" textLength="87" x="566.5" y="328.0234">Dataset: files</text></g><!--MD5=[db956f40f2dc50163091c98812b3e6f0]
entity cc--><g id="elem_cc"><rect fill="#F1F1F1" height="36.4883" rx="2.5" ry="2.5" style="stroke:#181818;stroke-width:0.5;" width="239" x="355.5" y="78.4883"/><text fill="#000000" font-family="sans-serif" font-size="14" lengthAdjust="spacing" textLength="219" x="365.5" y="102.0234">RepositoryCollection: MyCorpus</text></g><!--MD5=[df3f65bb428d6182b9f1cb89f779efa3]
entity o1--><g id="elem_o1"><rect fill="#F1F1F1" height="36.4883" rx="2.5" ry="2.5" style="stroke:#181818;stroke-width:0.5;" width="232" x="289" y="304.4883"/><text fill="#000000" font-family="sans-serif" font-size="14" lengthAdjust="spacing" textLength="212" x="299" y="328.0234">RepositoryObject, Dialogue: #1</text></g><!--MD5=[faa3f1ca3e3ede7fe61b43e7609f74ed]
entity o2--><g id="elem_o2"><rect fill="#F1F1F1" height="36.4883" rx="2.5" ry="2.5" style="stroke:#181818;stroke-width:0.5;" width="232" x="22" y="304.4883"/><text fill="#000000" font-family="sans-serif" font-size="14" lengthAdjust="spacing" textLength="212" x="32" y="328.0234">RepositoryObject, Dialogue: #2</text></g><!--MD5=[3d2111c8a0a2d14b8769ddc11704380e]
entity c2--><g id="elem_c2"><rect fill="#F1F1F1" height="36.4883" rx="2.5" ry="2.5" style="stroke:#181818;stroke-width:0.5;" width="253" x="278.5" y="191.4883"/><text fill="#000000" font-family="sans-serif" font-size="14" lengthAdjust="spacing" textLength="233" x="288.5" y="215.0234">RepositoryCollection: Collection A</text></g><!--MD5=[28648b3a517a8822a9365d9ad950e59f]
link cc to c2--><g id="link_cc_c2"><path d="M464.06,114.8283 C451.79,134.2983 431.85,165.9083 418.59,186.9483 " fill="none" id="cc-to-c2" style="stroke:#181818;stroke-width:1.0;"/><polygon fill="#181818" points="415.86,191.2683,424.0353,185.7761,418.5203,187.0347,417.2616,181.5197,415.86,191.2683" style="stroke:#181818;stroke-width:1.0;"/><text fill="#000000" font-family="sans-serif" font-size="13" lengthAdjust="spacing" textLength="72" x="445" y="158.0566">hasMember</text></g><!--MD5=[9311915b248ab7b5c5b1868a857406ef]
link c2 to o1--><g id="link_c2_o1"><path d="M405,227.8283 C405,247.0583 405,278.1183 405,299.1483 " fill="none" id="c2-to-o1" style="stroke:#181818;stroke-width:1.0;"/><polygon fill="#181818" points="405,304.2683,409,295.2683,405,299.2683,401,295.2683,405,304.2683" style="stroke:#181818;stroke-width:1.0;"/><text fill="#000000" font-family="sans-serif" font-size="13" lengthAdjust="spacing" textLength="72" x="406" y="271.0566">hasMember</text></g><!--MD5=[bcd7322c8e61bd409d9be1dd46861ae8]
link c2 to o2--><g id="link_c2_o2"><path d="M363.87,227.5883 C315.26,247.7983 234.61,281.3283 183.98,302.3683 " fill="none" id="c2-to-o2" style="stroke:#181818;stroke-width:1.0;"/><polygon fill="#181818" points="179.18,304.3683,189.0255,304.625,183.8004,302.4574,185.968,297.2323,179.18,304.3683" style="stroke:#181818;stroke-width:1.0;"/><text fill="#000000" font-family="sans-serif" font-size="13" lengthAdjust="spacing" textLength="72" x="288" y="271.0566">hasMember</text></g><!--MD5=[d9ddaf9e2fe4a34e5495ce8f29682e0a]
link o1 to a1--><g id="link_o1_a1"><path d="M372.19,340.5883 C333.72,360.6283 270.11,393.7883 229.67,414.8583 " fill="none" id="o1-to-a1" style="stroke:#181818;stroke-width:1.0;"/><polygon fill="#181818" points="224.85,417.3683,234.6807,416.77,229.2873,415.0638,230.9935,409.6704,224.85,417.3683" style="stroke:#181818;stroke-width:1.0;"/><text fill="#000000" font-family="sans-serif" font-size="13" lengthAdjust="spacing" textLength="46" x="312" y="384.0566">hasPart</text></g><!--MD5=[9d1176678757bd75fd8ade7fead5ca7d]
link o1 to csv1--><g id="link_o1_csv1"><path d="M405.39,340.5083 C406.49,354.3683 409.91,373.7983 420,387.4883 C428.34,398.8083 440.29,407.8683 452.42,414.9083 " fill="none" id="o1-to-csv1" style="stroke:#181818;stroke-width:1.0;"/><polygon fill="#181818" points="456.89,417.3983,450.9761,409.5226,452.5226,414.964,447.0812,416.5105,456.89,417.3983" style="stroke:#181818;stroke-width:1.0;"/><text fill="#000000" font-family="sans-serif" font-size="13" lengthAdjust="spacing" textLength="46" x="421" y="384.0566">hasPart</text></g><!--MD5=[20ed630a26c1e7423deb52c9bfa2417a]
link cc to files--><g id="link_cc_files"><path d="M497.09,114.6683 C506.78,122.9583 517.8,133.4883 526,144.4883 C563.5,194.7783 590.56,264.4783 602.77,299.5183 " fill="none" id="cc-to-files" style="stroke:#181818;stroke-width:1.0;"/><polygon fill="#181818" points="604.46,304.4283,605.3021,294.6155,602.8274,299.7023,597.7406,297.2277,604.46,304.4283" style="stroke:#181818;stroke-width:1.0;"/><text fill="#000000" font-family="sans-serif" font-size="13" lengthAdjust="spacing" textLength="46" x="574" y="214.5566">hasPart</text></g><!--MD5=[efc1ec3c68cf46431925c959197e9c62]
link files to csv1--><g id="link_files_csv1"><path d="M600.9,340.4983 C593.07,354.1583 580.87,373.3383 567,387.4883 C557.17,397.5183 544.93,406.8183 533.62,414.4483 " fill="none" id="files-to-csv1" style="stroke:#181818;stroke-width:1.0;"/><polygon fill="#181818" points="529.18,417.3883,538.8938,415.7627,533.3512,414.6313,534.4826,409.0887,529.18,417.3883" style="stroke:#181818;stroke-width:1.0;"/><text fill="#000000" font-family="sans-serif" font-size="13" lengthAdjust="spacing" textLength="46" x="581" y="384.0566">hasPart</text></g><!--MD5=[259b0818f678c7232fc3ac505cf88405]
link files to a1--><g id="link_files_a1"><path d="M573.82,340.5583 C534.73,358.9583 477.28,385.8483 472,387.4883 C441.37,396.9683 369.57,408.9583 306.34,418.4483 " fill="none" id="files-to-a1" style="stroke:#181818;stroke-width:1.0;"/><polygon fill="#181818" points="301.03,419.2383,310.5171,421.8831,305.9766,418.5092,309.3505,413.9686,301.03,419.2383" style="stroke:#181818;stroke-width:1.0;"/><text fill="#000000" font-family="sans-serif" font-size="13" lengthAdjust="spacing" textLength="46" x="509" y="384.0566">hasPart</text></g><!--MD5=[b531a45cf28abcf0e42f260a45a1ec03]
@startuml
title: Self contained collection crate with all resources
package "ROCrate: MyCorpus" {
   rectangle "RepositoryCollection: MyCorpus" as cc {

   }
   rectangle "RepositoryObject, Dialogue: #1" as o1 {

   }
   rectangle "RepositoryObject, Dialogue: #2" as o2 {

   }
   rectangle "File, Audio:  files/audio1.wav" as a1
   rectangle "File, OthographicTranscription: files/csv1.csv" as csv1
   rectangle "Dataset: files" as files



   rectangle "RepositoryCollection: Collection A" as c2 {

   }
   cc -down-> c2 : hasMember

   c2 -down-> o1 : hasMember
   c2 -down-> o2 : hasMember

   o1 -down-> a1 : hasPart
   o1 -down-> csv1 : hasPart


   cc -down-> files : hasPart
   files -down-> csv1 : hasPart
   files -down-> a1 : hasPart


}

@enduml

PlantUML version 1.2022.7(Tue Aug 23 03:01:30 AEST 2022)
(GPL source distribution)
Java Runtime: OpenJDK Runtime Environment
JVM: OpenJDK 64-Bit Server VM
Default Encoding: UTF-8
Language: en
Country: AU
--></g></svg>