<svg xmlns="http://www.w3.org/2000/svg" xmlns:xlink="http://www.w3.org/1999/xlink" contentStyleType="text/css" data-diagram-type="DESCRIPTION" height="511px" preserveAspectRatio="none" style="width:814px;height:511px;background:#FFFFFF;" version="1.1" viewBox="0 0 814 511" width="814px" zoomAndPan="magnify"><title>Self-contained collection crate with all resources</title><defs/><g><text fill="#000000" font-family="sans-serif" font-size="14" font-weight="bold" lengthAdjust="spacing" textLength="354.1152" x="222.9424" y="23.5352">Self-contained collection crate with all resources</text><!--cluster RO-Crate: MyCorpus--><g class="cluster" data-entity="RO-Crate: MyCorpus" data-source-line="3" data-uid="ent0002" id="cluster_RO-Crate: MyCorpus"><path d="M8.5,43.4883 L158.6807,43.4883 A3.75,3.75 0 0 1 161.1807,45.9883 L168.1807,65.9766 L804.5,65.9766 A2.5,2.5 0 0 1 807,68.4766 L807,501.9183 A2.5,2.5 0 0 1 804.5,504.4183 L8.5,504.4183 A2.5,2.5 0 0 1 6,501.9183 L6,45.9883 A2.5,2.5 0 0 1 8.5,43.4883" fill="none" style="stroke:#000000;stroke-width:1.5;"/><line style="stroke:#000000;stroke-width:1.5;" x1="6" x2="168.1807" y1="65.9766" y2="65.9766"/><text fill="#000000" font-family="sans-serif" font-size="14" font-weight="bold" lengthAdjust="spacing" textLength="149.1807" x="10" y="59.0234">RO-Crate: MyCorpus</text></g><!--entity a1--><g class="entity" data-entity="a1" data-source-line="13" data-uid="ent0006" id="entity_a1"><rect fill="#F1F1F1" height="69.4648" rx="2.5" ry="2.5" style="stroke:#181818;stroke-width:0.5;" width="357.8936" x="433.05" y="418.9583"/><text fill="#000000" font-family="sans-serif" font-size="14" font-weight="bold" lengthAdjust="spacing" textLength="28.8066" x="443.05" y="442.4934">File:</text><text fill="#000000" font-family="sans-serif" font-size="14" lengthAdjust="spacing" textLength="112.4443" x="476.2863" y="442.4934">files/audio1.wav</text><text fill="#000000" font-family="sans-serif" font-size="14" font-weight="bold" lengthAdjust="spacing" textLength="131.1133" x="443.05" y="458.9817">ldac:materialType:</text><text fill="#000000" font-family="sans-serif" font-size="14" lengthAdjust="spacing" textLength="137.9287" x="578.593" y="458.9817">ldac:PrimaryMaterial</text><text fill="#000000" font-family="sans-serif" font-size="14" font-weight="bold" lengthAdjust="spacing" textLength="186.0879" x="443.05" y="475.47">ldac:communicationMode:</text><text fill="#000000" font-family="sans-serif" font-size="14" lengthAdjust="spacing" textLength="147.376" x="633.5676" y="475.47">ldac:SpokenLanguage</text></g><!--entity csv1--><g class="entity" data-entity="csv1" data-source-line="14" data-uid="ent0007" id="entity_csv1"><rect fill="#F1F1F1" height="52.9766" rx="2.5" ry="2.5" style="stroke:#181818;stroke-width:0.5;" width="262.9082" x="21.55" y="427.1983"/><text fill="#000000" font-family="sans-serif" font-size="14" font-weight="bold" lengthAdjust="spacing" textLength="28.8066" x="31.55" y="450.7334">File:</text><text fill="#000000" font-family="sans-serif" font-size="14" lengthAdjust="spacing" textLength="91.9092" x="64.7863" y="450.7334">files/csv1.csv</text><text fill="#000000" font-family="sans-serif" font-size="14" font-weight="bold" lengthAdjust="spacing" textLength="131.1133" x="31.55" y="467.2217">ldac:materialType:</text><text fill="#000000" font-family="sans-serif" font-size="14" lengthAdjust="spacing" textLength="107.3652" x="167.093" y="467.2217">ldac:Annotation</text></g><!--entity files--><g class="entity" data-entity="files" data-source-line="15" data-uid="ent0008" id="entity_files"><rect fill="#F1F1F1" height="36.4883" rx="2.5" ry="2.5" style="stroke:#181818;stroke-width:0.5;" width="111.0957" x="570.45" y="305.4683"/><text fill="#000000" font-family="sans-serif" font-size="14" font-weight="bold" lengthAdjust="spacing" textLength="58.4883" x="580.45" y="329.0034">Dataset:</text><text fill="#000000" font-family="sans-serif" font-size="14" lengthAdjust="spacing" textLength="28.1777" x="643.368" y="329.0034">files</text></g><!--entity cc--><g class="entity" data-entity="cc" data-source-line="4" data-uid="ent0003" id="entity_cc"><rect fill="#F1F1F1" height="36.4883" rx="2.5" ry="2.5" style="stroke:#181818;stroke-width:0.5;" width="245.6406" x="435.18" y="78.4883"/><text fill="#000000" font-family="sans-serif" font-size="14" font-weight="bold" lengthAdjust="spacing" textLength="153.1865" x="445.18" y="102.0234">RepositoryCollection:</text><text fill="#000000" font-family="sans-serif" font-size="14" lengthAdjust="spacing" textLength="68.0244" x="602.7962" y="102.0234">MyCorpus</text></g><!--entity o1--><g class="entity" data-entity="o1" data-source-line="7" data-uid="ent0004" id="entity_o1"><rect fill="#F1F1F1" height="36.4883" rx="2.5" ry="2.5" style="stroke:#181818;stroke-width:0.5;" width="239.0645" x="296.47" y="305.4683"/><text fill="#000000" font-family="sans-serif" font-size="14" font-weight="bold" lengthAdjust="spacing" textLength="127.9414" x="306.47" y="329.0034">RepositoryObject:</text><text fill="#000000" font-family="sans-serif" font-size="14" lengthAdjust="spacing" textLength="86.6934" x="438.8411" y="329.0034">Dialogue: #1</text></g><!--entity o2--><g class="entity" data-entity="o2" data-source-line="10" data-uid="ent0005" id="entity_o2"><rect fill="#F1F1F1" height="36.4883" rx="2.5" ry="2.5" style="stroke:#181818;stroke-width:0.5;" width="239.0645" x="22.47" y="305.4683"/><text fill="#000000" font-family="sans-serif" font-size="14" font-weight="bold" lengthAdjust="spacing" textLength="127.9414" x="32.47" y="329.0034">RepositoryObject:</text><text fill="#000000" font-family="sans-serif" font-size="14" lengthAdjust="spacing" textLength="86.6934" x="164.8411" y="329.0034">Dialogue: #2</text></g><!--entity c2--><g class="entity" data-entity="c2" data-source-line="19" data-uid="ent0010" id="entity_c2"><rect fill="#F1F1F1" height="36.4883" rx="2.5" ry="2.5" style="stroke:#181818;stroke-width:0.5;" width="259.627" x="286.19" y="191.9783"/><text fill="#000000" font-family="sans-serif" font-size="14" font-weight="bold" lengthAdjust="spacing" textLength="153.1865" x="296.19" y="215.5134">RepositoryCollection:</text><text fill="#000000" font-family="sans-serif" font-size="14" lengthAdjust="spacing" textLength="82.0107" x="453.8062" y="215.5134">Collection A</text></g><!--link csv1 to a1--><g class="link" data-entity-1="csv1" data-entity-2="a1" data-source-line="17" data-uid="lnk9" id="link_csv1_a1"><path d="M284.84,453.6883 C330.93,453.6883 377.47,453.6883 426.77,453.6883" fill="none" id="csv1-to-a1" style="stroke:#181818;stroke-width:1;"/><polygon fill="#181818" points="432.77,453.6883,423.77,449.6883,427.77,453.6883,423.77,457.6883,432.77,453.6883" style="stroke:#181818;stroke-width:1;"/><text fill="#000000" font-family="sans-serif" font-size="13" lengthAdjust="spacing" textLength="112.7852" x="302.75" y="447.2566">ldac:annotationOf</text></g><!--link cc to c2--><g class="link" data-entity-1="cc" data-entity-2="c2" data-source-line="25" data-uid="lnk11" id="link_cc_c2"><path d="M535.5,115.3983 C508.91,136.2783 469.659,167.0928 443.119,187.9328" fill="none" id="cc-to-c2" style="stroke:#181818;stroke-width:1;"/><polygon fill="#181818" points="438.4,191.6383,447.9489,189.226,442.3325,188.5504,443.0082,182.934,438.4,191.6383" style="stroke:#181818;stroke-width:1;"/><text fill="#000000" font-family="sans-serif" font-size="13" lengthAdjust="spacing" textLength="112.4678" x="496.5" y="158.5466">pcdm:hasMember</text></g><!--link c2 to o1--><g class="link" data-entity-1="c2" data-entity-2="o1" data-source-line="27" data-uid="lnk12" id="link_c2_o1"><path d="M416,228.6383 C416,249.4683 416,278.1083 416,299.0483" fill="none" id="c2-to-o1" style="stroke:#181818;stroke-width:1;"/><polygon fill="#181818" points="416,305.0483,420,296.0483,416,300.0483,412,296.0483,416,305.0483" style="stroke:#181818;stroke-width:1;"/><text fill="#000000" font-family="sans-serif" font-size="13" lengthAdjust="spacing" textLength="112.4678" x="417" y="272.0366">pcdm:hasMember</text></g><!--link c2 to o2--><g class="link" data-entity-1="c2" data-entity-2="o2" data-source-line="28" data-uid="lnk13" id="link_c2_o2"><path d="M369.23,228.9483 C346.47,237.6783 318.74,248.4483 294,258.4683 C256.16,273.7883 218.8636,289.5917 188.3436,302.6917" fill="none" id="c2-to-o2" style="stroke:#181818;stroke-width:1;"/><polygon fill="#181818" points="182.83,305.0583,192.6781,305.1841,187.4246,303.0861,189.5226,297.8327,182.83,305.0583" style="stroke:#181818;stroke-width:1;"/><text fill="#000000" font-family="sans-serif" font-size="13" lengthAdjust="spacing" textLength="112.4678" x="295" y="272.0366">pcdm:hasMember</text></g><!--link o1 to a1--><g class="link" data-entity-1="o1" data-entity-2="a1" data-source-line="30" data-uid="lnk14" id="link_o1_a1"><path d="M415.39,342.3183 C415.84,356.5383 418.73,376.2183 430,388.9583 C440.65,400.9883 448.4617,407.8225 462.6417,415.7425" fill="none" id="o1-to-a1" style="stroke:#181818;stroke-width:1;"/><polygon fill="#181818" points="467.88,418.6683,461.973,410.7874,463.5147,416.2301,458.072,417.7718,467.88,418.6683" style="stroke:#181818;stroke-width:1;"/><text fill="#000000" font-family="sans-serif" font-size="13" lengthAdjust="spacing" textLength="46.4204" x="431" y="385.5266">hasPart</text></g><!--link o1 to csv1--><g class="link" data-entity-1="o1" data-entity-2="csv1" data-source-line="31" data-uid="lnk15" id="link_o1_csv1"><path d="M379.71,342.3683 C334.76,364.2383 263.2055,399.0637 211.5855,424.1737" fill="none" id="o1-to-csv1" style="stroke:#181818;stroke-width:1;"/><polygon fill="#181818" points="206.19,426.7983,216.033,426.4584,210.6863,424.6111,212.5335,419.2644,206.19,426.7983" style="stroke:#181818;stroke-width:1;"/><text fill="#000000" font-family="sans-serif" font-size="13" lengthAdjust="spacing" textLength="46.4204" x="316.79" y="385.5266">hasPart</text></g><!--link cc to files--><g class="link" data-entity-1="cc" data-entity-2="files" data-source-line="34" data-uid="lnk16" id="link_cc_files"><path d="M588.87,115.4183 C599.34,123.0883 609.92,133.0583 616,144.9783 C643.03,197.9683 636.067,265.8417 630.447,299.1917" fill="none" id="cc-to-files" style="stroke:#181818;stroke-width:1;"/><polygon fill="#181818" points="629.45,305.1083,634.8899,296.8981,630.2809,300.1778,627.0012,295.5687,629.45,305.1083" style="stroke:#181818;stroke-width:1;"/><text fill="#000000" font-family="sans-serif" font-size="13" lengthAdjust="spacing" textLength="46.4204" x="635.82" y="215.2866">hasPart</text></g><!--link files to csv1--><g class="link" data-entity-1="files" data-entity-2="csv1" data-source-line="35" data-uid="lnk17" id="link_files_csv1"><path d="M592.24,342.4283 C563.58,356.7983 521.03,376.6483 482,388.9583 C418.33,409.0283 351.5557,422.9158 290.7157,433.2258" fill="none" id="files-to-csv1" style="stroke:#181818;stroke-width:1;"/><polygon fill="#181818" points="284.8,434.2283,294.3418,436.6683,289.7297,433.3929,293.0052,428.7808,284.8,434.2283" style="stroke:#181818;stroke-width:1;"/><text fill="#000000" font-family="sans-serif" font-size="13" lengthAdjust="spacing" textLength="46.4204" x="527.68" y="385.5266">hasPart</text></g><!--link files to a1--><g class="link" data-entity-1="files" data-entity-2="a1" data-source-line="36" data-uid="lnk18" id="link_files_a1"><path d="M624.08,342.2383 C621.94,361.8183 619.0725,388.0139 616.3825,412.6039" fill="none" id="files-to-a1" style="stroke:#181818;stroke-width:1;"/><polygon fill="#181818" points="615.73,418.5683,620.685,410.0566,616.2737,413.5979,612.7324,409.1867,615.73,418.5683" style="stroke:#181818;stroke-width:1;"/><text fill="#000000" font-family="sans-serif" font-size="13" lengthAdjust="spacing" textLength="46.4204" x="621.67" y="385.5266">hasPart</text></g><!--SRC=[fL8xRy8m4DxpAqvq3YYC4K92e4wDGD2noyKnuEBu8ji1eOh_tei3vIMAgWv9R7-F-t8-hxoMAIoaNiQ2Z4TbP062j9R2Ap8WB7e9E-NNW5g3bOvgAwIBAXGRN4depAVnk26baEt7PAlQTU0h0c2ky6XMcZc3V3YN5JdboJBfv9uEUldmGeOEX61nepxyPZ7DFnbfvHE5cbOrrtz9WWKb_x3ejnRznnQlYZiMP4jUkHxMXQAakyFjXs5O5oZIaljXsVHzNnsvuNXcLObsdntHCrzGMTP62Mowab5nALfKj97cZGFKtEyG3vFdiOJR9br-FGqrCePyADnU0ElktIVeqKb_KI2GmwffLAE2UCZ9qjOLVrodo-Wlqt3UmwWDTBwBy6aUdfAue9tXYWodK8cYJDVeCbdcqWOQdvyeF11tb1l60nDMdYZOc30wG-jleF3pPp2wIHYQT2rkZnxext2yTZz4tm00]--></g></svg>