<?xml version="1.0" encoding="UTF-8" standalone="no"?><svg xmlns="http://www.w3.org/2000/svg" xmlns:xlink="http://www.w3.org/1999/xlink" contentStyleType="text/css" height="645px" preserveAspectRatio="none" style="width:966px;height:645px;background:#FFFFFF;" version="1.1" viewBox="0 0 966 645" width="966px" zoomAndPan="magnify"><defs/><g><rect fill="none" height="26.4883" id="_title" style="stroke:none;stroke-width:1.0;" width="327" x="312.5" y="5"/><text fill="#000000" font-family="sans-serif" font-size="14" font-weight="bold" lengthAdjust="spacing" textLength="317" x="317.5" y="23.5352">Distributed crate with links to object crates</text><!--MD5=[5bc1160419a35f57896d40e7b7e2464d]
cluster mc--><g id="cluster_mc"><path d="M269.5,43.4883 L391.5,43.4883 A3.75,3.75 0 0 1 394,45.9883 L401,65.9766 L576.5,65.9766 A2.5,2.5 0 0 1 579,68.4766 L579,144.9883 A2.5,2.5 0 0 1 576.5,147.4883 L269.5,147.4883 A2.5,2.5 0 0 1 267,144.9883 L267,45.9883 A2.5,2.5 0 0 1 269.5,43.4883 " fill="none" style="stroke:#000000;stroke-width:1.5;"/><line style="stroke:#000000;stroke-width:1.5;" x1="267" x2="401" y1="65.9766" y2="65.9766"/><text fill="#000000" font-family="sans-serif" font-size="14" font-weight="bold" lengthAdjust="spacing" textLength="121" x="271" y="59.0234">name My Corpus</text></g><!--MD5=[05e270d30c6d41cac6652d6ccc952a6d]
cluster cAc--><g id="cluster_cAc"><path d="M68.5,211.4883 L225.5,211.4883 A3.75,3.75 0 0 1 228,213.9883 L235,233.9766 L379.5,233.9766 A2.5,2.5 0 0 1 382,236.4766 L382,312.9883 A2.5,2.5 0 0 1 379.5,315.4883 L68.5,315.4883 A2.5,2.5 0 0 1 66,312.9883 L66,213.9883 A2.5,2.5 0 0 1 68.5,211.4883 " fill="none" style="stroke:#000000;stroke-width:1.5;"/><line style="stroke:#000000;stroke-width:1.5;" x1="66" x2="235" y1="233.9766" y2="233.9766"/><text fill="#000000" font-family="sans-serif" font-size="14" font-weight="bold" lengthAdjust="spacing" textLength="156" x="70" y="227.0234">ROCrate: Collection A</text></g><!--MD5=[aaad14aa974d83bbb434fe8535803e06]
cluster cBc--><g id="cluster_cBc"><path d="M408.5,211.4883 L564.5,211.4883 A3.75,3.75 0 0 1 567,213.9883 L574,233.9766 L719.5,233.9766 A2.5,2.5 0 0 1 722,236.4766 L722,312.9883 A2.5,2.5 0 0 1 719.5,315.4883 L408.5,315.4883 A2.5,2.5 0 0 1 406,312.9883 L406,213.9883 A2.5,2.5 0 0 1 408.5,211.4883 " fill="none" style="stroke:#000000;stroke-width:1.5;"/><line style="stroke:#000000;stroke-width:1.5;" x1="406" x2="574" y1="233.9766" y2="233.9766"/><text fill="#000000" font-family="sans-serif" font-size="14" font-weight="bold" lengthAdjust="spacing" textLength="155" x="410" y="227.0234">ROCrate: Collection B</text></g><!--MD5=[1606ee4a18a4891c5748f78e9aa84b3c]
cluster ec2--><g id="cluster_ec2"><path d="M8.5,372.4883 L172.5,372.4883 A3.75,3.75 0 0 1 175,374.9883 L182,394.9766 L720.5,394.9766 A2.5,2.5 0 0 1 723,397.4766 L723,635.9883 A2.5,2.5 0 0 1 720.5,638.4883 L8.5,638.4883 A2.5,2.5 0 0 1 6,635.9883 L6,374.9883 A2.5,2.5 0 0 1 8.5,372.4883 " fill="none" style="stroke:#000000;stroke-width:1.5;"/><line style="stroke:#000000;stroke-width:1.5;" x1="6" x2="182" y1="394.9766" y2="394.9766"/><text fill="#000000" font-family="sans-serif" font-size="14" font-weight="bold" lengthAdjust="spacing" textLength="163" x="10" y="388.0234">RO Crate: Interview #1</text></g><!--MD5=[db956f40f2dc50163091c98812b3e6f0]
entity cc--><g id="elem_cc"><rect fill="#F1F1F1" height="52.9766" rx="2.5" ry="2.5" style="stroke:#181818;stroke-width:0.5;" width="280" x="283" y="78.4883"/><text fill="#000000" font-family="sans-serif" font-size="14" lengthAdjust="spacing" textLength="260" x="293" y="102.0234">@type: [Dataset, RepositoryCollection]</text><text fill="#000000" font-family="sans-serif" font-size="14" lengthAdjust="spacing" textLength="180" x="293" y="118.5117">conformsTo: ./#Collection</text></g><!--MD5=[956469d7f1aec4a2c079fbcba97d3a0f]
entity ca--><g id="elem_ca"><rect fill="#F1F1F1" height="52.9766" rx="2.5" ry="2.5" style="stroke:#181818;stroke-width:0.5;" width="284" x="82" y="246.4883"/><text fill="#000000" font-family="sans-serif" font-size="14" lengthAdjust="spacing" textLength="264" x="92" y="270.0234">@type:  [Dataset, RepositoryCollection]</text><text fill="#000000" font-family="sans-serif" font-size="14" lengthAdjust="spacing" textLength="180" x="92" y="286.5117">conformsTo: ./#Collection</text></g><!--MD5=[b1bb34d5f6a5f9f0e50b702338f741d1]
entity cb--><g id="elem_cb"><rect fill="#F1F1F1" height="52.9766" rx="2.5" ry="2.5" style="stroke:#181818;stroke-width:0.5;" width="284" x="422" y="246.4883"/><text fill="#000000" font-family="sans-serif" font-size="14" lengthAdjust="spacing" textLength="264" x="432" y="270.0234">@type:  [Dataset, RepositoryCollection]</text><text fill="#000000" font-family="sans-serif" font-size="14" lengthAdjust="spacing" textLength="180" x="432" y="286.5117">conformsTo: ./#Collection</text></g><!--MD5=[210fb71e2e95b35fc1d2987553ee68e5]
entity ea1--><g id="elem_ea1"><rect fill="#F1F1F1" height="36.4883" rx="2.5" ry="2.5" style="stroke:#181818;stroke-width:0.5;" width="339" x="30.5" y="578.4883"/><text fill="#000000" font-family="sans-serif" font-size="14" lengthAdjust="spacing" textLength="319" x="40.5" y="602.0234">@type: [File, PrinaryMaterial]:  files/audio1.wav</text></g><!--MD5=[81fe3615aca6adc9148a0f609567f723]
entity ecsv1--><g id="elem_ecsv1"><rect fill="#F1F1F1" height="36.4883" rx="2.5" ry="2.5" style="stroke:#181818;stroke-width:0.5;" width="286" x="405" y="578.4883"/><text fill="#000000" font-family="sans-serif" font-size="14" lengthAdjust="spacing" textLength="266" x="415" y="602.0234">@type: [File, Annotation]: files/csv1.csv</text></g><!--MD5=[b93866ba80b87a4b9838127be97d1901]
entity eo1--><g id="elem_eo1"><rect fill="#F1F1F1" height="85.9531" rx="2.5" ry="2.5" style="stroke:#181818;stroke-width:0.5;" width="193" x="127.5" y="415.4883"/><text fill="#000000" font-family="sans-serif" font-size="14" lengthAdjust="spacing" textLength="166" x="137.5" y="439.0234">@type: RepositoryObject</text><text fill="#000000" font-family="sans-serif" font-size="14" lengthAdjust="spacing" textLength="155" x="137.5" y="455.5117">conformsTo: ./#Object</text><text fill="#000000" font-family="sans-serif" font-size="14" lengthAdjust="spacing" textLength="116" x="137.5" y="472">modality: Speech</text><text fill="#000000" font-family="sans-serif" font-size="14" lengthAdjust="spacing" textLength="173" x="137.5" y="488.4883">lingusiticGenre: Interview</text></g><g id="elem_GMN52"><path d="M598,61.4883 L598,148.041 L872,148.041 L872,71.4883 L862,61.4883 L598,61.4883 " fill="#FEFFDD" style="stroke:#181818;stroke-width:0.5;"/><path d="M862,61.4883 L862,71.4883 L872,71.4883 L862,61.4883 " fill="#FEFFDD" style="stroke:#181818;stroke-width:1.0;"/><text fill="#000000" font-family="sans-serif" font-size="13" lengthAdjust="spacing" textLength="139" x="604" y="79.0566">Repository Collection:</text><text fill="#000000" font-family="sans-serif" font-size="13" lengthAdjust="spacing" textLength="233" x="604" y="94.3672">- MUST contain descriptive metadata</text><text fill="#000000" font-family="sans-serif" font-size="13" lengthAdjust="spacing" textLength="158" x="612" y="109.6777">for the corpus/collection</text><text fill="#000000" font-family="sans-serif" font-size="13" lengthAdjust="spacing" textLength="253" x="604" y="124.9883">- MAY contain hasMember relationships</text><text fill="#000000" font-family="sans-serif" font-size="13" lengthAdjust="spacing" textLength="219" x="612" y="140.2988">listing child Collections or Objects</text></g><g id="elem_GMN55"><path d="M747,583.9883 L747,609.2988 L959,609.2988 L959,593.9883 L949,583.9883 L747,583.9883 " fill="#FEFFDD" style="stroke:#181818;stroke-width:0.5;"/><path d="M949,583.9883 L949,593.9883 L959,593.9883 L949,583.9883 " fill="#FEFFDD" style="stroke:#181818;stroke-width:1.0;"/><text fill="#000000" font-family="sans-serif" font-size="13" lengthAdjust="spacing" textLength="191" x="753" y="601.5566">Individual object with file data</text></g><!--MD5=[1cf7466719dd33eec30766bd2cc23a29]
link eo1 to ea1--><g id="link_eo1_ea1"><path d="M216.54,501.7783 C212.36,525.4383 207.33,553.9683 203.92,573.2883 " fill="none" id="eo1-to-ea1" style="stroke:#181818;stroke-width:1.0;"/><polygon fill="#181818" points="203,578.4783,208.51,570.3149,203.873,573.5551,200.6329,568.9181,203,578.4783" style="stroke:#181818;stroke-width:1.0;"/><text fill="#000000" font-family="sans-serif" font-size="13" lengthAdjust="spacing" textLength="46" x="213" y="545.0566">hasPart</text></g><!--MD5=[132858a43c4b19790d8b80674ae29626]
link eo1 to ecsv1--><g id="link_eo1_ecsv1"><path d="M320.77,500.1083 C380.98,525.3783 455.63,556.7183 502.55,576.4083 " fill="none" id="eo1-to-ecsv1" style="stroke:#181818;stroke-width:1.0;"/><polygon fill="#181818" points="507.29,578.3983,500.5286,571.237,502.6767,576.4701,497.4436,578.6182,507.29,578.3983" style="stroke:#181818;stroke-width:1.0;"/><text fill="#000000" font-family="sans-serif" font-size="13" lengthAdjust="spacing" textLength="46" x="434" y="545.0566">hasPart</text></g><!--MD5=[c29f3c109500165fabbca2f867a76e7f]
reverse link ca to eo1--><g id="link_ca_eo1"><path d="M224,304.5883 C224,334.8783 224,381.4783 224,415.2783 " fill="none" id="ca-backto-eo1" style="stroke:#181818;stroke-width:1.0;"/><polygon fill="#181818" points="224,299.4983,220,308.4983,224,304.4983,228,308.4983,224,299.4983" style="stroke:#181818;stroke-width:1.0;"/><text fill="#000000" font-family="sans-serif" font-size="13" lengthAdjust="spacing" textLength="66" x="225" y="345.0566">memberOf</text></g><!--MD5=[4a82eaeeae340e92fee55c075466f7d4]
reverse link cc to ca--><g id="link_cc_ca"><path d="M388.31,134.9283 C350.56,166.4183 290.79,216.2783 254.69,246.3883 " fill="none" id="cc-backto-ca" style="stroke:#181818;stroke-width:1.0;"/><polygon fill="#181818" points="392.34,131.5583,382.8643,134.2436,388.4977,134.7578,387.9835,140.3912,392.34,131.5583" style="stroke:#181818;stroke-width:1.0;"/><text fill="#000000" font-family="sans-serif" font-size="13" lengthAdjust="spacing" textLength="66" x="336" y="192.0566">memberOf</text></g><!--MD5=[f6832e6bfdedaeb2095be69530b9fdc8]
reverse link cc to cb--><g id="link_cc_cb"><path d="M448.23,135.6983 C475.01,167.2183 516.88,216.5183 542.25,246.3883 " fill="none" id="cc-backto-cb" style="stroke:#181818;stroke-width:1.0;"/><polygon fill="#181818" points="444.72,131.5583,447.5196,141.0009,447.9657,135.3616,453.6049,135.8077,444.72,131.5583" style="stroke:#181818;stroke-width:1.0;"/><text fill="#000000" font-family="sans-serif" font-size="13" lengthAdjust="spacing" textLength="66" x="498" y="192.0566">memberOf</text></g><!--MD5=[07a7977f4dd0d2d446da2771f9131fa7]
link cc to GMN52--><g id="link_cc_GMN52"><path d="M563.16,104.9883 C574.68,104.9883 586.2,104.9883 597.73,104.9883 " fill="none" id="cc-GMN52" style="stroke:#181818;stroke-width:1.0;stroke-dasharray:7.0,7.0;"/></g><!--MD5=[a3017a1462d31cebf86b64f2fb461ed5]
link ec2 to GMN55--><g id="link_ec2_GMN55"><path d="M723.1184,467.4896 C723.3363,467.7043 723.558,467.9228 723.7834,468.1449 C724.2344,468.5893 724.7004,469.0485 725.1809,469.5221 C727.1031,471.4162 729.2576,473.5393 731.6095,475.8569 C741.0172,485.1273 753.5831,497.5102 767.0688,510.7995 C794.04,537.3783 824.69,567.5833 841.11,583.7683 " fill="none" id="ec2-GMN55" style="stroke:#181818;stroke-width:1.0;stroke-dasharray:7.0,7.0;"/></g><!--MD5=[812b8ff45b92139c6a851c6b12302c53]
@startuml
title: Distributed crate with links to object crates
package "name My Corpus" as mc {
   rectangle "@type: [Dataset, RepositoryCollection]\nconformsTo: ./#Collection" as cc {

   }
}

package "ROCrate: Collection A" as cAc {

   rectangle "@type:  [Dataset, RepositoryCollection]\nconformsTo: ./#Collection" as ca {

   }
  
}


package "ROCrate: Collection B" as cBc {

   rectangle "@type:  [Dataset, RepositoryCollection]\nconformsTo: ./#Collection" as cb {

   }
  
}


package "RO Crate: Interview #1" as ec2 {
  rectangle "@type: RepositoryObject\nconformsTo: ./#Object\nmodality: Speech\nlingusiticGenre: Interview" as eo1 {

   }
   rectangle "@type: [File, PrinaryMaterial]:  files/audio1.wav" as ea1
   rectangle "@type: [File, Annotation]: files/csv1.csv" as ecsv1
   }



eo1 -down-> ea1 : hasPart
eo1 -down-> ecsv1 : hasPart

eo1 -up-> ca : memberOf
ca -up-> cc : memberOf
cb -up-> cc : memberOf

note right of cc : Repository Collection:\n- MUST contain descriptive metadata\n  for the corpus/collection\n- MAY contain hasMember relationships\n  listing child Collections or Objects

 
note bottom of ec2 : Individual object with file data

@enduml

PlantUML version 1.2022.7(Tue Aug 23 03:01:30 AEST 2022)
(GPL source distribution)
Java Runtime: OpenJDK Runtime Environment
JVM: OpenJDK 64-Bit Server VM
Default Encoding: UTF-8
Language: en
Country: AU
--></g></svg>