<?xml version="1.0" encoding="us-ascii" standalone="no"?><svg xmlns="http://www.w3.org/2000/svg" xmlns:xlink="http://www.w3.org/1999/xlink" contentStyleType="text/css" height="678px" preserveAspectRatio="none" style="width:965px;height:678px;background:#FFFFFF;" version="1.1" viewBox="0 0 965 678" width="965px" zoomAndPan="magnify"><defs/><g><text fill="#000000" font-family="sans-serif" font-size="14" font-weight="bold" lengthAdjust="spacing" textLength="317" x="317" y="23.5352">Distributed crate with links to object crates</text><!--cluster mc--><g id="cluster_mc"><path d="M355.5,43.4883 L477.5,43.4883 A3.75,3.75 0 0 1 480,45.9883 L487,65.9766 L662.5,65.9766 A2.5,2.5 0 0 1 665,68.4766 L665,144.9683 A2.5,2.5 0 0 1 662.5,147.4683 L355.5,147.4683 A2.5,2.5 0 0 1 353,144.9683 L353,45.9883 A2.5,2.5 0 0 1 355.5,43.4883 " fill="none" style="stroke:#000000;stroke-width:1.5;"/><line style="stroke:#000000;stroke-width:1.5;" x1="353" x2="487" y1="65.9766" y2="65.9766"/><text fill="#000000" font-family="sans-serif" font-size="14" font-weight="bold" lengthAdjust="spacing" textLength="121" x="357" y="59.0234">name My Corpus</text></g><!--cluster cAc--><g id="cluster_cAc"><path d="M154.5,211.2583 L311.5,211.2583 A3.75,3.75 0 0 1 314,213.7583 L321,233.7466 L465.5,233.7466 A2.5,2.5 0 0 1 468,236.2466 L468,312.7283 A2.5,2.5 0 0 1 465.5,315.2283 L154.5,315.2283 A2.5,2.5 0 0 1 152,312.7283 L152,213.7583 A2.5,2.5 0 0 1 154.5,211.2583 " fill="none" style="stroke:#000000;stroke-width:1.5;"/><line style="stroke:#000000;stroke-width:1.5;" x1="152" x2="321" y1="233.7466" y2="233.7466"/><text fill="#000000" font-family="sans-serif" font-size="14" font-weight="bold" lengthAdjust="spacing" textLength="156" x="156" y="226.7934">ROCrate: Collection A</text></g><!--cluster cBc--><g id="cluster_cBc"><path d="M494.5,211.2583 L650.5,211.2583 A3.75,3.75 0 0 1 653,213.7583 L660,233.7466 L805.5,233.7466 A2.5,2.5 0 0 1 808,236.2466 L808,312.7283 A2.5,2.5 0 0 1 805.5,315.2283 L494.5,315.2283 A2.5,2.5 0 0 1 492,312.7283 L492,213.7583 A2.5,2.5 0 0 1 494.5,211.2583 " fill="none" style="stroke:#000000;stroke-width:1.5;"/><line style="stroke:#000000;stroke-width:1.5;" x1="492" x2="660" y1="233.7466" y2="233.7466"/><text fill="#000000" font-family="sans-serif" font-size="14" font-weight="bold" lengthAdjust="spacing" textLength="155" x="496" y="226.7934">ROCrate: Collection B</text></g><!--cluster ec2--><g id="cluster_ec2"><path d="M8.5,372.2283 L172.5,372.2283 A3.75,3.75 0 0 1 175,374.7283 L182,394.7166 L578.5,394.7166 A2.5,2.5 0 0 1 581,397.2166 L581,669.1483 A2.5,2.5 0 0 1 578.5,671.6483 L8.5,671.6483 A2.5,2.5 0 0 1 6,669.1483 L6,374.7283 A2.5,2.5 0 0 1 8.5,372.2283 " fill="none" style="stroke:#000000;stroke-width:1.5;"/><line style="stroke:#000000;stroke-width:1.5;" x1="6" x2="182" y1="394.7166" y2="394.7166"/><text fill="#000000" font-family="sans-serif" font-size="14" font-weight="bold" lengthAdjust="spacing" textLength="163" x="10" y="387.7634">RO Crate: Interview #1</text></g><!--entity cc--><g id="elem_cc"><rect fill="#F1F1F1" height="52.9766" rx="2.5" ry="2.5" style="stroke:#181818;stroke-width:0.5;" width="280" x="369" y="78.4883"/><text fill="#000000" font-family="sans-serif" font-size="14" lengthAdjust="spacing" textLength="260" x="379" y="102.0234">@type: [Dataset, RepositoryCollection]</text><text fill="#000000" font-family="sans-serif" font-size="14" lengthAdjust="spacing" textLength="180" x="379" y="118.5117">conformsTo: ./#Collection</text></g><!--entity ca--><g id="elem_ca"><rect fill="#F1F1F1" height="52.9766" rx="2.5" ry="2.5" style="stroke:#181818;stroke-width:0.5;" width="284" x="168" y="246.2583"/><text fill="#000000" font-family="sans-serif" font-size="14" lengthAdjust="spacing" textLength="264" x="178" y="269.7934">@type:  [Dataset, RepositoryCollection]</text><text fill="#000000" font-family="sans-serif" font-size="14" lengthAdjust="spacing" textLength="180" x="178" y="286.2817">conformsTo: ./#Collection</text></g><!--entity cb--><g id="elem_cb"><rect fill="#F1F1F1" height="52.9766" rx="2.5" ry="2.5" style="stroke:#181818;stroke-width:0.5;" width="284" x="508" y="246.2583"/><text fill="#000000" font-family="sans-serif" font-size="14" lengthAdjust="spacing" textLength="264" x="518" y="269.7934">@type:  [Dataset, RepositoryCollection]</text><text fill="#000000" font-family="sans-serif" font-size="14" lengthAdjust="spacing" textLength="180" x="518" y="286.2817">conformsTo: ./#Collection</text></g><!--entity ea1--><g id="elem_ea1"><rect fill="#F1F1F1" height="69.4648" rx="2.5" ry="2.5" style="stroke:#181818;stroke-width:0.5;" width="290" x="30" y="578.1883"/><text fill="#000000" font-family="sans-serif" font-size="14" lengthAdjust="spacing" textLength="145" x="40" y="601.7234">File: files/audio1.wav</text><text fill="#000000" font-family="sans-serif" font-size="14" lengthAdjust="spacing" textLength="204" x="40" y="618.2117">materialType: PrimaryMaterial</text><text fill="#000000" font-family="sans-serif" font-size="14" lengthAdjust="spacing" textLength="270" x="40" y="634.7">communicationMode: SpokenLanguage</text></g><!--entity ecsv1--><g id="elem_ecsv1"><rect fill="#F1F1F1" height="52.9766" rx="2.5" ry="2.5" style="stroke:#181818;stroke-width:0.5;" width="194" x="355" y="586.4283"/><text fill="#000000" font-family="sans-serif" font-size="14" lengthAdjust="spacing" textLength="122" x="365" y="609.9634">File: files/csv1.csv</text><text fill="#000000" font-family="sans-serif" font-size="14" lengthAdjust="spacing" textLength="174" x="365" y="626.4517">materialType: Annotation</text></g><!--entity eo1--><g id="elem_eo1"><rect fill="#F1F1F1" height="85.9531" rx="2.5" ry="2.5" style="stroke:#181818;stroke-width:0.5;" width="278" x="171" y="415.2283"/><text fill="#000000" font-family="sans-serif" font-size="14" lengthAdjust="spacing" textLength="166" x="181" y="438.7634">@type: RepositoryObject</text><text fill="#000000" font-family="sans-serif" font-size="14" lengthAdjust="spacing" textLength="155" x="181" y="455.2517">conformsTo: ./#Object</text><text fill="#000000" font-family="sans-serif" font-size="14" lengthAdjust="spacing" textLength="258" x="181" y="471.74">communcationMode: SpokenLanguge</text><text fill="#000000" font-family="sans-serif" font-size="14" lengthAdjust="spacing" textLength="173" x="181" y="488.2283">lingusiticGenre: Interview</text></g><g id="elem_GMN20"><path d="M684,61.6983 L684,100.9783 L649.46,104.9783 L684,108.9783 L684,148.251 A0,0 0 0 0 684,148.251 L958,148.251 A0,0 0 0 0 958,148.251 L958,71.6983 L948,61.6983 L684,61.6983 A0,0 0 0 0 684,61.6983 " fill="#FEFFDD" style="stroke:#181818;stroke-width:0.5;"/><path d="M948,61.6983 L948,71.6983 L958,71.6983 L948,61.6983 " fill="#FEFFDD" style="stroke:#181818;stroke-width:0.5;"/><text fill="#000000" font-family="sans-serif" font-size="13" lengthAdjust="spacing" textLength="139" x="690" y="79.2666">Repository Collection:</text><text fill="#000000" font-family="sans-serif" font-size="13" lengthAdjust="spacing" textLength="233" x="690" y="94.5772">- MUST contain descriptive metadata</text><text fill="#000000" font-family="sans-serif" font-size="13" lengthAdjust="spacing" textLength="158" x="698" y="109.8877">for the corpus/collection</text><text fill="#000000" font-family="sans-serif" font-size="13" lengthAdjust="spacing" textLength="253" x="690" y="125.1983">- MAY contain hasMember relationships</text><text fill="#000000" font-family="sans-serif" font-size="13" lengthAdjust="spacing" textLength="219" x="698" y="140.5088">listing child Collections or Objects</text></g><g id="elem_GMN23"><path d="M605,600.2583 L605,625.5688 L817,625.5688 L817,610.2583 L807,600.2583 L605,600.2583 " fill="#FEFFDD" style="stroke:#181818;stroke-width:0.5;"/><path d="M807,600.2583 L807,610.2583 L817,610.2583 L807,600.2583 " fill="#FEFFDD" style="stroke:#181818;stroke-width:1.0;"/><text fill="#000000" font-family="sans-serif" font-size="13" lengthAdjust="spacing" textLength="191" x="611" y="617.8266">Individual object with file data</text></g><!--link eo1 to ea1--><g id="link_eo1_ea1"><path d="M272.75,501.3383 C252.71,524.0183 228.17,551.7683 208.69,573.8083 " fill="none" id="eo1-to-ea1" style="stroke:#181818;stroke-width:1.0;"/><polygon fill="#181818" points="205.87,577.1283,214.8224,573.0228,209.1767,573.3778,208.8217,567.7321,205.87,577.1283" style="stroke:#181818;stroke-width:1.0;"/><text fill="#000000" font-family="sans-serif" font-size="13" lengthAdjust="spacing" textLength="46" x="244" y="544.7566">hasPart</text></g><!--link eo1 to ecsv1--><g id="link_eo1_ecsv1"><path d="M349.18,501.3383 C372.98,526.9383 402.8,559.0083 424.19,582.0083 " fill="none" id="eo1-to-ecsv1" style="stroke:#181818;stroke-width:1.0;"/><polygon fill="#181818" points="427.08,585.1883,423.8996,575.867,423.6827,581.5197,418.03,581.3028,427.08,585.1883" style="stroke:#181818;stroke-width:1.0;"/><text fill="#000000" font-family="sans-serif" font-size="13" lengthAdjust="spacing" textLength="46" x="391" y="544.7566">hasPart</text></g><!--reverse link ca to eo1--><g id="link_ca_eo1"><path d="M310,305.4783 C310,335.7283 310,381.4783 310,414.8383 " fill="none" id="ca-backto-eo1" style="stroke:#181818;stroke-width:1.0;"/><polygon fill="#181818" points="310,300.6383,306,309.6383,310,305.6383,314,309.6383,310,300.6383" style="stroke:#181818;stroke-width:1.0;"/><text fill="#000000" font-family="sans-serif" font-size="13" lengthAdjust="spacing" textLength="66" x="311" y="344.7966">memberOf</text></g><!--reverse link cc to ca--><g id="link_cc_ca"><path d="M473.41,135.6183 C435.69,167.0483 376.71,216.1783 340.88,246.0183 " fill="none" id="cc-backto-ca" style="stroke:#181818;stroke-width:1.0;"/><polygon fill="#181818" points="476.91,131.8783,467.4392,134.5809,473.0736,135.0848,472.5697,140.7192,476.91,131.8783" style="stroke:#181818;stroke-width:1.0;"/><text fill="#000000" font-family="sans-serif" font-size="13" lengthAdjust="spacing" textLength="66" x="422" y="191.8266">memberOf</text></g><!--reverse link cc to cb--><g id="link_cc_cb"><path d="M534.87,136.3883 C561.62,167.8483 602.94,216.4183 628.12,246.0183 " fill="none" id="cc-backto-cb" style="stroke:#181818;stroke-width:1.0;"/><polygon fill="#181818" points="531.03,132.8783,533.8296,142.3209,534.2757,136.6816,539.9149,137.1277,531.03,132.8783" style="stroke:#181818;stroke-width:1.0;"/><text fill="#000000" font-family="sans-serif" font-size="13" lengthAdjust="spacing" textLength="66" x="584" y="191.8266">memberOf</text></g><!--link ec2 to GMN23--><g id="link_ec2_GMN23"><path d="M581.2489,468.3366 C581.4704,468.5817 581.6958,468.8311 581.925,469.0848 C582.3834,469.592 582.8571,470.1162 583.3455,470.6568 C585.2994,472.8188 587.489,475.2418 589.8784,477.8859 C599.4363,488.4623 612.1913,502.5764 625.84,517.6795 C653.1375,547.8858 684.01,582.0483 700.03,599.7783 " fill="none" id="ec2-GMN23" style="stroke:#181818;stroke-width:1.0;stroke-dasharray:7.0,7.0;"/></g><!--SRC=[jPJ1Rjim38RlVWgYlIu9igCFmz8K6mOiID5cXs7fWPQPc8ij6HAT81ZwxgFi9dQRhPTX1cmW8ldpa_X7mb9I2hSSn7FM2ELWF0h1WQM0akqkW3XmsKyoqeL2KgFPuPRWoc95i3Z2tFcw2LU00Ie3ln80y9gFTbjgraSvrjhZnoqA1f9tS4-r2opE7-UkB3MHdNrSM-Finlagh5mAuybr7sk5JHIEoa_9Kz8Zt2_d4Ig5FXrcNS7iL779yiymU8O1Y3nl0zrqHJV_4IXx0mYUYRvO8RzdEi3rjAqYyxwTrYLF3x5iHt_Hlr-kgiOQZ2GBbslfG-rsPB-gNhEbjLKFRHkLOlEPh1zIT0XkEY27PCZoYQCtD_eD4snoTjFn0VThM-bkF6EvQb7lF5VeZuldnHCI_uL9pwHhZDDNenYsCs4_7UldTREPjKxmVEmKyw8C98EttOm-SM-Zt1tiw4Di1oaK6ExGoyj8r1Z4kc1JQqXjba95LKP-kKdqr_EoUR6S_N4vKL02pzj2m6swO3_LWJlJjHt1ujl32dJ4WcmXfs0yry9xKZt1NAsvjW0wVv22D2_-tIVcBD4gpBwV1NGhYvP3ZxTiJoiKN8UeKUfDeuu0Kt2P3oW2g7Xdgg1swEWp9-AgY1-T6gsJyvxp1ilJZTHUKt5a426Jtm00]--></g></svg>