<?xml version="1.0" encoding="UTF-8" standalone="no"?><svg xmlns="http://www.w3.org/2000/svg" xmlns:xlink="http://www.w3.org/1999/xlink" contentStyleType="text/css" height="1033px" preserveAspectRatio="none" style="width:1019px;height:1033px;background:#FFFFFF;" version="1.1" viewBox="0 0 1019 1033" width="1019px" zoomAndPan="magnify"><defs/><g><rect fill="none" height="26.4883" id="_title" style="stroke:none;stroke-width:1.0;" width="209" x="398.2569" y="5"/><text fill="#000000" font-family="sans-serif" font-size="14" font-weight="bold" lengthAdjust="spacing" textLength="199" x="403.2569" y="23.5352">Structure of an Object crate</text><!--MD5=[f143210c1b663efba8790d077233b4c6]
cluster RO-Crate Profile (this document)--><g id="cluster_RO-Crate Profile (this document)"><rect fill="none" height="106" rx="2.5" ry="2.5" style="stroke:#181818;stroke-width:1.0;" width="257" x="756.5138" y="101.7483"/><text fill="#000000" font-family="sans-serif" font-size="14" font-weight="bold" lengthAdjust="spacing" textLength="241" x="764.5138" y="117.2834">RO-Crate Profile (this document)</text></g><!--MD5=[84dda40acb3410cad7262261daba2aaf]
cluster c1--><g id="cluster_c1"><rect fill="none" height="122" rx="2.5" ry="2.5" style="stroke:#181818;stroke-width:1.0;" width="263" x="383.5138" y="93.7483"/><text fill="#000000" font-family="sans-serif" font-size="14" font-weight="bold" lengthAdjust="spacing" textLength="95" x="467.5138" y="109.2834">Conversation</text></g><!--MD5=[ccb9548a9eb977067a494e8482eb22aa]
cluster audio1--><g id="cluster_audio1"><rect fill="none" height="205" rx="2.5" ry="2.5" style="stroke:#181818;stroke-width:1.0;" width="315" x="17.5138" y="282.7483"/><text fill="#000000" font-family="sans-serif" font-size="14" font-weight="bold" lengthAdjust="spacing" textLength="73" x="138.5138" y="298.2834">Audio File</text></g><!--MD5=[952f201ce6e1549cdeacdb339b4d1258]
cluster pdf1--><g id="cluster_pdf1"><rect fill="none" height="205" rx="2.5" ry="2.5" style="stroke:#181818;stroke-width:1.0;" width="305" x="143.5138" y="552.7483"/><text fill="#000000" font-family="sans-serif" font-size="14" font-weight="bold" lengthAdjust="spacing" textLength="59" x="266.5138" y="568.2834">PDF File</text></g><!--MD5=[d49ab2edda3dc2d0bd9c333e7c5789c8]
cluster csv1--><g id="cluster_csv1"><rect fill="none" height="205" rx="2.5" ry="2.5" style="stroke:#181818;stroke-width:1.0;" width="347" x="143.5138" y="822.7483"/><text fill="#000000" font-family="sans-serif" font-size="14" font-weight="bold" lengthAdjust="spacing" textLength="59" x="287.5138" y="838.2834">CSV File</text></g><!--MD5=[ba0cc9eb9e469bce5aa4a9a1a8c31be5]
entity procoll--><g id="elem_procoll"><rect fill="#F1F1F1" height="36.4883" rx="2.5" ry="2.5" style="stroke:#181818;stroke-width:0.5;" width="106" x="773.5138" y="155.7483"/><text fill="#000000" font-family="sans-serif" font-size="14" lengthAdjust="spacing" textLength="13" x="783.5138" y="179.2834">1.</text><text fill="#000000" font-family="sans-serif" font-size="14" lengthAdjust="spacing" textLength="69" x="800.5138" y="179.2834">Collection</text></g><!--MD5=[bb4d85b386ce8351b62d77f5e271dc66]
entity proobj--><g id="elem_proobj"><rect fill="#F1F1F1" height="36.4883" rx="2.5" ry="2.5" style="stroke:#181818;stroke-width:0.5;" width="81" x="915.0138" y="155.7483"/><text fill="#000000" font-family="sans-serif" font-size="14" lengthAdjust="spacing" textLength="13" x="925.0138" y="179.2834">1.</text><text fill="#000000" font-family="sans-serif" font-size="14" lengthAdjust="spacing" textLength="44" x="942.0138" y="179.2834">Object</text></g><!--MD5=[382a5dab49f576c6f763fbb90c0313c5]
entity @type: [RepositoryObject]--><g id="elem_@type: [RepositoryObject]"><rect fill="#F1F1F1" height="36.4883" rx="2.5" ry="2.5" style="stroke:#181818;stroke-width:0.5;" width="196" x="426.5138" y="155.7483"/><text fill="#000000" font-family="sans-serif" font-size="14" lengthAdjust="spacing" textLength="176" x="436.5138" y="179.2834">@type: [RepositoryObject]</text></g><!--MD5=[8477e9f0101b4e2c401db77d1e989c8b]
entity @id: [file.wav]\n@type: [File, PrimaryText]\nmodality: [Speech]\ncommunicationGenre: [Interview]\nresourceType: [PrimaryText]\nencodingFormat: [audio/x-wav]--><g id="elem_@id: [file.wav]\n@type: [File, PrimaryText]\nmodality: [Speech]\ncommunicationGenre: [Interview]\nresourceType: [PrimaryText]\nencodingFormat: [audio/x-wav]"><rect fill="#F1F1F1" height="118.9297" rx="2.5" ry="2.5" style="stroke:#181818;stroke-width:0.5;" width="247" x="61.0138" y="344.7483"/><text fill="#000000" font-family="sans-serif" font-size="14" lengthAdjust="spacing" textLength="94" x="71.0138" y="368.2834">@id: [file.wav]</text><text fill="#000000" font-family="sans-serif" font-size="14" lengthAdjust="spacing" textLength="174" x="71.0138" y="384.7717">@type: [File, PrimaryText]</text><text fill="#000000" font-family="sans-serif" font-size="14" lengthAdjust="spacing" textLength="126" x="71.0138" y="401.26">modality: [Speech]</text><text fill="#000000" font-family="sans-serif" font-size="14" lengthAdjust="spacing" textLength="227" x="71.0138" y="417.7483">communicationGenre: [Interview]</text><text fill="#000000" font-family="sans-serif" font-size="14" lengthAdjust="spacing" textLength="194" x="71.0138" y="434.2366">resourceType: [PrimaryText]</text><text fill="#000000" font-family="sans-serif" font-size="14" lengthAdjust="spacing" textLength="220" x="71.0138" y="450.7248">encodingFormat: [audio/x-wav]</text></g><!--MD5=[5941d7bf6796b2421daf7f00e34c622b]
entity pt--><g id="elem_pt"><rect fill="#F1F1F1" height="118.9297" rx="2.5" ry="2.5" style="stroke:#181818;stroke-width:0.5;" width="238" x="186.5138" y="614.7483"/><text fill="#000000" font-family="sans-serif" font-size="14" lengthAdjust="spacing" textLength="91" x="196.5138" y="638.2834">@id: [file.pdf]</text><text fill="#000000" font-family="sans-serif" font-size="14" lengthAdjust="spacing" textLength="168" x="196.5138" y="654.7717">@type: [File, Annotation]</text><text fill="#000000" font-family="sans-serif" font-size="14" lengthAdjust="spacing" textLength="218" x="196.5138" y="671.26">annotationType: [Transcription]</text><text fill="#000000" font-family="sans-serif" font-size="14" lengthAdjust="spacing" textLength="165" x="196.5138" y="687.7483">modality: [Orthography]</text><text fill="#000000" font-family="sans-serif" font-size="14" lengthAdjust="spacing" textLength="194" x="196.5138" y="704.2366">resourceType: [DerivedText]</text><text fill="#000000" font-family="sans-serif" font-size="14" lengthAdjust="spacing" textLength="188" x="196.5138" y="720.7248">encodingFormat: [text/pdf]</text></g><!--MD5=[dea5993a3953eaf641903a1e2820b8db]
entity @id: [file.csv]\n@type: [File, Annotation, DerivedText]\nannotationType: [Transcription]\nmodality: [Orthography]\nresourceType: [DerivedText]\nencodingFormat: [text/csv]--><g id="elem_@id: [file.csv]\n@type: [File, Annotation, DerivedText]\nannotationType: [Transcription]\nmodality: [Orthography]\nresourceType: [DerivedText]\nencodingFormat: [text/csv]"><rect fill="#F1F1F1" height="118.9297" rx="2.5" ry="2.5" style="stroke:#181818;stroke-width:0.5;" width="279" x="187.0138" y="884.7483"/><text fill="#000000" font-family="sans-serif" font-size="14" lengthAdjust="spacing" textLength="89" x="197.0138" y="908.2834">@id: [file.csv]</text><text fill="#000000" font-family="sans-serif" font-size="14" lengthAdjust="spacing" textLength="259" x="197.0138" y="924.7717">@type: [File, Annotation, DerivedText]</text><text fill="#000000" font-family="sans-serif" font-size="14" lengthAdjust="spacing" textLength="218" x="197.0138" y="941.26">annotationType: [Transcription]</text><text fill="#000000" font-family="sans-serif" font-size="14" lengthAdjust="spacing" textLength="165" x="197.0138" y="957.7483">modality: [Orthography]</text><text fill="#000000" font-family="sans-serif" font-size="14" lengthAdjust="spacing" textLength="194" x="197.0138" y="974.2366">resourceType: [DerivedText]</text><text fill="#000000" font-family="sans-serif" font-size="14" lengthAdjust="spacing" textLength="186" x="197.0138" y="990.7248">encodingFormat: [text/csv]</text></g><!--MD5=[1f0e52a1457a111061ef2aae8e5ec9c5]
entity s1--><g id="elem_s1"><ellipse cx="251.5138" cy="144.2483" fill="#F1F1F1" rx="8" ry="8" style="stroke:#181818;stroke-width:0.5;"/><path d="M251.5138,152.2483 L251.5138,179.2483 M238.5138,160.2483 L264.5138,160.2483 M251.5138,179.2483 L238.5138,194.2483 M251.5138,179.2483 L264.5138,194.2483 " fill="none" style="stroke:#181818;stroke-width:0.5;"/><text fill="#000000" font-family="sans-serif" font-size="14" lengthAdjust="spacing" textLength="68" x="217.5138" y="209.2834">Speaker 1</text></g><!--MD5=[dc66687c89eac77dba91b7320324a287]
entity s2--><g id="elem_s2"><ellipse cx="704.5138" cy="144.2483" fill="#F1F1F1" rx="8" ry="8" style="stroke:#181818;stroke-width:0.5;"/><path d="M704.5138,152.2483 L704.5138,179.2483 M691.5138,160.2483 L717.5138,160.2483 M704.5138,179.2483 L691.5138,194.2483 M704.5138,179.2483 L717.5138,194.2483 " fill="none" style="stroke:#181818;stroke-width:0.5;"/><text fill="#000000" font-family="sans-serif" font-size="14" lengthAdjust="spacing" textLength="68" x="670.5138" y="209.2834">Speaker 2</text></g><!--MD5=[7cd510dbdce16f264bc7be2cfe049a39]
link c1 to pdf1--><g id="link_c1_pdf1"><path d="M396.2459,216.6476 C396.3023,217.3817 396.358,218.1236 396.4131,218.8731 C396.5231,220.3722 396.6302,221.9017 396.7339,223.4605 C396.9411,226.578 397.1342,229.8124 397.3079,233.1538 C397.6553,239.8367 397.9251,246.9476 398.0751,254.4075 C398.3752,269.3272 398.1963,285.6427 397.2013,302.7208 C393.2213,371.0333 376.1838,451.5483 324.5138,503.7483 C321.4338,506.8583 173.4938,533.5483 170.5138,536.7483 C167.9475,539.5083 165.6251,542.4454 163.5263,545.5273 C162.4769,547.0682 161.4834,548.6454 160.5432,550.2547 C160.0732,551.0594 159.6164,551.8721 159.1727,552.6923 " fill="none" id="c1-to-pdf1" style="stroke:#181818;stroke-width:1.0;"/><polygon fill="#181818" points="159.1727,552.6923,166.9731,546.6795,161.5517,548.2946,159.9367,542.8732,159.1727,552.6923" style="stroke:#181818;stroke-width:1.0;"/><text fill="#000000" font-family="sans-serif" font-size="13" lengthAdjust="spacing" textLength="46" x="398.5138" y="409.3166">hasPart</text></g><!--MD5=[d8653dd8f546ebd7a4ca52ecae5c2fc2]
reverse link audio1 to pdf1--><g id="link_audio1_pdf1"><path d="M34.873,487.9266 C35.1601,488.5565 35.4545,489.1825 35.7563,489.8043 C38.1708,494.7787 41.0613,499.4845 44.5138,503.7483 C56.3538,518.3783 110.5338,522.2283 122.5138,536.7483 C132.2288,548.5208 138.9188,562.7658 143.4842,577.5534 " fill="none" id="audio1-backto-pdf1" style="stroke:#181818;stroke-width:1.0;"/><polygon fill="#181818" points="34.873,487.9266,34.9662,497.775,36.9468,492.4762,42.2456,494.4569,34.873,487.9266" style="stroke:#181818;stroke-width:1.0;"/><text fill="#000000" font-family="sans-serif" font-size="13" lengthAdjust="spacing" textLength="83" x="110.5138" y="525.3166">annotationOf</text></g><!--MD5=[fc4d09f6fbf8262be056e2a5380b8bc4]
link c1 to audio1--><g id="link_c1_audio1"><path d="M383.4185,181.7934 C383.1175,182.0465 382.8089,182.3051 382.493,182.5689 C377.4385,186.7902 370.5056,192.3558 362.3325,198.3358 C345.9863,210.2958 324.6788,223.9133 303.5138,231.7483 C249.0438,251.9083 85.6638,225.7583 44.5138,266.7483 C41.8438,269.4077 39.4304,272.2565 37.2521,275.2614 C36.163,276.7638 35.1326,278.3053 34.1584,279.8816 C33.6713,280.6698 33.1982,281.4667 32.7387,282.2717 " fill="none" id="c1-to-audio1" style="stroke:#181818;stroke-width:1.0;"/><polygon fill="#181818" points="32.7387,282.2717,40.6736,276.4374,35.2169,277.929,33.7253,272.4724,32.7387,282.2717" style="stroke:#181818;stroke-width:1.0;"/><text fill="#000000" font-family="sans-serif" font-size="13" lengthAdjust="spacing" textLength="46" x="157.5138" y="255.3166">hasPart</text></g><!--MD5=[6b892f103a210cf2fb3f8e264cff6d76]
link c1 to csv1--><g id="link_c1_csv1"><path d="M401.9585,215.9875 C402.039,216.1793 402.1201,216.3708 402.2017,216.5622 C402.5284,217.3276 402.8645,218.0902 403.2101,218.8486 C403.9012,220.3652 404.6306,221.8649 405.4002,223.3368 C406.9392,226.2806 408.6388,229.1133 410.5138,231.7483 C414.7438,237.6883 417.8238,237.1883 423.5138,241.7483 C437.0638,252.5983 446.1538,251.0283 453.5138,266.7483 C549.1238,470.8783 593.7638,608.4483 440.5138,773.7483 C409.9138,806.7583 284.2038,793.3783 239.5138,798.7483 C224.1838,800.5883 181.5538,795.9583 170.5138,806.7483 C167.8188,809.382 165.3835,812.2084 163.1861,815.1936 C162.0874,816.6862 161.0482,818.2186 160.0657,819.7864 C159.5745,820.5704 159.0975,821.3632 158.6343,822.1644 " fill="none" id="c1-to-csv1" style="stroke:#181818;stroke-width:1.0;"/><polygon fill="#181818" points="158.6343,822.1644,166.6018,816.3748,161.1368,817.8357,159.6759,812.3707,158.6343,822.1644" style="stroke:#181818;stroke-width:1.0;"/><text fill="#000000" font-family="sans-serif" font-size="13" lengthAdjust="spacing" textLength="46" x="540.5138" y="525.3166">hasPart</text></g><!--MD5=[1cd1e92bc6e4d50b57ecd5daffaf0f0f]
reverse link audio1 to csv1--><g id="link_audio1_csv1"><path d="M20.2667,488.4303 C20.2523,488.9146 20.238,489.4005 20.224,489.8879 C20.1679,491.8377 20.1153,493.8124 20.0666,495.8109 C19.9691,499.8079 19.887,503.9004 19.8232,508.0806 C19.6954,516.441 19.6406,525.1522 19.6813,534.152 C20.0063,606.1508 26.4388,696.6233 50.5138,773.7483 C63.3738,814.9483 88.0413,856.6533 109.7788,888.3858 C120.6475,904.252 130.7838,917.6252 138.3453,927.1955 C140.2357,929.588 141.9652,931.7429 143.505,933.6397 " fill="none" id="audio1-backto-csv1" style="stroke:#181818;stroke-width:1.0;"/><polygon fill="#181818" points="20.2667,488.4303,16,497.3069,20.1176,493.428,23.9964,497.5456,20.2667,488.4303" style="stroke:#181818;stroke-width:1.0;"/><text fill="#000000" font-family="sans-serif" font-size="13" lengthAdjust="spacing" textLength="83" x="51.5138" y="679.3166">annotationOf</text></g><!--MD5=[09973c62d71abbdf5c66d7955953c9f2]
reverse link pdf1 to csv1--><g id="link_pdf1_csv1"><path d="M151.5138,757.8978 C151.5138,758.8579 151.5138,759.8222 151.5138,760.7904 C151.5138,776.2812 151.5138,792.7705 151.5138,809.2595 C151.5138,813.3818 151.5138,817.504 151.5138,821.6107 C151.5138,821.8673 151.5138,822.1239 151.5138,822.3805 " fill="none" id="pdf1-backto-csv1" style="stroke:#181818;stroke-width:1.0;"/><polygon fill="#181818" points="151.5138,757.8978,147.5138,766.8978,151.5138,762.8978,155.5138,766.8978,151.5138,757.8978" style="stroke:#181818;stroke-width:1.0;"/><text fill="#000000" font-family="sans-serif" font-size="13" lengthAdjust="spacing" textLength="78" x="152.5138" y="795.3166">derivedFrom</text></g><!--MD5=[f0bf5121b22e06667ae154b8eeeb5e71]
reverse link s1 to c1--><g id="link_s1_c1"><path d="M290.9638,173.7483 C310.6538,173.7483 334.3563,173.7483 353.8025,173.7483 C363.5256,173.7483 372.1847,173.7483 378.7461,173.7483 C380.3865,173.7483 381.8957,173.7483 383.2577,173.7483 C383.3428,173.7483 383.4274,173.7483 383.5113,173.7483 " fill="none" id="s1-backto-c1" style="stroke:#181818;stroke-width:1.0;"/><polygon fill="#181818" points="285.7638,173.7483,294.7638,177.7483,290.7638,173.7483,294.7638,169.7483,285.7638,173.7483" style="stroke:#181818;stroke-width:1.0;"/><text fill="#000000" font-family="sans-serif" font-size="13" lengthAdjust="spacing" textLength="69" x="303.8338" y="167.3166">interviewer</text></g><!--MD5=[b8a25a5ebffdbd3201df32a677733a85]
link c1 to s2--><g id="link_c1_s2"><path d="M398.0525,93.3401 C398.2018,93.0597 398.3533,92.7806 398.5069,92.5028 C399.1213,91.3918 399.7702,90.3025 400.4551,89.2379 C403.195,84.9792 406.5125,81.1145 410.5138,77.8283 C449.6638,45.6783 593.6638,54.2483 638.5138,77.8283 C659.9738,89.1083 675.8038,110.8783 686.5838,130.8183 " fill="none" id="c1-to-s2" style="stroke:#181818;stroke-width:1.0;"/><polygon fill="#181818" points="688.9438,135.3083,688.2956,125.4808,686.6168,130.8828,681.2148,129.2039,688.9438,135.3083" style="stroke:#181818;stroke-width:1.0;"/><text fill="#000000" font-family="sans-serif" font-size="13" lengthAdjust="spacing" textLength="71" x="484.0138" y="66.3166">interviewee</text></g><!--MD5=[0e92884425c2d60cbda766d8bb73e935]
link c1 to proobj--><g id="link_c1_proobj"><path d="M398.0525,93.3401 C398.2018,93.0597 398.3533,92.7806 398.5069,92.5028 C399.1213,91.3918 399.7702,90.3025 400.4551,89.2379 C403.195,84.9792 406.5125,81.1145 410.5138,77.8283 C452.3238,43.4883 850.3838,51.2483 897.5138,77.8283 C925.0538,93.3583 940.9938,127.7983 948.9738,150.8983 " fill="none" id="c1-to-proobj" style="stroke:#181818;stroke-width:1.0;"/><polygon fill="#181818" points="950.5538,155.6483,951.4936,145.8444,948.9683,150.9063,943.9064,148.381,950.5538,155.6483" style="stroke:#181818;stroke-width:1.0;"/><text fill="#000000" font-family="sans-serif" font-size="13" lengthAdjust="spacing" textLength="76" x="746.5138" y="66.3166">conformsTo</text></g><!--MD5=[a4650f3ec3fbd8618613f548ef67fb1e]
@startuml
title: Structure of an Object crate


actor "Speaker 1" as s1
actor "Speaker 2" as s2

rectangle "RO-Crate Profile (this document)" {
rectangle "#Collection" as procoll
rectangle "#Object" as proobj
}

rectangle "Conversation" as c1 {

 
 rectangle "@type: [RepositoryObject]" 

}
rectangle "Audio File" as audio1 {
   rectangle "@id: [file.wav]\n@type: [File, PrimaryText]\nmodality: [Speech]\ncommunicationGenre: [Interview]\nresourceType: [PrimaryText]\nencodingFormat: [audio/x-wav]" 


}
rectangle "PDF File" as pdf1 {
   rectangle "@id: [file.pdf]\n@type: [File, Annotation]\nannotationType: [Transcription]\nmodality: [Orthography]\nresourceType: [DerivedText]\nencodingFormat: [text/pdf]" as pt 

}

rectangle "CSV File" as csv1 {
   rectangle "@id: [file.csv]\n@type: [File, Annotation, DerivedText]\nannotationType: [Transcription]\nmodality: [Orthography]\nresourceType: [DerivedText]\nencodingFormat: [text/csv]" 
}

c1 -down-> pdf1 : hasPart

pdf1 -up-> audio1 : annotationOf
c1 -down-> audio1 : hasPart
c1 -down-> csv1 : hasPart
csv1 -up-> audio1 : annotationOf
csv1 -up-> pdf1 : derivedFrom

c1 -left-> s1 : interviewer
c1 -right-> s2 : interviewee
c1 ->  proobj: conformsTo


@enduml

PlantUML version 1.2022.7(Tue Aug 23 03:01:30 AEST 2022)
(GPL source distribution)
Java Runtime: OpenJDK Runtime Environment
JVM: OpenJDK 64-Bit Server VM
Default Encoding: UTF-8
Language: en
Country: AU
--></g></svg>