<?xml version="1.0" encoding="us-ascii" standalone="no"?><svg xmlns="http://www.w3.org/2000/svg" xmlns:xlink="http://www.w3.org/1999/xlink" contentStyleType="text/css" height="1033px" preserveAspectRatio="none" style="width:1077px;height:1033px;background:#FFFFFF;" version="1.1" viewBox="0 0 1077 1033" width="1077px" zoomAndPan="magnify"><defs/><g><text fill="#000000" font-family="sans-serif" font-size="14" font-weight="bold" lengthAdjust="spacing" textLength="199" x="432.2554" y="23.5352">Structure of an Object crate</text><!--cluster RO-Crate Profile--><g id="cluster_RO-Crate Profile"><rect fill="none" height="106.49" rx="2.5" ry="2.5" style="stroke:#181818;stroke-width:1.0;" width="254" x="817.5109" y="101.6483"/><text fill="#000000" font-family="sans-serif" font-size="14" font-weight="bold" lengthAdjust="spacing" textLength="122" x="883.5109" y="117.1834">RO-Crate Profile</text></g><!--cluster c1--><g id="cluster_c1"><rect fill="none" height="122.49" rx="2.5" ry="2.5" style="stroke:#181818;stroke-width:1.0;" width="263" x="443.5109" y="93.6483"/><text fill="#000000" font-family="sans-serif" font-size="14" font-weight="bold" lengthAdjust="spacing" textLength="95" x="527.5109" y="109.1834">Conversation</text></g><!--cluster audio1--><g id="cluster_audio1"><rect fill="none" height="204.93" rx="2.5" ry="2.5" style="stroke:#181818;stroke-width:1.0;" width="375" x="17.5109" y="283.1383"/><text fill="#000000" font-family="sans-serif" font-size="14" font-weight="bold" lengthAdjust="spacing" textLength="73" x="168.5109" y="298.6734">Audio File</text></g><!--cluster pdf1--><g id="cluster_pdf1"><rect fill="none" height="204.93" rx="2.5" ry="2.5" style="stroke:#181818;stroke-width:1.0;" width="365" x="143.5109" y="553.0683"/><text fill="#000000" font-family="sans-serif" font-size="14" font-weight="bold" lengthAdjust="spacing" textLength="59" x="296.5109" y="568.6034">PDF File</text></g><!--cluster csv1--><g id="cluster_csv1"><rect fill="none" height="204.93" rx="2.5" ry="2.5" style="stroke:#181818;stroke-width:1.0;" width="370" x="143.5109" y="822.9983"/><text fill="#000000" font-family="sans-serif" font-size="14" font-weight="bold" lengthAdjust="spacing" textLength="59" x="299.0109" y="838.5334">CSV File</text></g><!--entity procoll--><g id="elem_procoll"><rect fill="#F1F1F1" height="36.4883" rx="2.5" ry="2.5" style="stroke:#181818;stroke-width:0.5;" width="106" x="833.5109" y="155.6483"/><text fill="#000000" font-family="sans-serif" font-size="14" lengthAdjust="spacing" textLength="13" x="843.5109" y="179.1834">1.</text><text fill="#000000" font-family="sans-serif" font-size="14" lengthAdjust="spacing" textLength="69" x="860.5109" y="179.1834">Collection</text></g><!--entity proobj--><g id="elem_proobj"><rect fill="#F1F1F1" height="36.4883" rx="2.5" ry="2.5" style="stroke:#181818;stroke-width:0.5;" width="81" x="974.0109" y="155.6483"/><text fill="#000000" font-family="sans-serif" font-size="14" lengthAdjust="spacing" textLength="13" x="984.0109" y="179.1834">1.</text><text fill="#000000" font-family="sans-serif" font-size="14" lengthAdjust="spacing" textLength="44" x="1001.0109" y="179.1834">Object</text></g><!--entity @type: [RepositoryObject]--><g id="elem_@type: [RepositoryObject]"><rect fill="#F1F1F1" height="36.4883" rx="2.5" ry="2.5" style="stroke:#181818;stroke-width:0.5;" width="196" x="486.5109" y="155.6483"/><text fill="#000000" font-family="sans-serif" font-size="14" lengthAdjust="spacing" textLength="176" x="496.5109" y="179.1834">@type: [RepositoryObject]</text></g><!--entity @id: [file.wav]\n@type: [File, PrimaryMaterial]\ncommunicationsMode: [SpokenLanguage]\ncommunicationGenre: [Interview]\nresourceType: [PrimaryMaterial]\nencodingFormat: [audio/x-wav]--><g id="elem_@id: [file.wav]\n@type: [File, PrimaryMaterial]\ncommunicationsMode: [SpokenLanguage]\ncommunicationGenre: [Interview]\nresourceType: [PrimaryMaterial]\nencodingFormat: [audio/x-wav]"><rect fill="#F1F1F1" height="118.9297" rx="2.5" ry="2.5" style="stroke:#181818;stroke-width:0.5;" width="307" x="61.0109" y="345.1383"/><text fill="#000000" font-family="sans-serif" font-size="14" lengthAdjust="spacing" textLength="94" x="71.0109" y="368.6734">@id: [file.wav]</text><text fill="#000000" font-family="sans-serif" font-size="14" lengthAdjust="spacing" textLength="198" x="71.0109" y="385.1617">@type: [File, PrimaryMaterial]</text><text fill="#000000" font-family="sans-serif" font-size="14" lengthAdjust="spacing" textLength="287" x="71.0109" y="401.65">communicationsMode: [SpokenLanguage]</text><text fill="#000000" font-family="sans-serif" font-size="14" lengthAdjust="spacing" textLength="227" x="71.0109" y="418.1383">communicationGenre: [Interview]</text><text fill="#000000" font-family="sans-serif" font-size="14" lengthAdjust="spacing" textLength="218" x="71.0109" y="434.6266">resourceType: [PrimaryMaterial]</text><text fill="#000000" font-family="sans-serif" font-size="14" lengthAdjust="spacing" textLength="220" x="71.0109" y="451.1148">encodingFormat: [audio/x-wav]</text></g><!--entity pt--><g id="elem_pt"><rect fill="#F1F1F1" height="118.9297" rx="2.5" ry="2.5" style="stroke:#181818;stroke-width:0.5;" width="298" x="186.5109" y="615.0683"/><text fill="#000000" font-family="sans-serif" font-size="14" lengthAdjust="spacing" textLength="91" x="196.5109" y="638.6034">@id: [file.pdf]</text><text fill="#000000" font-family="sans-serif" font-size="14" lengthAdjust="spacing" textLength="168" x="196.5109" y="655.0917">@type: [File, Annotation]</text><text fill="#000000" font-family="sans-serif" font-size="14" lengthAdjust="spacing" textLength="218" x="196.5109" y="671.58">annotationType: [Transcription]</text><text fill="#000000" font-family="sans-serif" font-size="14" lengthAdjust="spacing" textLength="278" x="196.5109" y="688.0683">communicationMode: [WrittenLanguage]</text><text fill="#000000" font-family="sans-serif" font-size="14" lengthAdjust="spacing" textLength="218" x="196.5109" y="704.5566">resourceType: [DerivedMaterial]</text><text fill="#000000" font-family="sans-serif" font-size="14" lengthAdjust="spacing" textLength="216" x="196.5109" y="721.0448">encodingFormat: [Material/pdf]</text></g><!--entity @id: [file.csv]\n@type: [File, Annotation, DerivedMaterial]\nannotationType: [Transcription]\ncommunicationMode: [WrittenLanguage]\nresourceType: [DerivedMaterial]\nencodingFormat: [text/csv]--><g id="elem_@id: [file.csv]\n@type: [File, Annotation, DerivedMaterial]\nannotationType: [Transcription]\ncommunicationMode: [WrittenLanguage]\nresourceType: [DerivedMaterial]\nencodingFormat: [text/csv]"><rect fill="#F1F1F1" height="118.9297" rx="2.5" ry="2.5" style="stroke:#181818;stroke-width:0.5;" width="303" x="187.0109" y="884.9983"/><text fill="#000000" font-family="sans-serif" font-size="14" lengthAdjust="spacing" textLength="89" x="197.0109" y="908.5334">@id: [file.csv]</text><text fill="#000000" font-family="sans-serif" font-size="14" lengthAdjust="spacing" textLength="283" x="197.0109" y="925.0217">@type: [File, Annotation, DerivedMaterial]</text><text fill="#000000" font-family="sans-serif" font-size="14" lengthAdjust="spacing" textLength="218" x="197.0109" y="941.51">annotationType: [Transcription]</text><text fill="#000000" font-family="sans-serif" font-size="14" lengthAdjust="spacing" textLength="278" x="197.0109" y="957.9983">communicationMode: [WrittenLanguage]</text><text fill="#000000" font-family="sans-serif" font-size="14" lengthAdjust="spacing" textLength="218" x="197.0109" y="974.4866">resourceType: [DerivedMaterial]</text><text fill="#000000" font-family="sans-serif" font-size="14" lengthAdjust="spacing" textLength="186" x="197.0109" y="990.9748">encodingFormat: [text/csv]</text></g><!--entity s1--><g id="elem_s1"><ellipse cx="311.5109" cy="144.1483" fill="#F1F1F1" rx="8" ry="8" style="stroke:#181818;stroke-width:0.5;"/><path d="M311.5109,152.1483 L311.5109,179.1483 M298.5109,160.1483 L324.5109,160.1483 M311.5109,179.1483 L298.5109,194.1483 M311.5109,179.1483 L324.5109,194.1483 " fill="none" style="stroke:#181818;stroke-width:0.5;"/><text fill="#000000" font-family="sans-serif" font-size="14" lengthAdjust="spacing" textLength="68" x="277.5109" y="209.1834">Speaker 1</text></g><!--entity s2--><g id="elem_s2"><ellipse cx="764.5109" cy="144.1483" fill="#F1F1F1" rx="8" ry="8" style="stroke:#181818;stroke-width:0.5;"/><path d="M764.5109,152.1483 L764.5109,179.1483 M751.5109,160.1483 L777.5109,160.1483 M764.5109,179.1483 L751.5109,194.1483 M764.5109,179.1483 L777.5109,194.1483 " fill="none" style="stroke:#181818;stroke-width:0.5;"/><text fill="#000000" font-family="sans-serif" font-size="14" lengthAdjust="spacing" textLength="68" x="730.5109" y="209.1834">Speaker 2</text></g><!--link c1 to pdf1--><g id="link_c1_pdf1"><path d="M456.6376,216.1991 C456.6699,216.5663 456.7021,216.9354 456.7341,217.3065 C456.798,218.0486 456.8614,218.7986 456.9241,219.5562 C457.0495,221.0714 457.1721,222.6173 457.2913,224.1925 C457.5297,227.3428 457.7543,230.6105 457.9596,233.9854 C458.3701,240.7351 458.7034,247.9135 458.9151,255.4392 C459.3384,270.4906 459.2755,286.9314 458.3721,304.1108 C454.7584,372.8283 437.6959,453.3633 384.5109,504.0683 C375.8009,512.3683 178.9509,528.4983 170.5109,537.0683 C167.8665,539.752 165.4756,542.6221 163.317,545.6454 C162.2377,547.1571 161.2165,548.7071 160.2506,550.2912 C159.7677,551.0833 159.2987,551.8839 158.8432,552.6925 " fill="none" id="c1-to-pdf1" style="stroke:#181818;stroke-width:1.0;"/><polygon fill="#181818" points="158.8432,552.6925,166.7455,546.8143,161.2972,548.3362,159.7753,542.8879,158.8432,552.6925" style="stroke:#181818;stroke-width:1.0;"/><text fill="#000000" font-family="sans-serif" font-size="13" lengthAdjust="spacing" textLength="46" x="459.5109" y="409.6766">hasPart</text></g><!--reverse link audio1 to pdf1--><g id="link_audio1_pdf1"><path d="M34.8732,488.2513 C35.1602,488.881 35.4545,489.5068 35.7563,490.1284 C38.1701,495.1014 41.0596,499.8058 44.5109,504.0683 C56.3509,518.6983 110.5309,522.5483 122.5109,537.0683 C132.2234,548.8383 138.9115,563.0802 143.4757,577.8644 " fill="none" id="audio1-backto-pdf1" style="stroke:#181818;stroke-width:1.0;"/><polygon fill="#181818" points="34.8732,488.2513,34.9665,498.0997,36.9471,492.8009,42.2459,494.7815,34.8732,488.2513" style="stroke:#181818;stroke-width:1.0;"/><text fill="#000000" font-family="sans-serif" font-size="13" lengthAdjust="spacing" textLength="83" x="110.5109" y="525.6366">annotationOf</text></g><!--link c1 to audio1--><g id="link_c1_audio1"><path d="M443.3453,182.05 C443.0414,182.3068 442.73,182.569 442.4112,182.8366 C437.3096,187.1173 430.3096,192.7539 422.0509,198.7895 C405.5334,210.8608 383.9809,224.5283 362.5109,232.1383 C295.5009,255.8883 95.5009,217.5983 44.5109,267.1383 C41.809,269.7639 39.3677,272.583 37.165,275.5618 C36.0637,277.0513 35.0221,278.5806 34.0374,280.1457 C33.5451,280.9282 33.067,281.7197 32.6028,282.5195 C32.4867,282.7195 32.3715,282.92 32.2572,283.121 " fill="none" id="c1-to-audio1" style="stroke:#181818;stroke-width:1.0;"/><polygon fill="#181818" points="32.2572,283.121,40.1836,277.2752,34.7291,278.7747,33.2296,273.3202,32.2572,283.121" style="stroke:#181818;stroke-width:1.0;"/><text fill="#000000" font-family="sans-serif" font-size="13" lengthAdjust="spacing" textLength="46" x="124.5109" y="255.7066">hasPart</text></g><!--link c1 to csv1--><g id="link_c1_csv1"><path d="M461.7865,216.4217 C461.8678,216.6137 461.9498,216.8055 462.0324,216.9971 C462.3627,217.7634 462.7029,218.5265 463.0532,219.285 C463.7538,220.8019 464.4949,222.3002 465.2787,223.769 C466.8463,226.7066 468.5846,229.5258 470.5109,232.1383 C475.0509,238.2883 478.4609,237.4683 484.5109,242.1383 C498.2509,252.7483 507.1509,251.4183 514.5109,267.1383 C610.1009,471.2183 655.9809,610.8583 500.5109,773.9983 C497.3409,777.3183 174.8309,803.8283 171.5109,806.9983 C168.784,809.6039 166.317,812.4055 164.0881,815.369 C162.9737,816.8508 161.9188,818.373 160.9208,819.9315 C160.4218,820.7108 159.937,821.4991 159.466,822.2959 C159.3483,822.4951 159.2314,822.6949 159.1154,822.8951 " fill="none" id="c1-to-csv1" style="stroke:#181818;stroke-width:1.0;"/><polygon fill="#181818" points="159.1154,822.8951,167.0878,817.1122,161.6216,818.5686,160.1652,813.1024,159.1154,822.8951" style="stroke:#181818;stroke-width:1.0;"/><text fill="#000000" font-family="sans-serif" font-size="13" lengthAdjust="spacing" textLength="46" x="601.5109" y="525.6366">hasPart</text></g><!--reverse link audio1 to csv1--><g id="link_audio1_csv1"><path d="M20.2666,488.763 C20.2521,489.2472 20.2379,489.733 20.2239,490.2203 C20.1678,492.1695 20.1153,494.1436 20.0666,496.1416 C19.9692,500.1375 19.8872,504.2288 19.8235,508.4079 C19.696,516.7659 19.6413,525.4747 19.6821,534.472 C20.0084,606.4508 26.4409,696.8983 50.5109,773.9983 C63.3709,815.1933 88.0384,856.8908 109.7759,888.6158 C120.6446,904.4783 130.7809,917.8477 138.3424,927.4145 C140.2328,929.8063 141.9623,931.9603 143.5021,933.8563 " fill="none" id="audio1-backto-csv1" style="stroke:#181818;stroke-width:1.0;"/><polygon fill="#181818" points="20.2666,488.763,16,497.6398,20.1175,493.7608,23.9964,497.8783,20.2666,488.763" style="stroke:#181818;stroke-width:1.0;"/><text fill="#000000" font-family="sans-serif" font-size="13" lengthAdjust="spacing" textLength="83" x="51.5109" y="679.6066">annotationOf</text></g><!--reverse link pdf1 to csv1--><g id="link_pdf1_csv1"><path d="M151.5109,758.1595 C151.5109,759.1194 151.5109,760.0834 151.5109,761.0514 C151.5109,776.5387 151.5109,793.0242 151.5109,809.5095 C151.5109,813.6309 151.5109,817.7522 151.5109,821.8579 C151.5109,822.1145 151.5109,822.371 151.5109,822.6275 " fill="none" id="pdf1-backto-csv1" style="stroke:#181818;stroke-width:1.0;"/><polygon fill="#181818" points="151.5109,758.1595,147.5109,767.1595,151.5109,763.1595,155.5109,767.1595,151.5109,758.1595" style="stroke:#181818;stroke-width:1.0;"/><text fill="#000000" font-family="sans-serif" font-size="13" lengthAdjust="spacing" textLength="78" x="152.5109" y="795.5666">derivedFrom</text></g><!--reverse link s1 to c1--><g id="link_s1_c1"><path d="M351.3509,173.8983 C370.6909,173.8983 393.8284,173.8983 412.9909,173.8983 C422.5721,173.8983 431.1596,173.8983 437.7818,173.8983 C439.4373,173.8983 440.9701,173.8983 442.3648,173.8983 C442.7134,173.8983 443.0535,173.8983 443.3847,173.8983 " fill="none" id="s1-backto-c1" style="stroke:#181818;stroke-width:1.0;"/><polygon fill="#181818" points="346.7609,173.8983,355.7609,177.8983,351.7609,173.8983,355.7609,169.8983,346.7609,173.8983" style="stroke:#181818;stroke-width:1.0;"/><text fill="#000000" font-family="sans-serif" font-size="13" lengthAdjust="spacing" textLength="69" x="363.8309" y="167.4666">interviewer</text></g><!--link c1 to s2--><g id="link_c1_s2"><path d="M457.964,93.4462 C458.0373,93.3078 458.111,93.1697 458.1853,93.0319 C458.3338,92.7564 458.4844,92.4822 458.6371,92.2093 C459.2478,91.1178 459.8921,90.0476 460.5714,89.0014 C463.289,84.8167 466.5684,81.017 470.5109,77.7783 C509.6609,45.6083 653.6809,54.1783 698.5109,77.7783 C719.7209,88.9383 735.4309,110.3483 746.1909,130.1283 " fill="none" id="c1-to-s2" style="stroke:#181818;stroke-width:1.0;"/><polygon fill="#181818" points="748.9609,134.3783,748.3127,124.5508,746.6339,129.9528,741.2319,128.2739,748.9609,134.3783" style="stroke:#181818;stroke-width:1.0;"/><text fill="#000000" font-family="sans-serif" font-size="13" lengthAdjust="spacing" textLength="71" x="544.0109" y="66.2166">interviewee</text></g><!--link c1 to proobj--><g id="link_c1_proobj"><path d="M457.964,93.4462 C458.0373,93.3078 458.111,93.1697 458.1853,93.0319 C458.3338,92.7564 458.4844,92.4822 458.6371,92.2093 C459.2478,91.1178 459.8921,90.0476 460.5714,89.0014 C463.289,84.8167 466.5684,81.017 470.5109,77.7783 C512.2309,43.4883 909.4909,51.2283 956.5109,77.7783 C983.5809,93.0583 999.4309,126.5983 1007.5409,149.7283 " fill="none" id="c1-to-proobj" style="stroke:#181818;stroke-width:1.0;"/><polygon fill="#181818" points="1009.4309,154.3583,1010.3707,144.5544,1007.8454,149.6163,1002.7835,147.091,1009.4309,154.3583" style="stroke:#181818;stroke-width:1.0;"/><text fill="#000000" font-family="sans-serif" font-size="13" lengthAdjust="spacing" textLength="76" x="805.5109" y="66.2166">conformsTo</text></g><!--SRC=[nPGnRzim48Lt_eg3kqOrxD53qC21Ym89RCH6EhGP6EhaC958uKZ9COh-znufoPPiG6j7whrxV1z9o6kVumAsdYhbAqAm6KW3wzTtL1uKIOz22Acy9PXiIvGVI32RW7JWPfVVvyttkH34qzBiSuJ9qpfPXXZOaCrqZXFuqvU_B6sUyr9R4wTBieg_32nDcqwsh-_Yxs2BfJKrafEd43NZJGG8w9c- -MF9fB-UiBHES-zZ4_io0S5vFUTTbMeBgzYLmsHOXa20GPvEEIqGVJt8-kMtwJO8WpTCgmj9nqSc9orprfKjYife5MkwHvi6yxQq7sWUEBEIUxnqVKT3mVN3S4gjyS06GcShKhXhThlU1paZrMQ_ibH8pvO8CFrCGiq0EwJTtA_Eh6MQZPAoVaLwPupriIvByhHe- -r86gT8bwrXmDSUma_ItWzEuGBodjbgJCSWEsqQAZOiFbxiuA5idy-iojMZhAoFiDx0TQd_1k_nqqz3NxvU9kRddwJsO9BRva8Ny2RTHf8N8gwJgcIfVTSBEDTUP_tPaw6Rxcdny7fAM8x6dWrjfRJ1Mf4jciOvPfvb5qJTFNYag97UlqLnFX0nYhVG_XOMeAp9-53SpWhn3m00]--></g></svg>