<svg xmlns="http://www.w3.org/2000/svg" xmlns:xlink="http://www.w3.org/1999/xlink" contentStyleType="text/css" data-diagram-type="DESCRIPTION" height="1030px" preserveAspectRatio="none" style="width:1074px;height:1030px;background:#FFFFFF;" version="1.1" viewBox="0 0 1074 1030" width="1074px" zoomAndPan="magnify"><title>Structure of an Object crate</title><defs/><g><text fill="#000000" font-family="sans-serif" font-size="14" font-weight="bold" lengthAdjust="spacing" textLength="199.459" x="430.6805" y="23.5352">Structure of an Object crate</text><!--cluster RO-Crate Profile--><g class="cluster" data-entity="RO-Crate Profile" data-source-line="8" data-uid="ent0004" id="cluster_RO-Crate Profile"><rect fill="none" height="106.49" rx="2.5" ry="2.5" style="stroke:#181818;stroke-width:1;" width="246" x="822.82" y="98.3983"/><text fill="#000000" font-family="sans-serif" font-size="14" font-weight="bold" lengthAdjust="spacing" textLength="120.1895" x="885.7253" y="113.9334">RO-Crate Profile</text></g><!--cluster c1--><g class="cluster" data-entity="c1" data-source-line="13" data-uid="ent0007" id="cluster_c1"><rect fill="none" height="122.49" rx="2.5" ry="2.5" style="stroke:#181818;stroke-width:1;" width="255" x="352.82" y="90.3983"/><text fill="#000000" font-family="sans-serif" font-size="14" font-weight="bold" lengthAdjust="spacing" textLength="95.4912" x="432.5744" y="105.9334">Conversation</text></g><!--cluster audio1--><g class="cluster" data-entity="audio1" data-source-line="19" data-uid="ent0009" id="cluster_audio1"><rect fill="none" height="204.93" rx="2.5" ry="2.5" style="stroke:#181818;stroke-width:1;" width="425" x="45.82" y="279.8883"/><text fill="#000000" font-family="sans-serif" font-size="14" font-weight="bold" lengthAdjust="spacing" textLength="72.2354" x="222.2023" y="295.4234">Audio File</text></g><!--cluster pdf1--><g class="cluster" data-entity="pdf1" data-source-line="24" data-uid="ent0011" id="cluster_pdf1"><rect fill="none" height="204.93" rx="2.5" ry="2.5" style="stroke:#181818;stroke-width:1;" width="424" x="183.82" y="549.8183"/><text fill="#000000" font-family="sans-serif" font-size="14" font-weight="bold" lengthAdjust="spacing" textLength="57.6885" x="366.9758" y="565.3534">PDF File</text></g><!--cluster csv1--><g class="cluster" data-entity="csv1" data-source-line="29" data-uid="ent0013" id="cluster_csv1"><rect fill="none" height="204.93" rx="2.5" ry="2.5" style="stroke:#181818;stroke-width:1;" width="435" x="141.82" y="819.7483"/><text fill="#000000" font-family="sans-serif" font-size="14" font-weight="bold" lengthAdjust="spacing" textLength="57.7158" x="330.4621" y="835.2834">CSV File</text></g><!--entity procoll--><g class="entity" data-entity="procoll" data-source-line="9" data-uid="ent0005" id="entity_procoll"><rect fill="#F1F1F1" height="36.4883" rx="2.5" ry="2.5" style="stroke:#181818;stroke-width:0.5;" width="101.2041" x="951.22" y="152.3983"/><text fill="#000000" font-family="sans-serif" font-size="14" lengthAdjust="spacing" textLength="76.7744" x="965.6497" y="175.9334">#Collection</text></g><!--entity proobj--><g class="entity" data-entity="proobj" data-source-line="10" data-uid="ent0006" id="entity_proobj"><rect fill="#F1F1F1" height="36.4883" rx="2.5" ry="2.5" style="stroke:#181818;stroke-width:0.5;" width="77.4355" x="839.1" y="152.3983"/><text fill="#000000" font-family="sans-serif" font-size="14" lengthAdjust="spacing" textLength="53.0059" x="853.5297" y="175.9334">#Object</text></g><!--entity <b>@type:</b> RepositoryObject--><g class="entity" data-entity="&lt;b&gt;@type:&lt;/b&gt; RepositoryObject" data-source-line="16" data-uid="ent0008" id="entity_&lt;b&gt;@type:&lt;/b&gt; RepositoryObject"><rect fill="#F1F1F1" height="36.4883" rx="2.5" ry="2.5" style="stroke:#181818;stroke-width:0.5;" width="187.501" x="377.07" y="152.3983"/><text fill="#000000" font-family="sans-serif" font-size="14" font-weight="bold" lengthAdjust="spacing" textLength="46.792" x="387.07" y="175.9334">@type:</text><text fill="#000000" font-family="sans-serif" font-size="14" lengthAdjust="spacing" textLength="116.2793" x="438.2917" y="175.9334">RepositoryObject</text></g><!--entity <b>@id:</b> file.wav\n<b>@type:</b> [File, ldac:PrimaryMaterial]\n<b>ldac:communicationMode:</b> ldac:SpokenLanguage\n<b>ldac:linguisticGenre:</b> ldac:Interview\n<b>ldac:materialType:</b> ldac:PrimaryMaterial\n<b>encodingFormat:</b> audio/x-wav--><g class="entity" data-entity="&lt;b&gt;@id:&lt;/b&gt; file.wav\n&lt;b&gt;@type:&lt;/b&gt; [File, ldac:PrimaryMaterial]\n&lt;b&gt;ldac:communicationMode:&lt;/b&gt; ldac:SpokenLanguage\n&lt;b&gt;ldac:linguisticGenre:&lt;/b&gt; ldac:Interview\n&lt;b&gt;ldac:materialType:&lt;/b&gt; ldac:PrimaryMaterial\n&lt;b&gt;encodingFormat:&lt;/b&gt; audio/x-wav" data-source-line="20" data-uid="ent0010" id="entity_&lt;b&gt;@id:&lt;/b&gt; file.wav\n&lt;b&gt;@type:&lt;/b&gt; [File, ldac:PrimaryMaterial]\n&lt;b&gt;ldac:communicationMode:&lt;/b&gt; ldac:SpokenLanguage\n&lt;b&gt;ldac:linguisticGenre:&lt;/b&gt; ldac:Interview\n&lt;b&gt;ldac:materialType:&lt;/b&gt; ldac:PrimaryMaterial\n&lt;b&gt;encodingFormat:&lt;/b&gt; audio/x-wav"><rect fill="#F1F1F1" height="118.9297" rx="2.5" ry="2.5" style="stroke:#181818;stroke-width:0.5;" width="357.8936" x="69.87" y="341.8883"/><text fill="#000000" font-family="sans-serif" font-size="14" font-weight="bold" lengthAdjust="spacing" textLength="29.3057" x="79.87" y="365.4234">@id:</text><text fill="#000000" font-family="sans-serif" font-size="14" lengthAdjust="spacing" textLength="51.2354" x="113.6054" y="365.4234">file.wav</text><text fill="#000000" font-family="sans-serif" font-size="14" font-weight="bold" lengthAdjust="spacing" textLength="46.792" x="79.87" y="381.9117">@type:</text><text fill="#000000" font-family="sans-serif" font-size="14" lengthAdjust="spacing" textLength="179.293" x="131.0917" y="381.9117">[File, ldac:PrimaryMaterial]</text><text fill="#000000" font-family="sans-serif" font-size="14" font-weight="bold" lengthAdjust="spacing" textLength="186.0879" x="79.87" y="398.4">ldac:communicationMode:</text><text fill="#000000" font-family="sans-serif" font-size="14" lengthAdjust="spacing" textLength="147.376" x="270.3876" y="398.4">ldac:SpokenLanguage</text><text fill="#000000" font-family="sans-serif" font-size="14" font-weight="bold" lengthAdjust="spacing" textLength="145.708" x="79.87" y="414.8883">ldac:linguisticGenre:</text><text fill="#000000" font-family="sans-serif" font-size="14" lengthAdjust="spacing" textLength="93.5566" x="230.0077" y="414.8883">ldac:Interview</text><text fill="#000000" font-family="sans-serif" font-size="14" font-weight="bold" lengthAdjust="spacing" textLength="131.1133" x="79.87" y="431.3766">ldac:materialType:</text><text fill="#000000" font-family="sans-serif" font-size="14" lengthAdjust="spacing" textLength="137.9287" x="215.413" y="431.3766">ldac:PrimaryMaterial</text><text fill="#000000" font-family="sans-serif" font-size="14" font-weight="bold" lengthAdjust="spacing" textLength="120.333" x="79.87" y="447.8648">encodingFormat:</text><text fill="#000000" font-family="sans-serif" font-size="14" lengthAdjust="spacing" textLength="87.6709" x="204.6327" y="447.8648">audio/x-wav</text></g><!--entity pt--><g class="entity" data-entity="pt" data-source-line="25" data-uid="ent0012" id="entity_pt"><rect fill="#F1F1F1" height="118.9297" rx="2.5" ry="2.5" style="stroke:#181818;stroke-width:0.5;" width="356.9844" x="207.33" y="611.8183"/><text fill="#000000" font-family="sans-serif" font-size="14" font-weight="bold" lengthAdjust="spacing" textLength="29.3057" x="217.33" y="635.3534">@id:</text><text fill="#000000" font-family="sans-serif" font-size="14" lengthAdjust="spacing" textLength="48.2412" x="251.0654" y="635.3534">file.pdf</text><text fill="#000000" font-family="sans-serif" font-size="14" font-weight="bold" lengthAdjust="spacing" textLength="46.792" x="217.33" y="651.8417">@type:</text><text fill="#000000" font-family="sans-serif" font-size="14" lengthAdjust="spacing" textLength="148.7295" x="268.5517" y="651.8417">[File, ldac:Annotation]</text><text fill="#000000" font-family="sans-serif" font-size="14" font-weight="bold" lengthAdjust="spacing" textLength="149.5566" x="217.33" y="668.33">ldac:annotationType:</text><text fill="#000000" font-family="sans-serif" font-size="14" lengthAdjust="spacing" textLength="122.6572" x="371.3163" y="668.33">ldac:Transcription</text><text fill="#000000" font-family="sans-serif" font-size="14" font-weight="bold" lengthAdjust="spacing" textLength="186.0879" x="217.33" y="684.8183">ldac:communicationMode:</text><text fill="#000000" font-family="sans-serif" font-size="14" lengthAdjust="spacing" textLength="146.4668" x="407.8476" y="684.8183">ldac:WrittenLanguage</text><text fill="#000000" font-family="sans-serif" font-size="14" font-weight="bold" lengthAdjust="spacing" textLength="131.1133" x="217.33" y="701.3066">ldac:materialType:</text><text fill="#000000" font-family="sans-serif" font-size="14" lengthAdjust="spacing" textLength="138.4893" x="352.873" y="701.3066">ldac:DerivedMaterial</text><text fill="#000000" font-family="sans-serif" font-size="14" font-weight="bold" lengthAdjust="spacing" textLength="120.333" x="217.33" y="717.7948">encodingFormat:</text><text fill="#000000" font-family="sans-serif" font-size="14" lengthAdjust="spacing" textLength="105.0342" x="342.0927" y="717.7948">application/pdf</text></g><!--entity <b>@id:</b> file.csv\n<b>@type:</b> [File, ldac:Annotation, ldac:DerivedMaterial]\n<b>ldac:annotationType:</b> ldac:Transcription\n<b>ldac:communicationMode:</b> ldac:WrittenLanguage\n<b>ldac:materialType:</b> ldac:DerivedMaterial\n<b>encodingFormat:</b> text/csv--><g class="entity" data-entity="&lt;b&gt;@id:&lt;/b&gt; file.csv\n&lt;b&gt;@type:&lt;/b&gt; [File, ldac:Annotation, ldac:DerivedMaterial]\n&lt;b&gt;ldac:annotationType:&lt;/b&gt; ldac:Transcription\n&lt;b&gt;ldac:communicationMode:&lt;/b&gt; ldac:WrittenLanguage\n&lt;b&gt;ldac:materialType:&lt;/b&gt; ldac:DerivedMaterial\n&lt;b&gt;encodingFormat:&lt;/b&gt; text/csv" data-source-line="30" data-uid="ent0014" id="entity_&lt;b&gt;@id:&lt;/b&gt; file.csv\n&lt;b&gt;@type:&lt;/b&gt; [File, ldac:Annotation, ldac:DerivedMaterial]\n&lt;b&gt;ldac:annotationType:&lt;/b&gt; ldac:Transcription\n&lt;b&gt;ldac:communicationMode:&lt;/b&gt; ldac:WrittenLanguage\n&lt;b&gt;ldac:materialType:&lt;/b&gt; ldac:DerivedMaterial\n&lt;b&gt;encodingFormat:&lt;/b&gt; text/csv"><rect fill="#F1F1F1" height="118.9297" rx="2.5" ry="2.5" style="stroke:#181818;stroke-width:0.5;" width="367.2998" x="166.17" y="881.7483"/><text fill="#000000" font-family="sans-serif" font-size="14" font-weight="bold" lengthAdjust="spacing" textLength="29.3057" x="176.17" y="905.2834">@id:</text><text fill="#000000" font-family="sans-serif" font-size="14" lengthAdjust="spacing" textLength="47.0244" x="209.9054" y="905.2834">file.csv</text><text fill="#000000" font-family="sans-serif" font-size="14" font-weight="bold" lengthAdjust="spacing" textLength="46.792" x="176.17" y="921.7717">@type:</text><text fill="#000000" font-family="sans-serif" font-size="14" lengthAdjust="spacing" textLength="296.0781" x="227.3917" y="921.7717">[File, ldac:Annotation, ldac:DerivedMaterial]</text><text fill="#000000" font-family="sans-serif" font-size="14" font-weight="bold" lengthAdjust="spacing" textLength="149.5566" x="176.17" y="938.26">ldac:annotationType:</text><text fill="#000000" font-family="sans-serif" font-size="14" lengthAdjust="spacing" textLength="122.6572" x="330.1563" y="938.26">ldac:Transcription</text><text fill="#000000" font-family="sans-serif" font-size="14" font-weight="bold" lengthAdjust="spacing" textLength="186.0879" x="176.17" y="954.7483">ldac:communicationMode:</text><text fill="#000000" font-family="sans-serif" font-size="14" lengthAdjust="spacing" textLength="146.4668" x="366.6876" y="954.7483">ldac:WrittenLanguage</text><text fill="#000000" font-family="sans-serif" font-size="14" font-weight="bold" lengthAdjust="spacing" textLength="131.1133" x="176.17" y="971.2366">ldac:materialType:</text><text fill="#000000" font-family="sans-serif" font-size="14" lengthAdjust="spacing" textLength="138.4893" x="311.713" y="971.2366">ldac:DerivedMaterial</text><text fill="#000000" font-family="sans-serif" font-size="14" font-weight="bold" lengthAdjust="spacing" textLength="120.333" x="176.17" y="987.7248">encodingFormat:</text><text fill="#000000" font-family="sans-serif" font-size="14" lengthAdjust="spacing" textLength="55.7539" x="300.9327" y="987.7248">text/csv</text></g><!--entity s1--><g class="entity" data-entity="s1" data-source-line="5" data-uid="ent0002" id="entity_s1"><ellipse cx="295.818" cy="140.8983" fill="#F1F1F1" rx="8" ry="8" style="stroke:#181818;stroke-width:0.5;"/><path d="M295.818,148.8983 L295.818,175.8983 M282.818,156.8983 L308.818,156.8983 M295.818,175.8983 L282.818,190.8983 M295.818,175.8983 L308.818,190.8983" fill="none" style="stroke:#181818;stroke-width:0.5;"/><text fill="#000000" font-family="sans-serif" font-size="14" lengthAdjust="spacing" textLength="66.876" x="262.38" y="205.9334">Speaker 1</text></g><!--entity s2--><g class="entity" data-entity="s2" data-source-line="6" data-uid="ent0003" id="entity_s2"><ellipse cx="770.818" cy="140.8983" fill="#F1F1F1" rx="8" ry="8" style="stroke:#181818;stroke-width:0.5;"/><path d="M770.818,148.8983 L770.818,175.8983 M757.818,156.8983 L783.818,156.8983 M770.818,175.8983 L757.818,190.8983 M770.818,175.8983 L783.818,190.8983" fill="none" style="stroke:#181818;stroke-width:0.5;"/><text fill="#000000" font-family="sans-serif" font-size="14" lengthAdjust="spacing" textLength="66.876" x="737.38" y="205.9334">Speaker 2</text></g><!--link c1 to pdf1--><g class="link" data-entity-1="c1" data-entity-2="pdf1" data-source-line="33" data-uid="lnk15" id="link_c1_pdf1"><path d="M599.82,212.9885 C599.82,215.2232 599.82,217.5341 599.82,219.9176 C599.82,229.4517 599.82,240.147 599.82,251.7714 C599.82,298.2689 599.82,359.6308 599.82,420.9908 C599.82,451.6708 599.82,482.3503 599.82,511.1711 C599.82,518.3763 599.82,525.4653 599.82,532.4091 C599.82,535.881 599.82,539.3166 599.82,542.7123 C599.82,544.4102 599.82,546.098 599.82,547.7754 C599.82,548.1948 599.82,542.6135 599.82,543.0315" fill="none" id="c1-to-pdf1" style="stroke:#181818;stroke-width:1;"/><polygon fill="#181818" points="599.82,549.0315,603.82,540.0315,599.82,544.0315,595.82,540.0315,599.82,549.0315" style="stroke:#181818;stroke-width:1;"/><text fill="#000000" font-family="sans-serif" font-size="13" lengthAdjust="spacing" textLength="46.4204" x="600.82" y="406.4266">hasPart</text></g><!--reverse link audio1 to pdf1--><g class="link" data-entity-1="audio1" data-entity-2="pdf1" data-source-line="35" data-uid="lnk17" id="link_audio1_pdf1"><path d="M444.4701,491.2455 C446.0172,504.4662 450.5925,515.9533 459.82,525.8183 C478.08,545.3383 560.19,515.6783 579.82,533.8183 C582.59,536.3777 585.0948,539.1386 587.3567,542.0667 C588.4876,543.5308 589.5578,545.0366 590.5699,546.5799 C591.076,547.3515 591.5676,548.1325 592.0451,548.9224 C592.1644,549.1198 592.2829,549.3178 592.4005,549.5164" fill="none" id="audio1-backto-pdf1" style="stroke:#181818;stroke-width:1;"/><polygon fill="#181818" points="444.0961,485.2571,440.6649,494.4889,444.4078,490.2474,448.6493,493.9903,444.0961,485.2571" style="stroke:#181818;stroke-width:1;"/><text fill="#000000" font-family="sans-serif" font-size="13" lengthAdjust="spacing" textLength="112.7852" x="460.82" y="522.3866">ldac:annotationOf</text></g><!--link c1 to audio1--><g class="link" data-entity-1="c1" data-entity-2="audio1" data-source-line="36" data-uid="lnk18" id="link_c1_audio1"><path d="M592.0702,213.1063 C589.365,219.0777 585.7225,224.6308 580.82,228.8883 C562.06,245.1783 544.99,223.0883 525.82,238.8883 C496.565,263.0033 480.845,302.4958 472.4238,336.3858 C471.8974,338.5039 472.7308,334.7497 472.26,336.8189" fill="none" id="c1-to-audio1" style="stroke:#181818;stroke-width:1;"/><polygon fill="#181818" points="470.9288,342.6694,476.8259,334.7812,472.0381,337.794,469.0253,333.0062,470.9288,342.6694" style="stroke:#181818;stroke-width:1;"/><text fill="#000000" font-family="sans-serif" font-size="13" lengthAdjust="spacing" textLength="46.4204" x="526.82" y="252.4566">hasPart</text></g><!--link c1 to csv1--><g class="link" data-entity-1="c1" data-entity-2="csv1" data-source-line="37" data-uid="lnk19" id="link_c1_csv1"><path d="M608.0202,181.3336 C608.088,181.4172 608.1562,181.5013 608.2246,181.5859 C608.3616,181.7551 608.4998,181.9262 608.6393,182.0992 C608.9183,182.4452 609.2022,182.7987 609.4909,183.1595 C610.0683,183.8813 610.6648,184.6324 611.2782,185.4117 C612.5052,186.9704 613.8005,188.6417 615.1484,190.4151 C617.8443,193.9621 620.7509,197.918 623.7438,202.1995 C635.715,219.3258 649.065,241.6633 655.82,263.8883 C724.64,490.2583 754.46,571.5583 678.82,795.7483 C666.12,833.3833 639.275,868.9683 615.285,895.4045 C603.29,908.6227 592.0088,919.5536 583.5663,927.31 C581.4556,929.2491 579.5224,930.9898 577.7998,932.5182 C577.5845,932.7093 577.3725,932.897 577.1638,933.0814 C577.0595,933.1736 581.4562,929.2966 581.3535,929.3871" fill="none" id="c1-to-csv1" style="stroke:#181818;stroke-width:1;"/><polygon fill="#181818" points="576.8533,933.3555,586.2492,930.403,580.6035,930.0485,580.958,924.4027,576.8533,933.3555" style="stroke:#181818;stroke-width:1;"/><text fill="#000000" font-family="sans-serif" font-size="13" lengthAdjust="spacing" textLength="46.4204" x="721.83" y="522.3866">hasPart</text></g><!--reverse link audio1 to csv1--><g class="link" data-entity-1="audio1" data-entity-2="csv1" data-source-line="38" data-uid="lnk21" id="link_audio1_csv1"><path d="M452.9535,490.4483 C452.7952,490.7474 455.1647,486.1707 455.0018,486.4671 C454.676,487.0599 454.341,487.6471 453.9966,488.2283 C451.2417,492.8775 447.8875,497.1408 443.82,500.8183 C383.24,555.5883 132.91,473.5383 77.82,533.8183 C6.78,611.5483 6,693.7383 77.82,770.7483 C149.53,847.6483 472.97,731.9883 549.82,803.7483 C552.5738,806.3195 555.0606,809.0909 557.3029,812.0281 C558.4241,813.4967 559.4841,815.0068 560.4859,816.554 C560.9867,817.3276 561.473,818.1105 561.9451,818.9021 C562.0631,819.1 562.1802,819.2985 562.2964,819.4975" fill="none" id="audio1-backto-csv1" style="stroke:#181818;stroke-width:1;"/><polygon fill="#181818" points="455.7196,485.1239,448.0209,491.2664,453.4146,489.5609,455.12,494.9545,455.7196,485.1239" style="stroke:#181818;stroke-width:1;"/><text fill="#000000" font-family="sans-serif" font-size="13" lengthAdjust="spacing" textLength="112.7852" x="78.82" y="676.3566">ldac:annotationOf</text></g><!--reverse link pdf1 to csv1--><g class="link" data-entity-1="pdf1" data-entity-2="csv1" data-source-line="39" data-uid="lnk23" id="link_pdf1_csv1"><path d="M586.3219,760.4353 C586.1806,760.7544 588.2272,756.053 588.0827,756.3704 C585.7703,761.4483 583.04,766.2958 579.82,770.7483 C575.62,776.5583 569.42,772.5483 565.82,778.7483 C561.3875,786.387 558.0913,794.5906 555.7187,803.1044 C554.5325,807.3613 553.5771,811.6957 552.8262,816.0758 C552.6384,817.1709 552.4635,818.2688 552.3009,819.369" fill="none" id="pdf1-backto-csv1" style="stroke:#181818;stroke-width:1;"/><polygon fill="#181818" points="588.7221,754.9363,581.4558,761.5846,586.7219,759.5188,588.7877,764.7849,588.7221,754.9363" style="stroke:#181818;stroke-width:1;"/><text fill="#000000" font-family="sans-serif" font-size="13" lengthAdjust="spacing" textLength="107.853" x="566.82" y="792.3166">ldac:derivationOf</text></g><!--reverse link s1 to c1--><g class="link" data-entity-1="s1" data-entity-2="c1" data-source-line="41" data-uid="lnk25" id="link_s1_c1"><path d="M313.6712,126.7807 C324.2212,105.6607 337.87,86.7083 360.82,74.5283 C404,51.5983 543.05,43.4883 580.82,74.5283 C584.7625,77.767 588.0419,81.5667 590.7594,85.7514 C591.4388,86.7976 592.0831,87.8678 592.6938,88.9593 C592.8465,89.2322 592.9971,89.5064 593.1456,89.7819 C593.2199,89.9197 593.2936,90.0578 593.3668,90.1962" fill="none" id="s1-backto-c1" style="stroke:#181818;stroke-width:1;"/><polygon fill="#181818" points="310.99,132.1483,318.5903,125.8844,313.2244,127.6753,311.4335,122.3094,310.99,132.1483" style="stroke:#181818;stroke-width:1;"/><text fill="#000000" font-family="sans-serif" font-size="13" lengthAdjust="spacing" textLength="99.4487" x="412.32" y="62.9666">ldac:interviewer</text></g><!--link c1 to s2--><g class="link" data-entity-1="c1" data-entity-2="s2" data-source-line="42" data-uid="lnk26" id="link_c1_s2"><path d="M607.9058,170.6483 C608.0089,170.6483 608.1128,170.6483 608.2176,170.6483 C608.6369,170.6483 609.0701,170.6483 609.5168,170.6483 C610.4103,170.6483 611.358,170.6483 612.3567,170.6483 C614.3539,170.6483 616.555,170.6483 618.9342,170.6483 C628.4509,170.6483 640.8169,170.6483 654.3838,170.6483 C681.5175,170.6483 707.455,170.6483 731.01,170.6483" fill="none" id="c1-to-s2" style="stroke:#181818;stroke-width:1;"/><polygon fill="#181818" points="737.01,170.6483,728.01,166.6483,732.01,170.6483,728.01,174.6483,737.01,170.6483" style="stroke:#181818;stroke-width:1;"/><text fill="#000000" font-family="sans-serif" font-size="13" lengthAdjust="spacing" textLength="101.3721" x="618.28" y="164.2166">ldac:interviewee</text></g><!--link c1 to proobj--><g class="link" data-entity-1="c1" data-entity-2="proobj" data-source-line="43" data-uid="lnk27" id="link_c1_proobj"><path d="M608.0188,160.5549 C608.1045,160.4538 608.1908,160.352 608.2778,160.2496 C608.4517,160.0448 608.628,159.8376 608.8068,159.6279 C609.1645,159.2086 609.532,158.7796 609.9091,158.3414 C610.6634,157.4649 611.4564,156.5514 612.2869,155.6042 C618.9306,148.0264 627.9725,138.2895 638.7825,128.0758 C660.4025,107.6483 689.095,85.3133 719.82,74.5283 C762.59,59.5083 782.52,51.9383 821.82,74.5283 C850.79,91.1783 864.4435,123.4751 871.3735,146.3951" fill="none" id="c1-to-proobj" style="stroke:#181818;stroke-width:1;"/><polygon fill="#181818" points="873.11,152.1383,874.3341,142.3658,871.6629,147.3523,866.6764,144.6811,873.11,152.1383" style="stroke:#181818;stroke-width:1;"/><text fill="#000000" font-family="sans-serif" font-size="13" lengthAdjust="spacing" textLength="75.7656" x="682.32" y="62.9666">conformsTo</text></g><!--SRC=[rPHDRzim38Rl-XL4TgqN94UZC5Qao31WHO8cs0xR3efCfseTIP1afy6m_pvQ_iwoDTSTHRvyIJwMxANFCOQDjuNmXKNG6N05gzqp2W_2Se-CCIwyjZ3P6EGlQ64s0Ux0pSxZype-PynIDLVx767ok8eMbGsihSvaZXFuEKp3kuNESpfBhKAviLfGPAofvsdpUlVCVesQBBGgqJhUkOWPjM70O22wtIKV_CbWV3lT9V28HZj9yvzQSqQc0_bTaKeDop0oEVBgMBa2d9lAjBQirdj_vELtDMxrhJAvWJpb8bvRUU3sz414hEJvZw0D6Q4FXq994PPuq6bJ778RerzGVQQU1TzZNvDBYaZdfVY8oWuhFYbgK4eyzk93qtFR3NPfeg179NHAtajjgQeM1m3JruWMh5YDOQtlbpqgasPNW2BLlq3TAQLzO35WnBlWsH9RovKJLfegTntJhrPwVmdgNpZTKx34z6rEnkHDnodjM1FnuNQDhkpcIqzCkF8AOgIwZjZDnOd_CuuUN_sKLgRBHkJeGKUfFgeegQzN34_ShRdrZ8LpL9WeQHzf36TRhhAXGQTgBGQvy2K6cUhujdUlQeOBchJQjDM49ZbcdaIkayZscQ8D0YltJq4n_rE1GP50ymkCGMYL4J2trOpz1W00]--></g></svg>