<?xml version="1.0" encoding="UTF-8" standalone="no"?><svg xmlns="http://www.w3.org/2000/svg" xmlns:xlink="http://www.w3.org/1999/xlink" contentStyleType="text/css" height="462px" preserveAspectRatio="none" style="width:604px;height:462px;background:#FFFFFF;" version="1.1" viewBox="0 0 604 462" width="604px" zoomAndPan="magnify"><defs/><g><rect fill="none" height="26.4883" id="_title" style="stroke:none;stroke-width:1.0;" width="570" x="10.25" y="5"/><text fill="#000000" font-family="sans-serif" font-size="14" font-weight="bold" lengthAdjust="spacing" textLength="560" x="15.25" y="23.5352">Structure of Collections that conform to the Language Data Commons Profile</text><!--MD5=[87def60d7a75682b67d9fc53ffa937c7]
cluster Language Data Commons RO-Crate Profile Document--><g id="cluster_Language Data Commons RO-Crate Profile Document"><rect fill="none" height="87" rx="2.5" ry="2.5" style="stroke:#181818;stroke-width:1.0;" width="413" x="7" y="44.4883"/><text fill="#000000" font-family="sans-serif" font-size="14" font-weight="bold" lengthAdjust="spacing" textLength="397" x="15" y="60.0234">Language Data Commons RO-Crate Profile Document</text></g><!--MD5=[ba0cc9eb9e469bce5aa4a9a1a8c31be5]
entity procoll--><g id="elem_procoll"><rect fill="#F1F1F1" height="36.4883" rx="2.5" ry="2.5" style="stroke:#181818;stroke-width:0.5;" width="102" x="225" y="79.4883"/><text fill="#000000" font-family="sans-serif" font-size="14" lengthAdjust="spacing" textLength="78" x="239" y="103.0234">#Collection</text></g><!--MD5=[bb4d85b386ce8351b62d77f5e271dc66]
entity proobj--><g id="elem_proobj"><rect fill="#F1F1F1" height="36.4883" rx="2.5" ry="2.5" style="stroke:#181818;stroke-width:0.5;" width="89" x="100.5" y="79.4883"/><text fill="#000000" font-family="sans-serif" font-size="14" lengthAdjust="spacing" textLength="53" x="126.5" y="103.0234">#Object</text></g><!--MD5=[4082e1adf0758e0cb2f286536bd4e6ad]
entity coll--><g id="elem_coll"><rect fill="#F1F1F1" height="36.4883" rx="2.5" ry="2.5" style="stroke:#181818;stroke-width:0.5;" width="89" x="245.5" y="194.4883"/><text fill="#000000" font-family="sans-serif" font-size="14" lengthAdjust="spacing" textLength="69" x="255.5" y="218.0234">Collection</text></g><!--MD5=[ec624eb821821a1089bf1c8c9c4561aa]
entity obj--><g id="elem_obj"><rect fill="#F1F1F1" height="36.4883" rx="2.5" ry="2.5" style="stroke:#181818;stroke-width:0.5;" width="64" x="158" y="307.4883"/><text fill="#000000" font-family="sans-serif" font-size="14" lengthAdjust="spacing" textLength="44" x="168" y="331.0234">Object</text></g><!--MD5=[7edcefaa406c65155265f04249a95b70]
entity file--><g id="elem_file"><rect fill="#F1F1F1" height="36.4883" rx="2.5" ry="2.5" style="stroke:#181818;stroke-width:0.5;" width="44" x="168" y="420.4883"/><text fill="#000000" font-family="sans-serif" font-size="14" lengthAdjust="spacing" textLength="24" x="178" y="444.0234">File</text></g><!--MD5=[223d9d81c826b5045c67e652c17f833d]
link coll to coll--><g id="link_coll_coll"><path d="M334.74,205.0583 C402.63,199.0883 513.5,201.5683 513.5,212.4883 C513.5,223.1383 408.19,225.7583 339.99,220.3483 " fill="none" id="coll-to-coll" style="stroke:#181818;stroke-width:1.0;"/><polygon fill="#181818" points="334.74,219.9183,343.3644,224.6744,339.7216,220.3465,344.0495,216.7038,334.74,219.9183" style="stroke:#181818;stroke-width:1.0;"/><text fill="#000000" font-family="sans-serif" font-size="13" lengthAdjust="spacing" textLength="72" x="519.5" y="217.5566">hasMember</text></g><!--MD5=[223d9d81c826b5045c67e652c17f833d]
link coll to coll--><g id="link_coll_coll"><path d="M334.55,207.2483 C353.42,206.8483 369.5,208.5983 369.5,212.4883 C369.5,216.0183 356.3,217.7783 339.77,217.7883 " fill="none" id="coll-to-coll-1" style="stroke:#181818;stroke-width:1.0;stroke-dasharray:7.0,7.0;"/><polygon fill="#181818" points="334.55,217.7283,343.5037,221.8309,339.5497,217.7854,343.5951,213.8314,334.55,217.7283" style="stroke:#181818;stroke-width:1.0;"/><text fill="#000000" font-family="sans-serif" font-size="13" lengthAdjust="spacing" textLength="132" x="375.5" y="217.5566">memberOf (Optional)</text></g><!--MD5=[2323e6b1f0665e7402e418097ed551a3]
link coll to obj--><g id="link_coll_obj"><path d="M245.28,222.1383 C223.77,228.7883 199.91,240.3983 187,260.4883 C179.14,272.7083 180.09,289.1283 182.89,302.2783 " fill="none" id="coll-to-obj" style="stroke:#181818;stroke-width:1.0;"/><polygon fill="#181818" points="184.1,307.3183,185.9118,297.6375,182.9445,302.4536,178.1283,299.4863,184.1,307.3183" style="stroke:#181818;stroke-width:1.0;"/><text fill="#000000" font-family="sans-serif" font-size="13" lengthAdjust="spacing" textLength="72" x="188" y="274.0566">hasMember</text></g><!--MD5=[60bcbe8125d62bea5105c87cdb884d91]
reverse link coll to obj--><g id="link_coll_obj"><path d="M285.12,235.5883 C281.33,248.8383 275.01,265.4083 265,277.4883 C253.53,291.3383 236.88,302.3383 222.18,310.2083 " fill="none" id="coll-backto-obj" style="stroke:#181818;stroke-width:1.0;stroke-dasharray:7.0,7.0;"/><polygon fill="#181818" points="286.49,230.5083,280.2821,238.1543,285.1865,235.3354,288.0055,240.2398,286.49,230.5083" style="stroke:#181818;stroke-width:1.0;"/><text fill="#000000" font-family="sans-serif" font-size="13" lengthAdjust="spacing" textLength="132" x="276" y="274.0566">memberOf (Optional)</text></g><!--MD5=[a3972a202d3aee799dc78ba9caa00fe3]
reverse link procoll to coll--><g id="link_procoll_coll"><path d="M278.77,120.8883 C281.44,142.4183 285.42,174.5183 287.85,194.1683 " fill="none" id="procoll-backto-coll" style="stroke:#181818;stroke-width:1.0;"/><polygon fill="#181818" points="278.13,115.6483,275.2639,125.0709,278.7432,120.6105,283.2035,124.0898,278.13,115.6483" style="stroke:#181818;stroke-width:1.0;"/><text fill="#000000" font-family="sans-serif" font-size="13" lengthAdjust="spacing" textLength="76" x="284" y="161.0566">conformsTo</text></g><!--MD5=[43301f08bd5990094f237ca086f1180c]
link obj to proobj--><g id="link_obj_proobj"><path d="M180.5,307.4583 C170.8,289.0983 156.31,258.6983 150,230.4883 C141.55,192.7183 142.07,147.3883 143.4,120.8783 " fill="none" id="obj-to-proobj" style="stroke:#181818;stroke-width:1.0;"/><polygon fill="#181818" points="143.68,115.8283,139.1967,124.5975,143.4082,120.8209,147.1848,125.0324,143.68,115.8283" style="stroke:#181818;stroke-width:1.0;"/><text fill="#000000" font-family="sans-serif" font-size="13" lengthAdjust="spacing" textLength="76" x="151" y="217.5566">conformsTo</text></g><!--MD5=[7c46a9323d5c38d9275f9a7dcf8fcb1c]
link obj to file--><g id="link_obj_file"><path d="M190,343.8283 C190,363.0583 190,394.1183 190,415.1483 " fill="none" id="obj-to-file" style="stroke:#181818;stroke-width:1.0;"/><polygon fill="#181818" points="190,420.2683,194,411.2683,190,415.2683,186,411.2683,190,420.2683" style="stroke:#181818;stroke-width:1.0;"/><text fill="#000000" font-family="sans-serif" font-size="13" lengthAdjust="spacing" textLength="46" x="191" y="387.0566">hasPart</text></g><!--MD5=[aeedbb3eaf43574601c3ef7c01845b9a]
@startuml
title: Structure of Collections that conform to the Language Data Commons Profile

rectangle "Language Data Commons RO-Crate Profile Document" {
rectangle " #Collection" as procoll
rectangle "    #Object" as proobj
}


rectangle "Collection" as coll {
}
rectangle "Object" as obj {
}
rectangle "File" as file {
}
coll - - - - -> coll : hasMember
coll .> coll : memberOf (Optional)


coll -down-> obj : hasMember
obj .up.> coll : memberOf (Optional)
coll -up-> procoll : conformsTo
obj -right-> proobj : conformsTo
obj -down-> file : hasPart


@enduml

PlantUML version 1.2022.7(Tue Aug 23 03:01:30 AEST 2022)
(GPL source distribution)
Java Runtime: OpenJDK Runtime Environment
JVM: OpenJDK 64-Bit Server VM
Default Encoding: UTF-8
Language: en
Country: AU
--></g></svg>