<?xml version="1.0" encoding="UTF-8" standalone="no"?><svg xmlns="http://www.w3.org/2000/svg" xmlns:xlink="http://www.w3.org/1999/xlink" contentStyleType="text/css" height="425px" preserveAspectRatio="none" style="width:469px;height:425px;background:#FFFFFF;" version="1.1" viewBox="0 0 469 425" width="469px" zoomAndPan="magnify"><defs/><g><!--MD5=[f143210c1b663efba8790d077233b4c6]
cluster RO-Crate Profile (this document)--><g id="cluster_RO-Crate Profile (this document)"><rect fill="none" height="87" rx="2.5" ry="2.5" style="stroke:#181818;stroke-width:1.0;" width="259" x="7" y="7"/><text fill="#000000" font-family="sans-serif" font-size="14" font-weight="bold" lengthAdjust="spacing" textLength="241" x="16" y="22.5352">RO-Crate Profile (this document)</text></g><!--MD5=[ba0cc9eb9e469bce5aa4a9a1a8c31be5]
entity procoll--><g id="elem_procoll"><rect fill="#F1F1F1" height="36.4883" rx="2.5" ry="2.5" style="stroke:#181818;stroke-width:0.5;" width="102" x="148" y="42"/><text fill="#000000" font-family="sans-serif" font-size="14" lengthAdjust="spacing" textLength="78" x="162" y="65.5352">#Collection</text></g><!--MD5=[bb4d85b386ce8351b62d77f5e271dc66]
entity proobj--><g id="elem_proobj"><rect fill="#F1F1F1" height="36.4883" rx="2.5" ry="2.5" style="stroke:#181818;stroke-width:0.5;" width="89" x="23.5" y="42"/><text fill="#000000" font-family="sans-serif" font-size="14" lengthAdjust="spacing" textLength="53" x="49.5" y="65.5352">#Object</text></g><!--MD5=[4082e1adf0758e0cb2f286536bd4e6ad]
entity coll--><g id="elem_coll"><rect fill="#F1F1F1" height="36.4883" rx="2.5" ry="2.5" style="stroke:#181818;stroke-width:0.5;" width="89" x="168.5" y="157"/><text fill="#000000" font-family="sans-serif" font-size="14" lengthAdjust="spacing" textLength="69" x="178.5" y="180.5352">Collection</text></g><!--MD5=[ec624eb821821a1089bf1c8c9c4561aa]
entity obj--><g id="elem_obj"><rect fill="#F1F1F1" height="36.4883" rx="2.5" ry="2.5" style="stroke:#181818;stroke-width:0.5;" width="64" x="81" y="270"/><text fill="#000000" font-family="sans-serif" font-size="14" lengthAdjust="spacing" textLength="44" x="91" y="293.5352">Object</text></g><!--MD5=[7edcefaa406c65155265f04249a95b70]
entity file--><g id="elem_file"><rect fill="#F1F1F1" height="36.4883" rx="2.5" ry="2.5" style="stroke:#181818;stroke-width:0.5;" width="44" x="91" y="383"/><text fill="#000000" font-family="sans-serif" font-size="14" lengthAdjust="spacing" textLength="24" x="101" y="406.5352">File</text></g><!--MD5=[223d9d81c826b5045c67e652c17f833d]
link coll to coll--><g id="link_coll_coll"><path d="M257.82,166.77 C309.46,161.86 378.5,164.6 378.5,175 C378.5,185.06 313.97,187.95 263.02,183.69 " fill="none" id="coll-to-coll" style="stroke:#181818;stroke-width:1.0;"/><polygon fill="#181818" points="257.82,183.23,266.4308,188.0106,262.8004,183.6724,267.1386,180.042,257.82,183.23" style="stroke:#181818;stroke-width:1.0;"/><text fill="#000000" font-family="sans-serif" font-size="13" lengthAdjust="spacing" textLength="72" x="384.5" y="180.0684">hasMember</text></g><!--MD5=[223d9d81c826b5045c67e652c17f833d]
link coll to coll--><g id="link_coll_coll"><path d="M257.55,169.76 C276.42,169.36 292.5,171.11 292.5,175 C292.5,178.53 279.3,180.29 262.77,180.3 " fill="none" id="coll-to-coll-1" style="stroke:#181818;stroke-width:1.0;"/><polygon fill="#181818" points="257.55,180.24,266.5037,184.3426,262.5497,180.2971,266.5951,176.3431,257.55,180.24" style="stroke:#181818;stroke-width:1.0;"/><text fill="#000000" font-family="sans-serif" font-size="13" lengthAdjust="spacing" textLength="74" x="298.5" y="180.0684">memberOfq</text></g><!--MD5=[2323e6b1f0665e7402e418097ed551a3]
link coll to obj--><g id="link_coll_obj"><path d="M168.28,184.65 C146.77,191.3 122.91,202.91 110,223 C102.14,235.22 103.09,251.64 105.89,264.79 " fill="none" id="coll-to-obj" style="stroke:#181818;stroke-width:1.0;"/><polygon fill="#181818" points="107.1,269.83,108.9118,260.1492,105.9445,264.9654,101.1283,261.9981,107.1,269.83" style="stroke:#181818;stroke-width:1.0;"/><text fill="#000000" font-family="sans-serif" font-size="13" lengthAdjust="spacing" textLength="72" x="111" y="236.5684">hasMember</text></g><!--MD5=[60bcbe8125d62bea5105c87cdb884d91]
reverse link coll to obj--><g id="link_coll_obj"><path d="M208.12,198.1 C204.33,211.35 198.01,227.92 188,240 C176.53,253.85 159.88,264.85 145.18,272.72 " fill="none" id="coll-backto-obj" style="stroke:#181818;stroke-width:1.0;"/><polygon fill="#181818" points="209.49,193.02,203.2821,200.666,208.1865,197.8471,211.0055,202.7516,209.49,193.02" style="stroke:#181818;stroke-width:1.0;"/><text fill="#000000" font-family="sans-serif" font-size="13" lengthAdjust="spacing" textLength="66" x="199" y="236.5684">memberOf</text></g><!--MD5=[a3972a202d3aee799dc78ba9caa00fe3]
reverse link procoll to coll--><g id="link_procoll_coll"><path d="M201.77,83.4 C204.44,104.93 208.42,137.03 210.85,156.68 " fill="none" id="procoll-backto-coll" style="stroke:#181818;stroke-width:1.0;"/><polygon fill="#181818" points="201.13,78.16,198.2639,87.5826,201.7432,83.1223,206.2035,86.6015,201.13,78.16" style="stroke:#181818;stroke-width:1.0;"/><text fill="#000000" font-family="sans-serif" font-size="13" lengthAdjust="spacing" textLength="76" x="207" y="123.5684">conformsTo</text></g><!--MD5=[43301f08bd5990094f237ca086f1180c]
link obj to proobj--><g id="link_obj_proobj"><path d="M103.5,269.97 C93.8,251.61 79.31,221.21 73,193 C64.55,155.23 65.07,109.9 66.4,83.39 " fill="none" id="obj-to-proobj" style="stroke:#181818;stroke-width:1.0;"/><polygon fill="#181818" points="66.68,78.34,62.1967,87.1092,66.4082,83.3326,70.1848,87.5441,66.68,78.34" style="stroke:#181818;stroke-width:1.0;"/><text fill="#000000" font-family="sans-serif" font-size="13" lengthAdjust="spacing" textLength="76" x="74" y="180.0684">conformsTo</text></g><!--MD5=[7c46a9323d5c38d9275f9a7dcf8fcb1c]
link obj to file--><g id="link_obj_file"><path d="M113,306.34 C113,325.57 113,356.63 113,377.66 " fill="none" id="obj-to-file" style="stroke:#181818;stroke-width:1.0;"/><polygon fill="#181818" points="113,382.78,117,373.78,113,377.78,109,373.78,113,382.78" style="stroke:#181818;stroke-width:1.0;"/><text fill="#000000" font-family="sans-serif" font-size="13" lengthAdjust="spacing" textLength="46" x="114" y="349.5684">hasPart</text></g><!--MD5=[aed93601ecf1aeb1ec974820994158ee]
@startuml

rectangle "RO-Crate Profile (this document)" {
rectangle " #Collection" as procoll
rectangle "    #Object" as proobj
}


rectangle "Collection" as coll {
}
rectangle "Object" as obj {
}
rectangle "File" as file {
}
coll - - - - -> coll : hasMember
coll -> coll : memberOfq


coll -down-> obj : hasMember
obj -up-> coll : memberOf
coll -up-> procoll : conformsTo
obj -right-> proobj : conformsTo
obj -down-> file : hasPart


@enduml

PlantUML version 1.2022.7(Tue Aug 23 03:01:30 AEST 2022)
(GPL source distribution)
Java Runtime: OpenJDK Runtime Environment
JVM: OpenJDK 64-Bit Server VM
Default Encoding: UTF-8
Language: en
Country: AU
--></g></svg>