<svg xmlns="http://www.w3.org/2000/svg" xmlns:xlink="http://www.w3.org/1999/xlink" contentStyleType="text/css" data-diagram-type="DESCRIPTION" height="464px" preserveAspectRatio="none" style="width:682px;height:464px;background:#FFFFFF;" version="1.1" viewBox="0 0 682 464" width="682px" zoomAndPan="magnify"><title>Structure of Collections that conform to the Language Data Commons Profile</title><defs/><g><text fill="#000000" font-family="sans-serif" font-size="14" font-weight="bold" lengthAdjust="spacing" textLength="555.7139" x="56.357" y="23.5352">Structure of Collections that conform to the Language Data Commons Profile</text><!--cluster Language Data Commons RO-Crate Profile Document--><g class="cluster" data-entity="Language Data Commons RO-Crate Profile Document" data-source-line="4" data-uid="ent0002" id="cluster_Language Data Commons RO-Crate Profile Document"><rect fill="none" height="87.49" rx="2.5" ry="2.5" style="stroke:#181818;stroke-width:1;" width="403" x="7" y="44.4883"/><text fill="#000000" font-family="sans-serif" font-size="14" font-weight="bold" lengthAdjust="spacing" textLength="387.0029" x="14.9985" y="60.0234">Language Data Commons RO-Crate Profile Document</text></g><!--entity procoll--><g class="entity" data-entity="procoll" data-source-line="5" data-uid="ent0003" id="entity_procoll"><rect fill="#F1F1F1" height="36.4883" rx="2.5" ry="2.5" style="stroke:#181818;stroke-width:0.5;" width="101.2041" x="213.4" y="79.4883"/><text fill="#000000" font-family="sans-serif" font-size="14" lengthAdjust="spacing" textLength="76.7744" x="227.8297" y="103.0234">#Collection</text></g><!--entity proobj--><g class="entity" data-entity="proobj" data-source-line="6" data-uid="ent0004" id="entity_proobj"><rect fill="#F1F1F1" height="36.4883" rx="2.5" ry="2.5" style="stroke:#181818;stroke-width:0.5;" width="77.4355" x="101.28" y="79.4883"/><text fill="#000000" font-family="sans-serif" font-size="14" lengthAdjust="spacing" textLength="53.0059" x="115.7097" y="103.0234">#Object</text></g><!--entity coll--><g class="entity" data-entity="coll" data-source-line="10" data-uid="ent0005" id="entity_coll"><rect fill="#F1F1F1" height="36.4883" rx="2.5" ry="2.5" style="stroke:#181818;stroke-width:0.5;" width="87.9219" x="244.04" y="194.9783"/><text fill="#000000" font-family="sans-serif" font-size="14" lengthAdjust="spacing" textLength="67.9219" x="254.04" y="218.5134">Collection</text></g><!--entity obj--><g class="entity" data-entity="obj" data-source-line="12" data-uid="ent0006" id="entity_obj"><rect fill="#F1F1F1" height="36.4883" rx="2.5" ry="2.5" style="stroke:#181818;stroke-width:0.5;" width="64.1533" x="157.92" y="308.4583"/><text fill="#000000" font-family="sans-serif" font-size="14" lengthAdjust="spacing" textLength="44.1533" x="167.92" y="331.9934">Object</text></g><!--entity file--><g class="entity" data-entity="file" data-source-line="14" data-uid="ent0007" id="entity_file"><rect fill="#F1F1F1" height="36.4883" rx="2.5" ry="2.5" style="stroke:#181818;stroke-width:0.5;" width="43.3994" x="168.3" y="421.9483"/><text fill="#000000" font-family="sans-serif" font-size="14" lengthAdjust="spacing" textLength="23.3994" x="178.3" y="445.4834">File</text></g><!--link coll to coll--><g class="link" data-entity-1="coll" data-entity-2="coll" data-source-line="16" data-uid="lnk8" id="link_coll_coll"><path d="M332.27,206.2083 C409.85,199.6483 550.96,201.9783 550.96,213.2183 C550.96,224.4483 415.8287,227.2938 338.2487,220.7338" fill="none" id="coll-to-coll" style="stroke:#181818;stroke-width:1;"/><polygon fill="#181818" points="332.27,220.2283,340.901,224.9724,337.2522,220.6496,341.575,217.0008,332.27,220.2283" style="stroke:#181818;stroke-width:1;"/><text fill="#000000" font-family="sans-serif" font-size="13" lengthAdjust="spacing" textLength="112.4678" x="556.96" y="218.2866">pcdm:hasMember</text></g><!--link coll to coll--><g class="link" data-entity-1="coll" data-entity-2="coll" data-source-line="17" data-uid="lnk9" id="link_coll_coll"><path d="M332.25,207.9483 C350.99,207.5583 366.96,209.3083 366.96,213.2183 C366.96,217.1283 356.9886,219.0063 338.2486,218.6063" fill="none" id="coll-to-coll-1" style="stroke:#181818;stroke-width:1;stroke-dasharray:7.0,7.0;"/><polygon fill="#181818" points="332.25,218.4783,341.1626,222.6694,337.2489,218.585,341.3333,214.6713,332.25,218.4783" style="stroke:#181818;stroke-width:1;"/><text fill="#000000" font-family="sans-serif" font-size="13" lengthAdjust="spacing" textLength="172.8721" x="372.96" y="218.2866">pcdm:memberOf (Optional)</text></g><!--link coll to obj--><g class="link" data-entity-1="coll" data-entity-2="obj" data-source-line="20" data-uid="lnk10" id="link_coll_obj"><path d="M243.59,223.3683 C222.63,230.1583 199.52,241.7783 187,261.4583 C178.19,275.3083 178.9932,288.628 182.5432,302.408" fill="none" id="coll-to-obj" style="stroke:#181818;stroke-width:1;"/><polygon fill="#181818" points="184.04,308.2183,185.6683,298.505,182.7926,303.3764,177.9212,300.5007,184.04,308.2183" style="stroke:#181818;stroke-width:1;"/><text fill="#000000" font-family="sans-serif" font-size="13" lengthAdjust="spacing" textLength="112.4678" x="188" y="275.0266">pcdm:hasMember</text></g><!--reverse link coll to obj--><g class="link" data-entity-1="coll" data-entity-2="obj" data-source-line="21" data-uid="lnk12" id="link_coll_obj"><path d="M302.8297,237.1 C310.4497,250.78 314.38,264.4683 305,278.4583 C286.73,305.7183 249.62,317.2583 222.47,322.1383" fill="none" id="coll-backto-obj" style="stroke:#181818;stroke-width:1;stroke-dasharray:7.0,7.0;"/><polygon fill="#181818" points="299.91,231.8583,300.7951,241.6673,302.3431,236.2264,307.784,237.7743,299.91,231.8583" style="stroke:#181818;stroke-width:1;"/><text fill="#000000" font-family="sans-serif" font-size="13" lengthAdjust="spacing" textLength="172.8721" x="310.55" y="275.0266">pcdm:memberOf (Optional)</text></g><!--reverse link procoll to coll--><g class="link" data-entity-1="procoll" data-entity-2="coll" data-source-line="22" data-uid="lnk14" id="link_procoll_coll"><path d="M268.9918,122.3284 C273.5018,143.6484 279.78,173.3483 284.28,194.6083" fill="none" id="procoll-backto-coll" style="stroke:#181818;stroke-width:1;"/><polygon fill="#181818" points="267.75,116.4583,265.6992,126.0913,268.7848,121.35,273.526,124.4356,267.75,116.4583" style="stroke:#181818;stroke-width:1;"/><text fill="#000000" font-family="sans-serif" font-size="13" lengthAdjust="spacing" textLength="75.7656" x="278.44" y="161.5466">conformsTo</text></g><!--link obj to proobj--><g class="link" data-entity-1="obj" data-entity-2="proobj" data-source-line="23" data-uid="lnk15" id="link_obj_proobj"><path d="M180.53,308.2383 C171.01,289.7483 156.8,259.4383 150,231.4583 C140.18,191.0383 139.1622,147.8379 139.4522,122.1879" fill="none" id="obj-to-proobj" style="stroke:#181818;stroke-width:1;"/><polygon fill="#181818" points="139.52,116.1883,135.4185,125.1425,139.4635,121.188,143.418,125.2329,139.52,116.1883" style="stroke:#181818;stroke-width:1;"/><text fill="#000000" font-family="sans-serif" font-size="13" lengthAdjust="spacing" textLength="75.7656" x="151" y="218.2866">conformsTo</text></g><!--link obj to file--><g class="link" data-entity-1="obj" data-entity-2="file" data-source-line="24" data-uid="lnk16" id="link_obj_file"><path d="M190,345.1283 C190,365.9483 190,394.5983 190,415.5283" fill="none" id="obj-to-file" style="stroke:#181818;stroke-width:1;"/><polygon fill="#181818" points="190,421.5283,194,412.5283,190,416.5283,186,412.5283,190,421.5283" style="stroke:#181818;stroke-width:1;"/><text fill="#000000" font-family="sans-serif" font-size="13" lengthAdjust="spacing" textLength="46.4204" x="191" y="388.5166">hasPart</text></g><!--SRC=[ZP4zRiCm34PtdO9mbtP83k2XIu9EBHoalO2iq3-1P1eoXGv5xbvASb3RxL1lqlVu-DdcdYsMyCu-60uUWHeuaBLekATX0kuqWw6X8U-0ISu8htfeWsuHZfgrqCv5ykIfwIqgvMLM28jG_4sUgzt1QyRx21p918S35_2rd8Q7doO5w0b6JqPkranLN-Lupwc-gfjQbTX8ea7st9R8mY62RVeY7LEMoiOmENRnUSw-4aPpSMMdfpTqDVfCxDUfIr7Lm6CrnZhQFadJxBhGvo2okFsNArxkm_WFMtQ5KKppjn9w_dlJ1oNJplTjnvd8wxR0t2MzRGdIuwGzA_KD]--></g></svg>