<?xml version="1.0" encoding="UTF-8" standalone="no"?><svg xmlns="http://www.w3.org/2000/svg" xmlns:xlink="http://www.w3.org/1999/xlink" contentStyleType="text/css" height="462px" preserveAspectRatio="none" style="width:588px;height:462px;background:#FFFFFF;" version="1.1" viewBox="0 0 588 462" width="588px" zoomAndPan="magnify"><defs/><g><rect fill="none" height="26.4883" id="_title" style="stroke:none;stroke-width:1.0;" width="570" x="5" y="5"/><text fill="#000000" font-family="sans-serif" font-size="14" font-weight="bold" lengthAdjust="spacing" textLength="560" x="10" y="23.5352">Structure of Collections that conform to the Language Data Commons Profile</text><!--MD5=[87def60d7a75682b67d9fc53ffa937c7]
cluster Lanaguage Data Commons RO-Crate Profile Document--><g id="cluster_Lanaguage Data Commons RO-Crate Profile Document"><rect fill="none" height="87" rx="2.5" ry="2.5" style="stroke:#181818;stroke-width:1.0;" width="413" x="30.75" y="44.4883"/><text fill="#000000" font-family="sans-serif" font-size="14" font-weight="bold" lengthAdjust="spacing" textLength="397" x="38.75" y="60.0234">Lanaguage Data Commons RO-Crate Profile Document</text></g><!--MD5=[ba0cc9eb9e469bce5aa4a9a1a8c31be5]
entity procoll--><g id="elem_procoll"><rect fill="#F1F1F1" height="36.4883" rx="2.5" ry="2.5" style="stroke:#181818;stroke-width:0.5;" width="102" x="248.75" y="79.4883"/><text fill="#000000" font-family="sans-serif" font-size="14" lengthAdjust="spacing" textLength="78" x="262.75" y="103.0234">#Collection</text></g><!--MD5=[bb4d85b386ce8351b62d77f5e271dc66]
entity proobj--><g id="elem_proobj"><rect fill="#F1F1F1" height="36.4883" rx="2.5" ry="2.5" style="stroke:#181818;stroke-width:0.5;" width="89" x="124.25" y="79.4883"/><text fill="#000000" font-family="sans-serif" font-size="14" lengthAdjust="spacing" textLength="53" x="150.25" y="103.0234">#Object</text></g><!--MD5=[4082e1adf0758e0cb2f286536bd4e6ad]
entity coll--><g id="elem_coll"><rect fill="#F1F1F1" height="36.4883" rx="2.5" ry="2.5" style="stroke:#181818;stroke-width:0.5;" width="89" x="269.25" y="194.4883"/><text fill="#000000" font-family="sans-serif" font-size="14" lengthAdjust="spacing" textLength="69" x="279.25" y="218.0234">Collection</text></g><!--MD5=[ec624eb821821a1089bf1c8c9c4561aa]
entity obj--><g id="elem_obj"><rect fill="#F1F1F1" height="36.4883" rx="2.5" ry="2.5" style="stroke:#181818;stroke-width:0.5;" width="64" x="181.75" y="307.4883"/><text fill="#000000" font-family="sans-serif" font-size="14" lengthAdjust="spacing" textLength="44" x="191.75" y="331.0234">Object</text></g><!--MD5=[7edcefaa406c65155265f04249a95b70]
entity file--><g id="elem_file"><rect fill="#F1F1F1" height="36.4883" rx="2.5" ry="2.5" style="stroke:#181818;stroke-width:0.5;" width="44" x="191.75" y="420.4883"/><text fill="#000000" font-family="sans-serif" font-size="14" lengthAdjust="spacing" textLength="24" x="201.75" y="444.0234">File</text></g><!--MD5=[223d9d81c826b5045c67e652c17f833d]
link coll to coll--><g id="link_coll_coll"><path d="M358.57,204.2583 C410.21,199.3483 479.25,202.0883 479.25,212.4883 C479.25,222.5483 414.72,225.4383 363.77,221.1783 " fill="none" id="coll-to-coll" style="stroke:#181818;stroke-width:1.0;"/><polygon fill="#181818" points="358.57,220.7183,367.1808,225.4989,363.5504,221.1607,367.8886,217.5303,358.57,220.7183" style="stroke:#181818;stroke-width:1.0;"/><text fill="#000000" font-family="sans-serif" font-size="13" lengthAdjust="spacing" textLength="72" x="485.25" y="217.5566">hasMember</text></g><!--MD5=[223d9d81c826b5045c67e652c17f833d]
link coll to coll--><g id="link_coll_coll"><path d="M358.3,207.2483 C377.17,206.8483 393.25,208.5983 393.25,212.4883 C393.25,216.0183 380.05,217.7783 363.52,217.7883 " fill="none" id="coll-to-coll-1" style="stroke:#181818;stroke-width:1.0;"/><polygon fill="#181818" points="358.3,217.7283,367.2537,221.8309,363.2997,217.7854,367.3451,213.8314,358.3,217.7283" style="stroke:#181818;stroke-width:1.0;"/><text fill="#000000" font-family="sans-serif" font-size="13" lengthAdjust="spacing" textLength="74" x="399.25" y="217.5566">memberOfq</text></g><!--MD5=[2323e6b1f0665e7402e418097ed551a3]
link coll to obj--><g id="link_coll_obj"><path d="M269.03,222.1383 C247.52,228.7883 223.66,240.3983 210.75,260.4883 C202.89,272.7083 203.84,289.1283 206.64,302.2783 " fill="none" id="coll-to-obj" style="stroke:#181818;stroke-width:1.0;"/><polygon fill="#181818" points="207.85,307.3183,209.6618,297.6375,206.6945,302.4536,201.8783,299.4863,207.85,307.3183" style="stroke:#181818;stroke-width:1.0;"/><text fill="#000000" font-family="sans-serif" font-size="13" lengthAdjust="spacing" textLength="72" x="211.75" y="274.0566">hasMember</text></g><!--MD5=[60bcbe8125d62bea5105c87cdb884d91]
reverse link coll to obj--><g id="link_coll_obj"><path d="M308.87,235.5883 C305.08,248.8383 298.76,265.4083 288.75,277.4883 C277.28,291.3383 260.63,302.3383 245.93,310.2083 " fill="none" id="coll-backto-obj" style="stroke:#181818;stroke-width:1.0;"/><polygon fill="#181818" points="310.24,230.5083,304.0321,238.1543,308.9365,235.3354,311.7555,240.2398,310.24,230.5083" style="stroke:#181818;stroke-width:1.0;"/><text fill="#000000" font-family="sans-serif" font-size="13" lengthAdjust="spacing" textLength="66" x="299.75" y="274.0566">memberOf</text></g><!--MD5=[a3972a202d3aee799dc78ba9caa00fe3]
reverse link procoll to coll--><g id="link_procoll_coll"><path d="M302.52,120.8883 C305.19,142.4183 309.17,174.5183 311.6,194.1683 " fill="none" id="procoll-backto-coll" style="stroke:#181818;stroke-width:1.0;"/><polygon fill="#181818" points="301.88,115.6483,299.0139,125.0709,302.4932,120.6105,306.9535,124.0898,301.88,115.6483" style="stroke:#181818;stroke-width:1.0;"/><text fill="#000000" font-family="sans-serif" font-size="13" lengthAdjust="spacing" textLength="76" x="307.75" y="161.0566">conformsTo</text></g><!--MD5=[43301f08bd5990094f237ca086f1180c]
link obj to proobj--><g id="link_obj_proobj"><path d="M204.25,307.4583 C194.55,289.0983 180.06,258.6983 173.75,230.4883 C165.3,192.7183 165.82,147.3883 167.15,120.8783 " fill="none" id="obj-to-proobj" style="stroke:#181818;stroke-width:1.0;"/><polygon fill="#181818" points="167.43,115.8283,162.9467,124.5975,167.1582,120.8209,170.9348,125.0324,167.43,115.8283" style="stroke:#181818;stroke-width:1.0;"/><text fill="#000000" font-family="sans-serif" font-size="13" lengthAdjust="spacing" textLength="76" x="174.75" y="217.5566">conformsTo</text></g><!--MD5=[7c46a9323d5c38d9275f9a7dcf8fcb1c]
link obj to file--><g id="link_obj_file"><path d="M213.75,343.8283 C213.75,363.0583 213.75,394.1183 213.75,415.1483 " fill="none" id="obj-to-file" style="stroke:#181818;stroke-width:1.0;"/><polygon fill="#181818" points="213.75,420.2683,217.75,411.2683,213.75,415.2683,209.75,411.2683,213.75,420.2683" style="stroke:#181818;stroke-width:1.0;"/><text fill="#000000" font-family="sans-serif" font-size="13" lengthAdjust="spacing" textLength="46" x="214.75" y="387.0566">hasPart</text></g><!--MD5=[19d2a6885fe35c7a24fca72c18ffe75c]
@startuml
title: Structure of Collections that conform to the Language Data Commons Profile

rectangle "Lanaguage Data Commons RO-Crate Profile Document" {
rectangle " #Collection" as procoll
rectangle "    #Object" as proobj
}


rectangle "Collection" as coll {
}
rectangle "Object" as obj {
}
rectangle "File" as file {
}
coll - - - - -> coll : hasMember
coll -> coll : memberOfq


coll -down-> obj : hasMember
obj -up-> coll : memberOf
coll -up-> procoll : conformsTo
obj -right-> proobj : conformsTo
obj -down-> file : hasPart


@enduml

PlantUML version 1.2022.7(Tue Aug 23 03:01:30 AEST 2022)
(GPL source distribution)
Java Runtime: OpenJDK Runtime Environment
JVM: OpenJDK 64-Bit Server VM
Default Encoding: UTF-8
Language: en
Country: AU
--></g></svg>