<svg xmlns="http://www.w3.org/2000/svg" xmlns:xlink="http://www.w3.org/1999/xlink" contentStyleType="text/css" data-diagram-type="DESCRIPTION" height="678px" preserveAspectRatio="none" style="width:959px;height:678px;background:#FFFFFF;" version="1.1" viewBox="0 0 959 678" width="959px" zoomAndPan="magnify"><title>Distributed crate with links to Object crates</title><defs/><g><g class="title" data-source-line="2"><text fill="#000000" font-family="sans-serif" font-size="14" font-weight="bold" lengthAdjust="spacing" textLength="317.2148" x="314.2429" y="23.5352">Distributed crate with links to Object crates</text></g><!--cluster mc--><g class="cluster" data-entity="mc" data-source-line="3" data-uid="ent0002" id="cluster_mc"><path d="M261.5,43.4883 L386.9277,43.4883 A3.75,3.75 0 0 1 389.4277,45.9883 L396.4277,65.9766 L568.5,65.9766 A2.5,2.5 0 0 1 571,68.4766 L571,144.9683 A2.5,2.5 0 0 1 568.5,147.4683 L261.5,147.4683 A2.5,2.5 0 0 1 259,144.9683 L259,45.9883 A2.5,2.5 0 0 1 261.5,43.4883" fill="none" style="stroke:#000000;stroke-width:1.5;"/><line style="stroke:#000000;stroke-width:1.5;" x1="259" x2="396.4277" y1="65.9766" y2="65.9766"/><text fill="#000000" font-family="sans-serif" font-size="14" font-weight="bold" lengthAdjust="spacing" textLength="124.4277" x="263" y="59.0234">name: My Corpus</text></g><!--cluster cAc--><g class="cluster" data-entity="cAc" data-source-line="9" data-uid="ent0004" id="cluster_cAc"><path d="M63.5,211.2583 L228.1045,211.2583 A3.75,3.75 0 0 1 230.6045,213.7583 L237.6045,233.7466 L376.5,233.7466 A2.5,2.5 0 0 1 379,236.2466 L379,312.7283 A2.5,2.5 0 0 1 376.5,315.2283 L63.5,315.2283 A2.5,2.5 0 0 1 61,312.7283 L61,213.7583 A2.5,2.5 0 0 1 63.5,211.2583" fill="none" style="stroke:#000000;stroke-width:1.5;"/><line style="stroke:#000000;stroke-width:1.5;" x1="61" x2="237.6045" y1="233.7466" y2="233.7466"/><text fill="#000000" font-family="sans-serif" font-size="14" font-weight="bold" lengthAdjust="spacing" textLength="163.6045" x="65" y="226.7934">RO-Crate: Collection A</text></g><!--cluster cBc--><g class="cluster" data-entity="cBc" data-source-line="18" data-uid="ent0006" id="cluster_cBc"><path d="M405.5,211.2583 L568.6143,211.2583 A3.75,3.75 0 0 1 571.1143,213.7583 L578.1143,233.7466 L718.5,233.7466 A2.5,2.5 0 0 1 721,236.2466 L721,312.7283 A2.5,2.5 0 0 1 718.5,315.2283 L405.5,315.2283 A2.5,2.5 0 0 1 403,312.7283 L403,213.7583 A2.5,2.5 0 0 1 405.5,211.2583" fill="none" style="stroke:#000000;stroke-width:1.5;"/><line style="stroke:#000000;stroke-width:1.5;" x1="403" x2="578.1143" y1="233.7466" y2="233.7466"/><text fill="#000000" font-family="sans-serif" font-size="14" font-weight="bold" lengthAdjust="spacing" textLength="162.1143" x="407" y="226.7934">RO-Crate: Collection B</text></g><!--cluster ec2--><g class="cluster" data-entity="ec2" data-source-line="27" data-uid="ent0008" id="cluster_ec2"><path d="M8.5,372.2283 L176.4473,372.2283 A3.75,3.75 0 0 1 178.9473,374.7283 L185.9473,394.7166 L714.5,394.7166 A2.5,2.5 0 0 1 717,397.2166 L717,669.1483 A2.5,2.5 0 0 1 714.5,671.6483 L8.5,671.6483 A2.5,2.5 0 0 1 6,669.1483 L6,374.7283 A2.5,2.5 0 0 1 8.5,372.2283" fill="none" style="stroke:#000000;stroke-width:1.5;"/><line style="stroke:#000000;stroke-width:1.5;" x1="6" x2="185.9473" y1="394.7166" y2="394.7166"/><text fill="#000000" font-family="sans-serif" font-size="14" font-weight="bold" lengthAdjust="spacing" textLength="166.9473" x="10" y="387.7634">RO-Crate: Interview #1</text></g><!--entity cc--><g class="entity" data-entity="cc" data-source-line="4" data-uid="ent0003" id="entity_cc"><rect fill="#F1F1F1" height="52.9766" rx="2.5" ry="2.5" style="stroke:#181818;stroke-width:0.5;" width="280.5928" x="274.7" y="78.4883"/><text fill="#000000" font-family="sans-serif" font-size="14" font-weight="bold" lengthAdjust="spacing" textLength="46.792" x="284.7" y="102.0234">@type:</text><text fill="#000000" font-family="sans-serif" font-size="14" lengthAdjust="spacing" textLength="209.3711" x="335.9217" y="102.0234">[Dataset, RepositoryCollection]</text><text fill="#000000" font-family="sans-serif" font-size="14" font-weight="bold" lengthAdjust="spacing" textLength="90.248" x="284.7" y="118.5117">conformsTo:</text><text fill="#000000" font-family="sans-serif" font-size="14" lengthAdjust="spacing" textLength="88.5459" x="379.3777" y="118.5117">./#Collection</text></g><!--entity ca--><g class="entity" data-entity="ca" data-source-line="11" data-uid="ent0005" id="entity_ca"><rect fill="#F1F1F1" height="52.9766" rx="2.5" ry="2.5" style="stroke:#181818;stroke-width:0.5;" width="285.0225" x="77.49" y="246.2583"/><text fill="#000000" font-family="sans-serif" font-size="14" font-weight="bold" lengthAdjust="spacing" textLength="46.792" x="87.49" y="269.7934">@type:</text><text fill="#000000" font-family="sans-serif" font-size="14" lengthAdjust="spacing" textLength="209.3711" x="143.1414" y="269.7934">[Dataset, RepositoryCollection]</text><text fill="#000000" font-family="sans-serif" font-size="14" font-weight="bold" lengthAdjust="spacing" textLength="90.248" x="87.49" y="286.2817">conformsTo:</text><text fill="#000000" font-family="sans-serif" font-size="14" lengthAdjust="spacing" textLength="88.5459" x="182.1677" y="286.2817">./#Collection</text></g><!--entity cb--><g class="entity" data-entity="cb" data-source-line="20" data-uid="ent0007" id="entity_cb"><rect fill="#F1F1F1" height="52.9766" rx="2.5" ry="2.5" style="stroke:#181818;stroke-width:0.5;" width="285.0225" x="419.49" y="246.2583"/><text fill="#000000" font-family="sans-serif" font-size="14" font-weight="bold" lengthAdjust="spacing" textLength="46.792" x="429.49" y="269.7934">@type:</text><text fill="#000000" font-family="sans-serif" font-size="14" lengthAdjust="spacing" textLength="209.3711" x="485.1414" y="269.7934">[Dataset, RepositoryCollection]</text><text fill="#000000" font-family="sans-serif" font-size="14" font-weight="bold" lengthAdjust="spacing" textLength="90.248" x="429.49" y="286.2817">conformsTo:</text><text fill="#000000" font-family="sans-serif" font-size="14" lengthAdjust="spacing" textLength="88.5459" x="524.1677" y="286.2817">./#Collection</text></g><!--entity ea1--><g class="entity" data-entity="ea1" data-source-line="32" data-uid="ent0010" id="entity_ea1"><rect fill="#F1F1F1" height="69.4648" rx="2.5" ry="2.5" style="stroke:#181818;stroke-width:0.5;" width="357.8936" x="30.05" y="578.1883"/><text fill="#000000" font-family="sans-serif" font-size="14" font-weight="bold" lengthAdjust="spacing" textLength="28.8066" x="40.05" y="601.7234">File:</text><text fill="#000000" font-family="sans-serif" font-size="14" lengthAdjust="spacing" textLength="112.4443" x="73.2863" y="601.7234">files/audio1.wav</text><text fill="#000000" font-family="sans-serif" font-size="14" font-weight="bold" lengthAdjust="spacing" textLength="131.1133" x="40.05" y="618.2117">ldac:materialType:</text><text fill="#000000" font-family="sans-serif" font-size="14" lengthAdjust="spacing" textLength="137.9287" x="175.593" y="618.2117">ldac:PrimaryMaterial</text><text fill="#000000" font-family="sans-serif" font-size="14" font-weight="bold" lengthAdjust="spacing" textLength="186.0879" x="40.05" y="634.7">ldac:communicationMode:</text><text fill="#000000" font-family="sans-serif" font-size="14" lengthAdjust="spacing" textLength="147.376" x="230.5676" y="634.7">ldac:SpokenLanguage</text></g><!--entity ecsv1--><g class="entity" data-entity="ecsv1" data-source-line="33" data-uid="ent0011" id="entity_ecsv1"><rect fill="#F1F1F1" height="52.9766" rx="2.5" ry="2.5" style="stroke:#181818;stroke-width:0.5;" width="262.9082" x="422.55" y="586.4283"/><text fill="#000000" font-family="sans-serif" font-size="14" font-weight="bold" lengthAdjust="spacing" textLength="28.8066" x="432.55" y="609.9634">File:</text><text fill="#000000" font-family="sans-serif" font-size="14" lengthAdjust="spacing" textLength="91.9092" x="465.7863" y="609.9634">files/csv1.csv</text><text fill="#000000" font-family="sans-serif" font-size="14" font-weight="bold" lengthAdjust="spacing" textLength="131.1133" x="432.55" y="626.4517">ldac:materialType:</text><text fill="#000000" font-family="sans-serif" font-size="14" lengthAdjust="spacing" textLength="107.3652" x="568.093" y="626.4517">ldac:Annotation</text></g><!--entity eo1--><g class="entity" data-entity="eo1" data-source-line="28" data-uid="ent0009" id="entity_eo1"><rect fill="#F1F1F1" height="85.9531" rx="2.5" ry="2.5" style="stroke:#181818;stroke-width:0.5;" width="345.6094" x="47.2" y="415.2283"/><text fill="#000000" font-family="sans-serif" font-size="14" font-weight="bold" lengthAdjust="spacing" textLength="46.792" x="57.2" y="438.7634">@type:</text><text fill="#000000" font-family="sans-serif" font-size="14" lengthAdjust="spacing" textLength="116.2793" x="108.4217" y="438.7634">RepositoryObject</text><text fill="#000000" font-family="sans-serif" font-size="14" font-weight="bold" lengthAdjust="spacing" textLength="90.248" x="57.2" y="455.2517">conformsTo:</text><text fill="#000000" font-family="sans-serif" font-size="14" lengthAdjust="spacing" textLength="64.7773" x="151.8777" y="455.2517">./#Object</text><text fill="#000000" font-family="sans-serif" font-size="14" font-weight="bold" lengthAdjust="spacing" textLength="181.5352" x="57.2" y="471.74">ldac:communcationMode:</text><text fill="#000000" font-family="sans-serif" font-size="14" lengthAdjust="spacing" textLength="139.6445" x="243.1648" y="471.74">ldac:SpokenLanguge</text><text fill="#000000" font-family="sans-serif" font-size="14" font-weight="bold" lengthAdjust="spacing" textLength="145.708" x="57.2" y="488.2283">ldac:linguisticGenre:</text><text fill="#000000" font-family="sans-serif" font-size="14" lengthAdjust="spacing" textLength="93.5566" x="207.3377" y="488.2283">ldac:Interview</text></g><g class="entity" data-entity="GMN20" data-source-line="48" data-uid="ent0021" id="entity_GMN20"><path d="M590.14,61.6983 L590.14,100.9783 L555.71,104.9783 L590.14,108.9783 L590.14,148.251 A0,0 0 0 0 590.14,148.251 L903.8622,148.251 A0,0 0 0 0 903.8622,148.251 L903.8622,71.6983 L893.8622,61.6983 L590.14,61.6983 A0,0 0 0 0 590.14,61.6983" fill="#FEFFDD" style="stroke:#181818;stroke-width:0.5;"/><path d="M893.8622,61.6983 L893.8622,71.6983 L903.8622,71.6983 L893.8622,61.6983" fill="#FEFFDD" style="stroke:#181818;stroke-width:0.5;"/><text fill="#000000" font-family="sans-serif" font-size="13" lengthAdjust="spacing" textLength="138.271" x="596.14" y="79.2666">Repository Collection:</text><text fill="#000000" font-family="sans-serif" font-size="13" lengthAdjust="spacing" textLength="233.3652" x="596.14" y="94.5772">- MUST contain descriptive metadata</text><text fill="#000000" font-family="sans-serif" font-size="13" lengthAdjust="spacing" textLength="156.876" x="604.3666" y="109.8877">for the corpus/collection</text><text fill="#000000" font-family="sans-serif" font-size="13" lengthAdjust="spacing" textLength="292.7222" x="596.14" y="125.1983">- MAY contain pcdm:hasMember relationships</text><text fill="#000000" font-family="sans-serif" font-size="13" lengthAdjust="spacing" textLength="216.4424" x="604.3666" y="140.5088">listing child Collections or Objects</text></g><g class="entity" data-entity="GMN23" data-source-line="51" data-uid="ent0024" id="entity_GMN23"><path d="M741.29,600.2583 L741.29,625.5688 L952.7006,625.5688 L952.7006,610.2583 L942.7006,600.2583 L741.29,600.2583" fill="#FEFFDD" style="stroke:#181818;stroke-width:0.5;"/><path d="M942.7006,600.2583 L942.7006,610.2583 L952.7006,610.2583 L942.7006,600.2583" fill="#FEFFDD" style="stroke:#181818;stroke-width:1;"/><text fill="#000000" font-family="sans-serif" font-size="13" lengthAdjust="spacing" textLength="190.4106" x="747.29" y="617.8266">Individual object with file data</text></g><!--link eo1 to ea1--><g class="link" data-entity-1="eo1" data-entity-2="ea1" data-source-line="41" data-uid="lnk12" id="link_eo1_ea1"><path d="M216.97,501.3383 C215.22,525.5283 213.4911,549.5138 211.8611,572.1438" fill="none" id="eo1-to-ea1" style="stroke:#181818;stroke-width:1;"/><polygon fill="#181818" points="211.43,578.1283,216.0662,569.4389,211.7892,573.1412,208.0869,568.8642,211.43,578.1283" style="stroke:#181818;stroke-width:1;"/><text fill="#000000" font-family="sans-serif" font-size="13" lengthAdjust="spacing" textLength="46.4204" x="215.5" y="544.7566">hasPart</text></g><!--link eo1 to ecsv1--><g class="link" data-entity-1="eo1" data-entity-2="ecsv1" data-source-line="42" data-uid="lnk13" id="link_eo1_ecsv1"><path d="M312.59,501.5383 C371.86,528.6383 441.3934,560.4332 491.9334,583.5432" fill="none" id="eo1-to-ecsv1" style="stroke:#181818;stroke-width:1;"/><polygon fill="#181818" points="497.39,586.0383,490.8685,578.6579,492.8428,583.959,487.5417,585.9334,497.39,586.0383" style="stroke:#181818;stroke-width:1;"/><text fill="#000000" font-family="sans-serif" font-size="13" lengthAdjust="spacing" textLength="46.4204" x="408" y="544.7566">hasPart</text></g><!--reverse link ca to eo1--><g class="link" data-entity-1="ca" data-entity-2="eo1" data-source-line="44" data-uid="lnk15" id="link_ca_eo1"><path d="M220,305.6383 C220,335.5683 220,379.2583 220,414.8383" fill="none" id="ca-backto-eo1" style="stroke:#181818;stroke-width:1;"/><polygon fill="#181818" points="220,299.6383,216,308.6383,220,304.6383,224,308.6383,220,299.6383" style="stroke:#181818;stroke-width:1;"/><text fill="#000000" font-family="sans-serif" font-size="13" lengthAdjust="spacing" textLength="106.4121" x="221" y="344.7966">pcdm:memberOf</text></g><!--reverse link cc to ca--><g class="link" data-entity-1="cc" data-entity-2="ca" data-source-line="45" data-uid="lnk17" id="link_cc_ca"><path d="M379.9586,135.7645 C343.3286,166.9045 286.79,214.9583 250.25,246.0183" fill="none" id="cc-backto-ca" style="stroke:#181818;stroke-width:1;"/><polygon fill="#181818" points="384.53,131.8783,375.0822,134.66,380.7205,135.1168,380.2638,140.7552,384.53,131.8783" style="stroke:#181818;stroke-width:1;"/><text fill="#000000" font-family="sans-serif" font-size="13" lengthAdjust="spacing" textLength="106.4121" x="330.18" y="191.8266">pcdm:memberOf</text></g><!--reverse link cc to cb--><g class="link" data-entity-1="cc" data-entity-2="cb" data-source-line="46" data-uid="lnk19" id="link_cc_cb"><path d="M441.9513,136.367 C469.5713,167.507 511.65,214.9583 539.19,246.0183" fill="none" id="cc-backto-cb" style="stroke:#181818;stroke-width:1;"/><polygon fill="#181818" points="437.97,131.8783,440.9495,141.2656,441.2878,135.6189,446.9345,135.9572,437.97,131.8783" style="stroke:#181818;stroke-width:1;"/><text fill="#000000" font-family="sans-serif" font-size="13" lengthAdjust="spacing" textLength="106.4121" x="493.91" y="191.8266">pcdm:memberOf</text></g><!--link ec2 to GMN23--><g class="link" data-entity-1="ec2" data-entity-2="GMN23" data-source-line="51" data-uid="lnk25" id="link_ec2_GMN23"><path d="M717.2489,468.3366 C717.4704,468.5817 717.6958,468.8311 717.925,469.0848 C718.3834,469.592 718.8571,470.1162 719.3455,470.6568 C721.2994,472.8188 723.489,475.2418 725.8784,477.8859 C735.4363,488.4623 748.1913,502.5764 761.84,517.6795 C789.1375,547.8858 820.01,582.0483 836.03,599.7783" fill="none" id="ec2-GMN23" style="stroke:#181818;stroke-width:1;stroke-dasharray:7,7;"/></g><!--SRC=[lPHDYzim48Rl_XN3xhL9I8zc2SrcQIaqPDbD3wNfGPOKUnfz64bE26N_UqTMrdQpXFHGQeW9VkUTUKOQAM1GCeS7zC5XqGGfW3iM91mmLA3Gx3m42wlYf-GXIJwh6T-nKiADOPhCooCihAiRVmFCW-RmAmC0HmPcIaLXTyNiGpZMCh-R53Fu_i02ypAyWoTPMu_1kkF2AaNnQCsFZQ5mRitMEktNDdd6azi-f2t3OvbOvoLxoNgYfzLe4I5pwEDXdXppLyj5j7_5nZesW8XtXUy-kUx_6r_n5toVJP1kZ_80jzFM9VdxTcSlqlL8QLmkqGnK9HZFkTMwCPn5lgKLfsojz5pRdJHVg5nJojv1SrasDBB8FqdZXeQEEY7RwQ1JoCxOFw8wURVqpqzO8z1EnmUsxqjfMWo7JAsxDjlFZmurSyVbIJrl1gzrGukT2DdqxOwVSt6_duxfTPLgRemDhDjd6OqnFMI3NxiQzCJ56GbxCADPn80SAkOVcGj_AZ77G4jYKvD4Ovv3pONEjTI5TAjjHfzE6d-h5PUrZBWbE2oh07QR8lfn6foLV6D6iFpwl0OQhC3GW92UEwm3xYLe6PYW4x8n03Hr42f9SV5gcl0kHPjX_grBq99GUyiMXhP2jIleAwnzJAJYe9aIU8LA350yK8KqovvcBBLGs12iZZt4un9FaS0zYeOfiEaERI_MkAyGIRFV]--></g></svg>