<svg xmlns="http://www.w3.org/2000/svg" xmlns:xlink="http://www.w3.org/1999/xlink" contentStyleType="text/css" data-diagram-type="DESCRIPTION" height="1025px" preserveAspectRatio="none" style="width:1074px;height:1025px;background:#FFFFFF;" version="1.1" viewBox="0 0 1074 1025" width="1074px" zoomAndPan="magnify"><title>Structure of an Object crate</title><defs/><g><g class="title" data-source-line="2"><text fill="#000000" font-family="sans-serif" font-size="14" font-weight="bold" lengthAdjust="spacing" textLength="199.459" x="430.6805" y="23.5352">Structure of an Object crate</text></g><!--cluster RO-Crate Profile--><g class="cluster" data-entity="RO-Crate Profile" data-source-line="8" data-uid="ent0004" id="cluster_RO-Crate Profile"><rect fill="none" height="106.49" rx="2.5" ry="2.5" style="stroke:#181818;stroke-width:1;" width="246" x="822.82" y="92.7305"/><text fill="#000000" font-family="sans-serif" font-size="14" font-weight="bold" lengthAdjust="spacing" textLength="120.1895" x="885.7253" y="108.2656">RO-Crate Profile</text></g><!--cluster c1--><g class="cluster" data-entity="c1" data-source-line="13" data-uid="ent0007" id="cluster_c1"><rect fill="none" height="122.49" rx="2.5" ry="2.5" style="stroke:#181818;stroke-width:1;" width="324" x="283.82" y="84.7305"/><text fill="#000000" font-family="sans-serif" font-size="14" font-weight="bold" lengthAdjust="spacing" textLength="95.4912" x="398.0744" y="100.2656">Conversation</text></g><!--cluster audio1--><g class="cluster" data-entity="audio1" data-source-line="19" data-uid="ent0009" id="cluster_audio1"><rect fill="none" height="204.93" rx="2.5" ry="2.5" style="stroke:#181818;stroke-width:1;" width="425" x="45.82" y="274.2205"/><text fill="#000000" font-family="sans-serif" font-size="14" font-weight="bold" lengthAdjust="spacing" textLength="72.2354" x="222.2023" y="289.7556">Audio File</text></g><!--cluster pdf1--><g class="cluster" data-entity="pdf1" data-source-line="24" data-uid="ent0011" id="cluster_pdf1"><rect fill="none" height="204.93" rx="2.5" ry="2.5" style="stroke:#181818;stroke-width:1;" width="424" x="183.82" y="544.1505"/><text fill="#000000" font-family="sans-serif" font-size="14" font-weight="bold" lengthAdjust="spacing" textLength="57.6885" x="366.9758" y="559.6856">PDF File</text></g><!--cluster csv1--><g class="cluster" data-entity="csv1" data-source-line="29" data-uid="ent0013" id="cluster_csv1"><rect fill="none" height="204.93" rx="2.5" ry="2.5" style="stroke:#181818;stroke-width:1;" width="435" x="141.82" y="814.0805"/><text fill="#000000" font-family="sans-serif" font-size="14" font-weight="bold" lengthAdjust="spacing" textLength="57.7158" x="330.4621" y="829.6156">CSV File</text></g><!--entity procoll--><g class="entity" data-entity="procoll" data-source-line="9" data-uid="ent0005" id="entity_procoll"><rect fill="#F1F1F1" height="36.4883" rx="2.5" ry="2.5" style="stroke:#181818;stroke-width:0.5;" width="101.2041" x="951.22" y="146.7305"/><text fill="#000000" font-family="sans-serif" font-size="14" lengthAdjust="spacing" textLength="76.7744" x="965.6497" y="170.2656">#Collection</text></g><!--entity proobj--><g class="entity" data-entity="proobj" data-source-line="10" data-uid="ent0006" id="entity_proobj"><rect fill="#F1F1F1" height="36.4883" rx="2.5" ry="2.5" style="stroke:#181818;stroke-width:0.5;" width="77.4355" x="839.1" y="146.7305"/><text fill="#000000" font-family="sans-serif" font-size="14" lengthAdjust="spacing" textLength="53.0059" x="853.5297" y="170.2656">#Object</text></g><!--entity <b>@type:</b> [Dataset, RepositoryObject]--><g class="entity" data-entity=".b..type...b. .Dataset. RepositoryObject." data-source-line="16" data-uid="ent0008" id="entity_.b..type...b. .Dataset. RepositoryObject."><rect fill="#F1F1F1" height="36.4883" rx="2.5" ry="2.5" style="stroke:#181818;stroke-width:0.5;" width="256.8242" x="307.41" y="146.7305"/><text fill="#000000" font-family="sans-serif" font-size="14" font-weight="bold" lengthAdjust="spacing" textLength="46.792" x="317.41" y="170.2656">@type:</text><text fill="#000000" font-family="sans-serif" font-size="14" lengthAdjust="spacing" textLength="185.6025" x="368.6317" y="170.2656">[Dataset, RepositoryObject]</text></g><!--entity <b>@id:</b> file.wav\n<b>@type:</b> [File, ldac:PrimaryMaterial]\n<b>ldac:communicationMode:</b> ldac:SpokenLanguage\n<b>ldac:linguisticGenre:</b> ldac:Interview\n<b>ldac:materialType:</b> ldac:PrimaryMaterial\n<b>encodingFormat:</b> audio/x-wav--><g class="entity" data-entity=".b..id...b. file.wav.n.b..type...b. .File. ldac.PrimaryMaterial..n.b.ldac.communicationMode...b. ldac.SpokenLanguage.n.b.ldac.linguisticGenre...b. ldac.Interview.n.b.ldac.materialType...b. ldac.PrimaryMaterial.n.b.encodingFormat...b. audio.x-wav" data-source-line="20" data-uid="ent0010" id="entity_.b..id...b. file.wav.n.b..type...b. .File. ldac.PrimaryMaterial..n.b.ldac.communicationMode...b. ldac.SpokenLanguage.n.b.ldac.linguisticGenre...b. ldac.Interview.n.b.ldac.materialType...b. ldac.PrimaryMaterial.n.b.encodingFormat...b. audio.x-wav"><rect fill="#F1F1F1" height="118.9297" rx="2.5" ry="2.5" style="stroke:#181818;stroke-width:0.5;" width="357.8936" x="69.87" y="336.2205"/><text fill="#000000" font-family="sans-serif" font-size="14" font-weight="bold" lengthAdjust="spacing" textLength="29.3057" x="79.87" y="359.7556">@id:</text><text fill="#000000" font-family="sans-serif" font-size="14" lengthAdjust="spacing" textLength="51.2354" x="113.6054" y="359.7556">file.wav</text><text fill="#000000" font-family="sans-serif" font-size="14" font-weight="bold" lengthAdjust="spacing" textLength="46.792" x="79.87" y="376.2439">@type:</text><text fill="#000000" font-family="sans-serif" font-size="14" lengthAdjust="spacing" textLength="179.293" x="131.0917" y="376.2439">[File, ldac:PrimaryMaterial]</text><text fill="#000000" font-family="sans-serif" font-size="14" font-weight="bold" lengthAdjust="spacing" textLength="186.0879" x="79.87" y="392.7322">ldac:communicationMode:</text><text fill="#000000" font-family="sans-serif" font-size="14" lengthAdjust="spacing" textLength="147.376" x="270.3876" y="392.7322">ldac:SpokenLanguage</text><text fill="#000000" font-family="sans-serif" font-size="14" font-weight="bold" lengthAdjust="spacing" textLength="145.708" x="79.87" y="409.2205">ldac:linguisticGenre:</text><text fill="#000000" font-family="sans-serif" font-size="14" lengthAdjust="spacing" textLength="93.5566" x="230.0077" y="409.2205">ldac:Interview</text><text fill="#000000" font-family="sans-serif" font-size="14" font-weight="bold" lengthAdjust="spacing" textLength="131.1133" x="79.87" y="425.7088">ldac:materialType:</text><text fill="#000000" font-family="sans-serif" font-size="14" lengthAdjust="spacing" textLength="137.9287" x="215.413" y="425.7088">ldac:PrimaryMaterial</text><text fill="#000000" font-family="sans-serif" font-size="14" font-weight="bold" lengthAdjust="spacing" textLength="120.333" x="79.87" y="442.197">encodingFormat:</text><text fill="#000000" font-family="sans-serif" font-size="14" lengthAdjust="spacing" textLength="87.6709" x="204.6327" y="442.197">audio/x-wav</text></g><!--entity pt--><g class="entity" data-entity="pt" data-source-line="25" data-uid="ent0012" id="entity_pt"><rect fill="#F1F1F1" height="118.9297" rx="2.5" ry="2.5" style="stroke:#181818;stroke-width:0.5;" width="356.9844" x="207.33" y="606.1505"/><text fill="#000000" font-family="sans-serif" font-size="14" font-weight="bold" lengthAdjust="spacing" textLength="29.3057" x="217.33" y="629.6856">@id:</text><text fill="#000000" font-family="sans-serif" font-size="14" lengthAdjust="spacing" textLength="48.2412" x="251.0654" y="629.6856">file.pdf</text><text fill="#000000" font-family="sans-serif" font-size="14" font-weight="bold" lengthAdjust="spacing" textLength="46.792" x="217.33" y="646.1739">@type:</text><text fill="#000000" font-family="sans-serif" font-size="14" lengthAdjust="spacing" textLength="148.7295" x="268.5517" y="646.1739">[File, ldac:Annotation]</text><text fill="#000000" font-family="sans-serif" font-size="14" font-weight="bold" lengthAdjust="spacing" textLength="149.5566" x="217.33" y="662.6622">ldac:annotationType:</text><text fill="#000000" font-family="sans-serif" font-size="14" lengthAdjust="spacing" textLength="122.6572" x="371.3163" y="662.6622">ldac:Transcription</text><text fill="#000000" font-family="sans-serif" font-size="14" font-weight="bold" lengthAdjust="spacing" textLength="186.0879" x="217.33" y="679.1505">ldac:communicationMode:</text><text fill="#000000" font-family="sans-serif" font-size="14" lengthAdjust="spacing" textLength="146.4668" x="407.8476" y="679.1505">ldac:WrittenLanguage</text><text fill="#000000" font-family="sans-serif" font-size="14" font-weight="bold" lengthAdjust="spacing" textLength="131.1133" x="217.33" y="695.6388">ldac:materialType:</text><text fill="#000000" font-family="sans-serif" font-size="14" lengthAdjust="spacing" textLength="138.4893" x="352.873" y="695.6388">ldac:DerivedMaterial</text><text fill="#000000" font-family="sans-serif" font-size="14" font-weight="bold" lengthAdjust="spacing" textLength="120.333" x="217.33" y="712.127">encodingFormat:</text><text fill="#000000" font-family="sans-serif" font-size="14" lengthAdjust="spacing" textLength="105.0342" x="342.0927" y="712.127">application/pdf</text></g><!--entity <b>@id:</b> file.csv\n<b>@type:</b> [File, ldac:Annotation, ldac:DerivedMaterial]\n<b>ldac:annotationType:</b> ldac:Transcription\n<b>ldac:communicationMode:</b> ldac:WrittenLanguage\n<b>ldac:materialType:</b> ldac:DerivedMaterial\n<b>encodingFormat:</b> text/csv--><g class="entity" data-entity=".b..id...b. file.csv.n.b..type...b. .File. ldac.Annotation. ldac.DerivedMaterial..n.b.ldac.annotationType...b. ldac.Transcription.n.b.ldac.communicationMode...b. ldac.WrittenLanguage.n.b.ldac.materialType...b. ldac.DerivedMaterial.n.b.encodingFormat...b. text.csv" data-source-line="30" data-uid="ent0014" id="entity_.b..id...b. file.csv.n.b..type...b. .File. ldac.Annotation. ldac.DerivedMaterial..n.b.ldac.annotationType...b. ldac.Transcription.n.b.ldac.communicationMode...b. ldac.WrittenLanguage.n.b.ldac.materialType...b. ldac.DerivedMaterial.n.b.encodingFormat...b. text.csv"><rect fill="#F1F1F1" height="118.9297" rx="2.5" ry="2.5" style="stroke:#181818;stroke-width:0.5;" width="367.2998" x="166.17" y="876.0805"/><text fill="#000000" font-family="sans-serif" font-size="14" font-weight="bold" lengthAdjust="spacing" textLength="29.3057" x="176.17" y="899.6156">@id:</text><text fill="#000000" font-family="sans-serif" font-size="14" lengthAdjust="spacing" textLength="47.0244" x="209.9054" y="899.6156">file.csv</text><text fill="#000000" font-family="sans-serif" font-size="14" font-weight="bold" lengthAdjust="spacing" textLength="46.792" x="176.17" y="916.1039">@type:</text><text fill="#000000" font-family="sans-serif" font-size="14" lengthAdjust="spacing" textLength="296.0781" x="227.3917" y="916.1039">[File, ldac:Annotation, ldac:DerivedMaterial]</text><text fill="#000000" font-family="sans-serif" font-size="14" font-weight="bold" lengthAdjust="spacing" textLength="149.5566" x="176.17" y="932.5922">ldac:annotationType:</text><text fill="#000000" font-family="sans-serif" font-size="14" lengthAdjust="spacing" textLength="122.6572" x="330.1563" y="932.5922">ldac:Transcription</text><text fill="#000000" font-family="sans-serif" font-size="14" font-weight="bold" lengthAdjust="spacing" textLength="186.0879" x="176.17" y="949.0805">ldac:communicationMode:</text><text fill="#000000" font-family="sans-serif" font-size="14" lengthAdjust="spacing" textLength="146.4668" x="366.6876" y="949.0805">ldac:WrittenLanguage</text><text fill="#000000" font-family="sans-serif" font-size="14" font-weight="bold" lengthAdjust="spacing" textLength="131.1133" x="176.17" y="965.5687">ldac:materialType:</text><text fill="#000000" font-family="sans-serif" font-size="14" lengthAdjust="spacing" textLength="138.4893" x="311.713" y="965.5687">ldac:DerivedMaterial</text><text fill="#000000" font-family="sans-serif" font-size="14" font-weight="bold" lengthAdjust="spacing" textLength="120.333" x="176.17" y="982.057">encodingFormat:</text><text fill="#000000" font-family="sans-serif" font-size="14" lengthAdjust="spacing" textLength="55.7539" x="300.9327" y="982.057">text/csv</text></g><!--entity s1--><g class="entity" data-entity="s1" data-source-line="5" data-uid="ent0002" id="entity_s1"><ellipse cx="226.818" cy="135.2305" fill="#F1F1F1" rx="8" ry="8" style="stroke:#181818;stroke-width:0.5;"/><path d="M226.818,143.2305 L226.818,170.2305 M213.818,151.2305 L239.818,151.2305 M226.818,170.2305 L213.818,185.2305 M226.818,170.2305 L239.818,185.2305" fill="none" style="stroke:#181818;stroke-width:0.5;"/><text fill="#000000" font-family="sans-serif" font-size="14" lengthAdjust="spacing" textLength="66.876" x="193.38" y="200.2656">Speaker 1</text></g><!--entity s2--><g class="entity" data-entity="s2" data-source-line="6" data-uid="ent0003" id="entity_s2"><ellipse cx="770.818" cy="135.2305" fill="#F1F1F1" rx="8" ry="8" style="stroke:#181818;stroke-width:0.5;"/><path d="M770.818,143.2305 L770.818,170.2305 M757.818,151.2305 L783.818,151.2305 M770.818,170.2305 L757.818,185.2305 M770.818,170.2305 L783.818,185.2305" fill="none" style="stroke:#181818;stroke-width:0.5;"/><text fill="#000000" font-family="sans-serif" font-size="14" lengthAdjust="spacing" textLength="66.876" x="737.38" y="200.2656">Speaker 2</text></g><!--link c1 to pdf1--><g class="link" data-entity-1="c1" data-entity-2="pdf1" data-source-line="33" data-uid="lnk15" id="link_c1_pdf1"><path d="M599.82,207.3207 C599.82,209.5554 599.82,211.8663 599.82,214.2498 C599.82,223.7839 599.82,234.4792 599.82,246.1036 C599.82,292.6011 599.82,353.963 599.82,415.323 C599.82,446.003 599.82,476.6825 599.82,505.5033 C599.82,512.7085 599.82,519.7975 599.82,526.7413 C599.82,530.2132 599.82,533.6488 599.82,537.0445 C599.82,538.7423 599.82,540.4302 599.82,542.1076 C599.82,542.527 599.82,536.9457 599.82,537.3637" fill="none" id="c1-to-pdf1" style="stroke:#181818;stroke-width:1;"/><polygon fill="#181818" points="599.82,543.3637,603.82,534.3637,599.82,538.3637,595.82,534.3637,599.82,543.3637" style="stroke:#181818;stroke-width:1;"/><text fill="#000000" font-family="sans-serif" font-size="13" lengthAdjust="spacing" textLength="46.4204" x="600.82" y="400.7588">hasPart</text></g><!--reverse link audio1 to pdf1--><g class="link" data-entity-1="audio1" data-entity-2="pdf1" data-source-line="35" data-uid="lnk17" id="link_audio1_pdf1"><path d="M444.4701,485.5776 C446.0172,498.7984 450.5925,510.2855 459.82,520.1505 C478.08,539.6705 560.19,510.0105 579.82,528.1505 C582.59,530.7098 585.0948,533.4708 587.3567,536.3989 C588.4876,537.8629 589.5578,539.3688 590.5699,540.9121 C591.076,541.6837 591.5676,542.4647 592.0451,543.2545 C592.1644,543.452 592.2829,543.65 592.4005,543.8486" fill="none" id="audio1-backto-pdf1" style="stroke:#181818;stroke-width:1;"/><polygon fill="#181818" points="444.0961,479.5893,440.6649,488.8211,444.4078,484.5796,448.6493,488.3225,444.0961,479.5893" style="stroke:#181818;stroke-width:1;"/><text fill="#000000" font-family="sans-serif" font-size="13" lengthAdjust="spacing" textLength="112.7852" x="460.82" y="516.7188">ldac:annotationOf</text></g><!--link c1 to audio1--><g class="link" data-entity-1="c1" data-entity-2="audio1" data-source-line="36" data-uid="lnk18" id="link_c1_audio1"><path d="M591.308,207.4567 C588.5031,213.4255 584.775,218.973 579.82,223.2205 C561.29,239.1105 544.63,217.6705 525.82,233.2205 C496.6,257.3805 480.8825,296.873 472.4538,330.7517 C471.927,332.8691 472.7618,329.1146 472.2904,331.1831" fill="none" id="c1-to-audio1" style="stroke:#181818;stroke-width:1;"/><polygon fill="#181818" points="470.9573,337.0331,476.857,329.1468,472.0682,332.1581,469.0569,327.3693,470.9573,337.0331" style="stroke:#181818;stroke-width:1;"/><text fill="#000000" font-family="sans-serif" font-size="13" lengthAdjust="spacing" textLength="46.4204" x="526.82" y="246.7888">hasPart</text></g><!--link c1 to csv1--><g class="link" data-entity-1="c1" data-entity-2="csv1" data-source-line="37" data-uid="lnk19" id="link_c1_csv1"><path d="M608.0202,175.6658 C608.088,175.7494 608.1562,175.8335 608.2246,175.9181 C608.3616,176.0873 608.4998,176.2584 608.6393,176.4314 C608.9183,176.7774 609.2022,177.1309 609.4909,177.4917 C610.0683,178.2134 610.6648,178.9646 611.2782,179.7439 C612.5052,181.3026 613.8005,182.9738 615.1484,184.7473 C617.8443,188.2943 620.7509,192.2502 623.7438,196.5317 C635.715,213.658 649.065,235.9955 655.82,258.2205 C724.64,484.5905 754.46,565.8905 678.82,790.0805 C666.12,827.7155 639.275,863.3005 615.285,889.7367 C603.29,902.9548 592.0088,913.8858 583.5663,921.6422 C581.4556,923.5813 579.5224,925.322 577.7998,926.8504 C577.5845,927.0415 577.3725,927.2292 577.1638,927.4136 C577.0595,927.5058 581.4562,923.6287 581.3535,923.7193" fill="none" id="c1-to-csv1" style="stroke:#181818;stroke-width:1;"/><polygon fill="#181818" points="576.8533,927.6877,586.2492,924.7352,580.6035,924.3807,580.958,918.7349,576.8533,927.6877" style="stroke:#181818;stroke-width:1;"/><text fill="#000000" font-family="sans-serif" font-size="13" lengthAdjust="spacing" textLength="46.4204" x="721.83" y="516.7188">hasPart</text></g><!--reverse link audio1 to csv1--><g class="link" data-entity-1="audio1" data-entity-2="csv1" data-source-line="38" data-uid="lnk21" id="link_audio1_csv1"><path d="M452.9535,484.7804 C452.7952,485.0796 455.1647,480.5029 455.0018,480.7993 C454.676,481.3921 454.341,481.9793 453.9966,482.5605 C451.2417,487.2097 447.8875,491.473 443.82,495.1505 C383.24,549.9205 132.91,467.8705 77.82,528.1505 C6.78,605.8805 6,688.0705 77.82,765.0805 C149.53,841.9805 472.97,726.3205 549.82,798.0805 C552.5738,800.6517 555.0606,803.4231 557.3029,806.3603 C558.4241,807.8289 559.4841,809.339 560.4859,810.8862 C560.9867,811.6598 561.473,812.4427 561.9451,813.2343 C562.0631,813.4322 562.1802,813.6307 562.2964,813.8297" fill="none" id="audio1-backto-csv1" style="stroke:#181818;stroke-width:1;"/><polygon fill="#181818" points="455.7196,479.4561,448.0209,485.5985,453.4146,483.8931,455.12,489.2867,455.7196,479.4561" style="stroke:#181818;stroke-width:1;"/><text fill="#000000" font-family="sans-serif" font-size="13" lengthAdjust="spacing" textLength="112.7852" x="78.82" y="670.6888">ldac:annotationOf</text></g><!--reverse link pdf1 to csv1--><g class="link" data-entity-1="pdf1" data-entity-2="csv1" data-source-line="39" data-uid="lnk23" id="link_pdf1_csv1"><path d="M586.3219,754.7675 C586.1806,755.0866 588.2272,750.3852 588.0827,750.7026 C585.7703,755.7805 583.04,760.628 579.82,765.0805 C575.62,770.8905 569.42,766.8805 565.82,773.0805 C561.3875,780.7192 558.0913,788.9228 555.7187,797.4366 C554.5325,801.6935 553.5771,806.0279 552.8262,810.408 C552.6384,811.5031 552.4635,812.601 552.3009,813.7012" fill="none" id="pdf1-backto-csv1" style="stroke:#181818;stroke-width:1;"/><polygon fill="#181818" points="588.7221,749.2685,581.4558,755.9168,586.7219,753.851,588.7877,759.1171,588.7221,749.2685" style="stroke:#181818;stroke-width:1;"/><text fill="#000000" font-family="sans-serif" font-size="13" lengthAdjust="spacing" textLength="107.853" x="566.82" y="786.6488">ldac:derivationOf</text></g><!--reverse link s1 to c1--><g class="link" data-entity-1="s1" data-entity-2="c1" data-source-line="41" data-uid="lnk25" id="link_s1_c1"><path d="M244.6712,121.1129 C255.2212,99.9929 268.87,81.0405 291.82,68.8605 C320.08,53.8505 554.99,48.6705 579.82,68.8605 C583.7875,72.0867 587.0998,75.8767 589.8561,80.054 C590.5452,81.0984 591.1995,82.1669 591.8206,83.2569 C591.9758,83.5294 592.129,83.8032 592.2802,84.0784 C592.3558,84.2159 592.4308,84.3538 592.5054,84.492" fill="none" id="s1-backto-c1" style="stroke:#181818;stroke-width:1;"/><polygon fill="#181818" points="241.99,126.4805,249.5903,120.2166,244.2244,122.0075,242.4335,116.6416,241.99,126.4805" style="stroke:#181818;stroke-width:1;"/><text fill="#000000" font-family="sans-serif" font-size="13" lengthAdjust="spacing" textLength="99.4487" x="378.32" y="57.2988">ldac:interviewer</text></g><!--link c1 to s2--><g class="link" data-entity-1="c1" data-entity-2="s2" data-source-line="42" data-uid="lnk26" id="link_c1_s2"><path d="M607.9058,164.9805 C608.0089,164.9805 608.1128,164.9805 608.2176,164.9805 C608.6369,164.9805 609.0701,164.9805 609.5168,164.9805 C610.4103,164.9805 611.358,164.9805 612.3567,164.9805 C614.3539,164.9805 616.555,164.9805 618.9342,164.9805 C628.4509,164.9805 640.8169,164.9805 654.3838,164.9805 C681.5175,164.9805 707.455,164.9805 731.01,164.9805" fill="none" id="c1-to-s2" style="stroke:#181818;stroke-width:1;"/><polygon fill="#181818" points="737.01,164.9805,728.01,160.9805,732.01,164.9805,728.01,168.9805,737.01,164.9805" style="stroke:#181818;stroke-width:1;"/><text fill="#000000" font-family="sans-serif" font-size="13" lengthAdjust="spacing" textLength="101.3721" x="618.28" y="158.5488">ldac:interviewee</text></g><!--link c1 to proobj--><g class="link" data-entity-1="c1" data-entity-2="proobj" data-source-line="43" data-uid="lnk27" id="link_c1_proobj"><path d="M608.0188,154.8871 C608.1045,154.7859 608.1908,154.6842 608.2778,154.5818 C608.4517,154.377 608.628,154.1698 608.8068,153.9601 C609.1645,153.5408 609.532,153.1118 609.9091,152.6736 C610.6634,151.7971 611.4564,150.8836 612.2869,149.9364 C618.9306,142.3586 627.9725,132.6217 638.7825,122.408 C660.4025,101.9805 689.095,79.6455 719.82,68.8605 C762.59,53.8405 782.52,46.2705 821.82,68.8605 C850.79,85.5105 864.4435,117.8072 871.3735,140.7272" fill="none" id="c1-to-proobj" style="stroke:#181818;stroke-width:1;"/><polygon fill="#181818" points="873.11,146.4705,874.3341,136.698,871.6629,141.6845,866.6764,139.0133,873.11,146.4705" style="stroke:#181818;stroke-width:1;"/><text fill="#000000" font-family="sans-serif" font-size="13" lengthAdjust="spacing" textLength="75.7656" x="682.32" y="57.2988">conformsTo</text></g><!--SRC=[rPHDRzim38Rl-XL4TeqN94UZC5OaI35WHO8cs0vR3ufCfseToP1afy6m_pvQ_eoRhRdsAFBbI_AnP2TTYY5idCc5oms2Je0hMEsUKJWGXZjaZ77Xj87H9aF-WWQc8-0Mx7GOdrNn6ME6ghdQfmYZXrKmBsrWRNGYKnp1xtuQFirrcj9PQkNBCwC5HSurrJnDNk-UsP-p9dEj2ZIMjovYIcqOCEY9RdRH5tVACBoPx2BukU2EMtHZUC1CMqcRdAesZoDWvD-hlCrZgM7ffoTpNXxB1W13VnbNxkMcdu-y-AK6NKkJCQGn5-7Qo0Ctftk2OoHF7xtMPuG-778bXT_dNiTriSzjCls2wXlrpFaUkvfKKaHQ9yKTAjEl-AgeGI7ns8aFTSzjEzYbYRmUbT0nUI-reQfAx05CNWDQi6Hr3ckzM7QeiZYv0XIf_WVgLYdjF8iU8zu61qji3LTM69cLkUkO_Z3IkKjG_y5fGS42u_SvPLbQTvpGZXKHvs_NsUtTVE-82LjSGOnKrn4RNvpuWt5q-Eecj39TDY97Rpk8zL45KNMzGdZYTisDOyoVWpmBekQHXZ3OSfNq3LfLOz7B-I_HovJ7zxqxLJsSryJbfet6DqanSIIohKGspnID5nYvV_AAsLi5UaK4zTym1A5LGi3iLZFs5m00]--></g></svg>